%TF.GenerationSoftware,KiCad,Pcbnew,(5.1.10)-1*%
%TF.CreationDate,2022-05-16T18:50:31-07:00*%
%TF.ProjectId,KeyPad_Board,4b657950-6164-45f4-926f-6172642e6b69,rev?*%
%TF.SameCoordinates,Original*%
%TF.FileFunction,Legend,Bot*%
%TF.FilePolarity,Positive*%
%FSLAX46Y46*%
G04 Gerber Fmt 4.6, Leading zero omitted, Abs format (unit mm)*
G04 Created by KiCad (PCBNEW (5.1.10)-1) date 2022-05-16 18:50:31*
%MOMM*%
%LPD*%
G01*
G04 APERTURE LIST*
%ADD10C,0.150000*%
%ADD11C,0.125000*%
%ADD12C,0.120000*%
%ADD13C,0.127000*%
%ADD14C,0.100000*%
G04 APERTURE END LIST*
D10*
X160852380Y-94361904D02*
X160852380Y-94980952D01*
X161233333Y-94647619D01*
X161233333Y-94790476D01*
X161280952Y-94885714D01*
X161328571Y-94933333D01*
X161423809Y-94980952D01*
X161661904Y-94980952D01*
X161757142Y-94933333D01*
X161804761Y-94885714D01*
X161852380Y-94790476D01*
X161852380Y-94504761D01*
X161804761Y-94409523D01*
X161757142Y-94361904D01*
X160852380Y-95266666D02*
X161852380Y-95600000D01*
X160852380Y-95933333D01*
X160852380Y-96171428D02*
X160852380Y-96790476D01*
X161233333Y-96457142D01*
X161233333Y-96600000D01*
X161280952Y-96695238D01*
X161328571Y-96742857D01*
X161423809Y-96790476D01*
X161661904Y-96790476D01*
X161757142Y-96742857D01*
X161804761Y-96695238D01*
X161852380Y-96600000D01*
X161852380Y-96314285D01*
X161804761Y-96219047D01*
X161757142Y-96171428D01*
X160852380Y-90609523D02*
X160852380Y-90133333D01*
X161328571Y-90085714D01*
X161280952Y-90133333D01*
X161233333Y-90228571D01*
X161233333Y-90466666D01*
X161280952Y-90561904D01*
X161328571Y-90609523D01*
X161423809Y-90657142D01*
X161661904Y-90657142D01*
X161757142Y-90609523D01*
X161804761Y-90561904D01*
X161852380Y-90466666D01*
X161852380Y-90228571D01*
X161804761Y-90133333D01*
X161757142Y-90085714D01*
X160852380Y-90942857D02*
X161852380Y-91276190D01*
X160852380Y-91609523D01*
X161000000Y-92390476D02*
X160961904Y-92314285D01*
X160961904Y-92200000D01*
X161000000Y-92085714D01*
X161076190Y-92009523D01*
X161152380Y-91971428D01*
X161304761Y-91933333D01*
X161419047Y-91933333D01*
X161571428Y-91971428D01*
X161647619Y-92009523D01*
X161723809Y-92085714D01*
X161761904Y-92200000D01*
X161761904Y-92276190D01*
X161723809Y-92390476D01*
X161685714Y-92428571D01*
X161419047Y-92428571D01*
X161419047Y-92276190D01*
X161761904Y-92771428D02*
X160961904Y-92771428D01*
X161761904Y-93228571D01*
X160961904Y-93228571D01*
X161761904Y-93609523D02*
X160961904Y-93609523D01*
X160961904Y-93800000D01*
X161000000Y-93914285D01*
X161076190Y-93990476D01*
X161152380Y-94028571D01*
X161304761Y-94066666D01*
X161419047Y-94066666D01*
X161571428Y-94028571D01*
X161647619Y-93990476D01*
X161723809Y-93914285D01*
X161761904Y-93800000D01*
X161761904Y-93609523D01*
X161852380Y-87757142D02*
X161852380Y-87280952D01*
X160852380Y-87280952D01*
X161328571Y-88090476D02*
X161328571Y-88423809D01*
X161852380Y-88566666D02*
X161852380Y-88090476D01*
X160852380Y-88090476D01*
X160852380Y-88566666D01*
X161852380Y-88995238D02*
X160852380Y-88995238D01*
X160852380Y-89233333D01*
X160900000Y-89376190D01*
X160995238Y-89471428D01*
X161090476Y-89519047D01*
X161280952Y-89566666D01*
X161423809Y-89566666D01*
X161614285Y-89519047D01*
X161709523Y-89471428D01*
X161804761Y-89376190D01*
X161852380Y-89233333D01*
X161852380Y-88995238D01*
X161804761Y-84409523D02*
X161852380Y-84552380D01*
X161852380Y-84790476D01*
X161804761Y-84885714D01*
X161757142Y-84933333D01*
X161661904Y-84980952D01*
X161566666Y-84980952D01*
X161471428Y-84933333D01*
X161423809Y-84885714D01*
X161376190Y-84790476D01*
X161328571Y-84600000D01*
X161280952Y-84504761D01*
X161233333Y-84457142D01*
X161138095Y-84409523D01*
X161042857Y-84409523D01*
X160947619Y-84457142D01*
X160900000Y-84504761D01*
X160852380Y-84600000D01*
X160852380Y-84838095D01*
X160900000Y-84980952D01*
X161757142Y-85980952D02*
X161804761Y-85933333D01*
X161852380Y-85790476D01*
X161852380Y-85695238D01*
X161804761Y-85552380D01*
X161709523Y-85457142D01*
X161614285Y-85409523D01*
X161423809Y-85361904D01*
X161280952Y-85361904D01*
X161090476Y-85409523D01*
X160995238Y-85457142D01*
X160900000Y-85552380D01*
X160852380Y-85695238D01*
X160852380Y-85790476D01*
X160900000Y-85933333D01*
X160947619Y-85980952D01*
X161852380Y-86885714D02*
X161852380Y-86409523D01*
X160852380Y-86409523D01*
X161804761Y-81385714D02*
X161852380Y-81528571D01*
X161852380Y-81766666D01*
X161804761Y-81861904D01*
X161757142Y-81909523D01*
X161661904Y-81957142D01*
X161566666Y-81957142D01*
X161471428Y-81909523D01*
X161423809Y-81861904D01*
X161376190Y-81766666D01*
X161328571Y-81576190D01*
X161280952Y-81480952D01*
X161233333Y-81433333D01*
X161138095Y-81385714D01*
X161042857Y-81385714D01*
X160947619Y-81433333D01*
X160900000Y-81480952D01*
X160852380Y-81576190D01*
X160852380Y-81814285D01*
X160900000Y-81957142D01*
X161852380Y-82385714D02*
X160852380Y-82385714D01*
X160852380Y-82623809D01*
X160900000Y-82766666D01*
X160995238Y-82861904D01*
X161090476Y-82909523D01*
X161280952Y-82957142D01*
X161423809Y-82957142D01*
X161614285Y-82909523D01*
X161709523Y-82861904D01*
X161804761Y-82766666D01*
X161852380Y-82623809D01*
X161852380Y-82385714D01*
X161566666Y-83338095D02*
X161566666Y-83814285D01*
X161852380Y-83242857D02*
X160852380Y-83576190D01*
X161852380Y-83909523D01*
X167871428Y-96492857D02*
X168171428Y-95592857D01*
X168471428Y-96492857D01*
X168685714Y-96492857D02*
X169285714Y-95592857D01*
X169285714Y-96492857D02*
X168685714Y-95592857D01*
X167914285Y-93692857D02*
X168214285Y-92792857D01*
X168514285Y-93692857D01*
X168985714Y-93221428D02*
X168985714Y-92792857D01*
X168685714Y-93692857D02*
X168985714Y-93221428D01*
X169285714Y-93692857D01*
X167978571Y-90278571D02*
X167935714Y-90235714D01*
X167807142Y-90192857D01*
X167721428Y-90192857D01*
X167592857Y-90235714D01*
X167507142Y-90321428D01*
X167464285Y-90407142D01*
X167421428Y-90578571D01*
X167421428Y-90707142D01*
X167464285Y-90878571D01*
X167507142Y-90964285D01*
X167592857Y-91050000D01*
X167721428Y-91092857D01*
X167807142Y-91092857D01*
X167935714Y-91050000D01*
X167978571Y-91007142D01*
X168321428Y-90235714D02*
X168450000Y-90192857D01*
X168664285Y-90192857D01*
X168750000Y-90235714D01*
X168792857Y-90278571D01*
X168835714Y-90364285D01*
X168835714Y-90450000D01*
X168792857Y-90535714D01*
X168750000Y-90578571D01*
X168664285Y-90621428D01*
X168492857Y-90664285D01*
X168407142Y-90707142D01*
X168364285Y-90750000D01*
X168321428Y-90835714D01*
X168321428Y-90921428D01*
X168364285Y-91007142D01*
X168407142Y-91050000D01*
X168492857Y-91092857D01*
X168707142Y-91092857D01*
X168835714Y-91050000D01*
X169221428Y-90192857D02*
X169221428Y-91092857D01*
X169735714Y-90192857D01*
X169735714Y-91092857D01*
X167278571Y-87635714D02*
X167407142Y-87592857D01*
X167621428Y-87592857D01*
X167707142Y-87635714D01*
X167750000Y-87678571D01*
X167792857Y-87764285D01*
X167792857Y-87850000D01*
X167750000Y-87935714D01*
X167707142Y-87978571D01*
X167621428Y-88021428D01*
X167450000Y-88064285D01*
X167364285Y-88107142D01*
X167321428Y-88150000D01*
X167278571Y-88235714D01*
X167278571Y-88321428D01*
X167321428Y-88407142D01*
X167364285Y-88450000D01*
X167450000Y-88492857D01*
X167664285Y-88492857D01*
X167792857Y-88450000D01*
X168692857Y-87678571D02*
X168650000Y-87635714D01*
X168521428Y-87592857D01*
X168435714Y-87592857D01*
X168307142Y-87635714D01*
X168221428Y-87721428D01*
X168178571Y-87807142D01*
X168135714Y-87978571D01*
X168135714Y-88107142D01*
X168178571Y-88278571D01*
X168221428Y-88364285D01*
X168307142Y-88450000D01*
X168435714Y-88492857D01*
X168521428Y-88492857D01*
X168650000Y-88450000D01*
X168692857Y-88407142D01*
X169507142Y-87592857D02*
X169078571Y-87592857D01*
X169078571Y-88492857D01*
X169807142Y-87592857D02*
X169807142Y-88492857D01*
X170321428Y-87592857D02*
X169935714Y-88107142D01*
X170321428Y-88492857D02*
X169807142Y-87978571D01*
X167385714Y-85192857D02*
X167385714Y-86092857D01*
X167685714Y-85450000D01*
X167985714Y-86092857D01*
X167985714Y-85192857D01*
X168414285Y-85192857D02*
X168414285Y-86092857D01*
X168800000Y-85235714D02*
X168928571Y-85192857D01*
X169142857Y-85192857D01*
X169228571Y-85235714D01*
X169271428Y-85278571D01*
X169314285Y-85364285D01*
X169314285Y-85450000D01*
X169271428Y-85535714D01*
X169228571Y-85578571D01*
X169142857Y-85621428D01*
X168971428Y-85664285D01*
X168885714Y-85707142D01*
X168842857Y-85750000D01*
X168800000Y-85835714D01*
X168800000Y-85921428D01*
X168842857Y-86007142D01*
X168885714Y-86050000D01*
X168971428Y-86092857D01*
X169185714Y-86092857D01*
X169314285Y-86050000D01*
X169871428Y-86092857D02*
X170042857Y-86092857D01*
X170128571Y-86050000D01*
X170214285Y-85964285D01*
X170257142Y-85792857D01*
X170257142Y-85492857D01*
X170214285Y-85321428D01*
X170128571Y-85235714D01*
X170042857Y-85192857D01*
X169871428Y-85192857D01*
X169785714Y-85235714D01*
X169700000Y-85321428D01*
X169657142Y-85492857D01*
X169657142Y-85792857D01*
X169700000Y-85964285D01*
X169785714Y-86050000D01*
X169871428Y-86092857D01*
X167385714Y-82592857D02*
X167385714Y-83492857D01*
X167685714Y-82850000D01*
X167985714Y-83492857D01*
X167985714Y-82592857D01*
X168585714Y-83492857D02*
X168757142Y-83492857D01*
X168842857Y-83450000D01*
X168928571Y-83364285D01*
X168971428Y-83192857D01*
X168971428Y-82892857D01*
X168928571Y-82721428D01*
X168842857Y-82635714D01*
X168757142Y-82592857D01*
X168585714Y-82592857D01*
X168500000Y-82635714D01*
X168414285Y-82721428D01*
X168371428Y-82892857D01*
X168371428Y-83192857D01*
X168414285Y-83364285D01*
X168500000Y-83450000D01*
X168585714Y-83492857D01*
X169314285Y-82635714D02*
X169442857Y-82592857D01*
X169657142Y-82592857D01*
X169742857Y-82635714D01*
X169785714Y-82678571D01*
X169828571Y-82764285D01*
X169828571Y-82850000D01*
X169785714Y-82935714D01*
X169742857Y-82978571D01*
X169657142Y-83021428D01*
X169485714Y-83064285D01*
X169400000Y-83107142D01*
X169357142Y-83150000D01*
X169314285Y-83235714D01*
X169314285Y-83321428D01*
X169357142Y-83407142D01*
X169400000Y-83450000D01*
X169485714Y-83492857D01*
X169700000Y-83492857D01*
X169828571Y-83450000D01*
X170214285Y-82592857D02*
X170214285Y-83492857D01*
X168209523Y-79747619D02*
X167733333Y-79747619D01*
X167685714Y-79271428D01*
X167733333Y-79319047D01*
X167828571Y-79366666D01*
X168066666Y-79366666D01*
X168161904Y-79319047D01*
X168209523Y-79271428D01*
X168257142Y-79176190D01*
X168257142Y-78938095D01*
X168209523Y-78842857D01*
X168161904Y-78795238D01*
X168066666Y-78747619D01*
X167828571Y-78747619D01*
X167733333Y-78795238D01*
X167685714Y-78842857D01*
X168542857Y-79747619D02*
X168876190Y-78747619D01*
X169209523Y-79747619D01*
X167161904Y-77147619D02*
X167780952Y-77147619D01*
X167447619Y-76766666D01*
X167590476Y-76766666D01*
X167685714Y-76719047D01*
X167733333Y-76671428D01*
X167780952Y-76576190D01*
X167780952Y-76338095D01*
X167733333Y-76242857D01*
X167685714Y-76195238D01*
X167590476Y-76147619D01*
X167304761Y-76147619D01*
X167209523Y-76195238D01*
X167161904Y-76242857D01*
X168066666Y-77147619D02*
X168400000Y-76147619D01*
X168733333Y-77147619D01*
X168971428Y-77147619D02*
X169590476Y-77147619D01*
X169257142Y-76766666D01*
X169400000Y-76766666D01*
X169495238Y-76719047D01*
X169542857Y-76671428D01*
X169590476Y-76576190D01*
X169590476Y-76338095D01*
X169542857Y-76242857D01*
X169495238Y-76195238D01*
X169400000Y-76147619D01*
X169114285Y-76147619D01*
X169019047Y-76195238D01*
X168971428Y-76242857D01*
X167838095Y-74700000D02*
X167742857Y-74747619D01*
X167600000Y-74747619D01*
X167457142Y-74700000D01*
X167361904Y-74604761D01*
X167314285Y-74509523D01*
X167266666Y-74319047D01*
X167266666Y-74176190D01*
X167314285Y-73985714D01*
X167361904Y-73890476D01*
X167457142Y-73795238D01*
X167600000Y-73747619D01*
X167695238Y-73747619D01*
X167838095Y-73795238D01*
X167885714Y-73842857D01*
X167885714Y-74176190D01*
X167695238Y-74176190D01*
X168314285Y-73747619D02*
X168314285Y-74747619D01*
X168885714Y-73747619D01*
X168885714Y-74747619D01*
X169361904Y-73747619D02*
X169361904Y-74747619D01*
X169600000Y-74747619D01*
X169742857Y-74700000D01*
X169838095Y-74604761D01*
X169885714Y-74509523D01*
X169933333Y-74319047D01*
X169933333Y-74176190D01*
X169885714Y-73985714D01*
X169838095Y-73890476D01*
X169742857Y-73795238D01*
X169600000Y-73747619D01*
X169361904Y-73747619D01*
X166828571Y-71147619D02*
X166828571Y-72147619D01*
X167161904Y-71433333D01*
X167495238Y-72147619D01*
X167495238Y-71147619D01*
X168161904Y-72147619D02*
X168352380Y-72147619D01*
X168447619Y-72100000D01*
X168542857Y-72004761D01*
X168590476Y-71814285D01*
X168590476Y-71480952D01*
X168542857Y-71290476D01*
X168447619Y-71195238D01*
X168352380Y-71147619D01*
X168161904Y-71147619D01*
X168066666Y-71195238D01*
X167971428Y-71290476D01*
X167923809Y-71480952D01*
X167923809Y-71814285D01*
X167971428Y-72004761D01*
X168066666Y-72100000D01*
X168161904Y-72147619D01*
X168971428Y-71195238D02*
X169114285Y-71147619D01*
X169352380Y-71147619D01*
X169447619Y-71195238D01*
X169495238Y-71242857D01*
X169542857Y-71338095D01*
X169542857Y-71433333D01*
X169495238Y-71528571D01*
X169447619Y-71576190D01*
X169352380Y-71623809D01*
X169161904Y-71671428D01*
X169066666Y-71719047D01*
X169019047Y-71766666D01*
X168971428Y-71861904D01*
X168971428Y-71957142D01*
X169019047Y-72052380D01*
X169066666Y-72100000D01*
X169161904Y-72147619D01*
X169400000Y-72147619D01*
X169542857Y-72100000D01*
X169971428Y-71147619D02*
X169971428Y-72147619D01*
X166628571Y-68547619D02*
X166628571Y-69547619D01*
X166961904Y-68833333D01*
X167295238Y-69547619D01*
X167295238Y-68547619D01*
X167771428Y-68547619D02*
X167771428Y-69547619D01*
X168200000Y-68595238D02*
X168342857Y-68547619D01*
X168580952Y-68547619D01*
X168676190Y-68595238D01*
X168723809Y-68642857D01*
X168771428Y-68738095D01*
X168771428Y-68833333D01*
X168723809Y-68928571D01*
X168676190Y-68976190D01*
X168580952Y-69023809D01*
X168390476Y-69071428D01*
X168295238Y-69119047D01*
X168247619Y-69166666D01*
X168200000Y-69261904D01*
X168200000Y-69357142D01*
X168247619Y-69452380D01*
X168295238Y-69500000D01*
X168390476Y-69547619D01*
X168628571Y-69547619D01*
X168771428Y-69500000D01*
X169390476Y-69547619D02*
X169580952Y-69547619D01*
X169676190Y-69500000D01*
X169771428Y-69404761D01*
X169819047Y-69214285D01*
X169819047Y-68880952D01*
X169771428Y-68690476D01*
X169676190Y-68595238D01*
X169580952Y-68547619D01*
X169390476Y-68547619D01*
X169295238Y-68595238D01*
X169200000Y-68690476D01*
X169152380Y-68880952D01*
X169152380Y-69214285D01*
X169200000Y-69404761D01*
X169295238Y-69500000D01*
X169390476Y-69547619D01*
X166709523Y-65995238D02*
X166852380Y-65947619D01*
X167090476Y-65947619D01*
X167185714Y-65995238D01*
X167233333Y-66042857D01*
X167280952Y-66138095D01*
X167280952Y-66233333D01*
X167233333Y-66328571D01*
X167185714Y-66376190D01*
X167090476Y-66423809D01*
X166900000Y-66471428D01*
X166804761Y-66519047D01*
X166757142Y-66566666D01*
X166709523Y-66661904D01*
X166709523Y-66757142D01*
X166757142Y-66852380D01*
X166804761Y-66900000D01*
X166900000Y-66947619D01*
X167138095Y-66947619D01*
X167280952Y-66900000D01*
X168280952Y-66042857D02*
X168233333Y-65995238D01*
X168090476Y-65947619D01*
X167995238Y-65947619D01*
X167852380Y-65995238D01*
X167757142Y-66090476D01*
X167709523Y-66185714D01*
X167661904Y-66376190D01*
X167661904Y-66519047D01*
X167709523Y-66709523D01*
X167757142Y-66804761D01*
X167852380Y-66900000D01*
X167995238Y-66947619D01*
X168090476Y-66947619D01*
X168233333Y-66900000D01*
X168280952Y-66852380D01*
X169185714Y-65947619D02*
X168709523Y-65947619D01*
X168709523Y-66947619D01*
X169519047Y-65947619D02*
X169519047Y-66947619D01*
X170090476Y-65947619D02*
X169661904Y-66519047D01*
X170090476Y-66947619D02*
X169519047Y-66376190D01*
X167709523Y-63442857D02*
X167661904Y-63395238D01*
X167519047Y-63347619D01*
X167423809Y-63347619D01*
X167280952Y-63395238D01*
X167185714Y-63490476D01*
X167138095Y-63585714D01*
X167090476Y-63776190D01*
X167090476Y-63919047D01*
X167138095Y-64109523D01*
X167185714Y-64204761D01*
X167280952Y-64300000D01*
X167423809Y-64347619D01*
X167519047Y-64347619D01*
X167661904Y-64300000D01*
X167709523Y-64252380D01*
X168090476Y-63395238D02*
X168233333Y-63347619D01*
X168471428Y-63347619D01*
X168566666Y-63395238D01*
X168614285Y-63442857D01*
X168661904Y-63538095D01*
X168661904Y-63633333D01*
X168614285Y-63728571D01*
X168566666Y-63776190D01*
X168471428Y-63823809D01*
X168280952Y-63871428D01*
X168185714Y-63919047D01*
X168138095Y-63966666D01*
X168090476Y-64061904D01*
X168090476Y-64157142D01*
X168138095Y-64252380D01*
X168185714Y-64300000D01*
X168280952Y-64347619D01*
X168519047Y-64347619D01*
X168661904Y-64300000D01*
X169090476Y-63347619D02*
X169090476Y-64347619D01*
X169661904Y-63347619D01*
X169661904Y-64347619D01*
X167114285Y-100995238D02*
X167257142Y-100947619D01*
X167495238Y-100947619D01*
X167590476Y-100995238D01*
X167638095Y-101042857D01*
X167685714Y-101138095D01*
X167685714Y-101233333D01*
X167638095Y-101328571D01*
X167590476Y-101376190D01*
X167495238Y-101423809D01*
X167304761Y-101471428D01*
X167209523Y-101519047D01*
X167161904Y-101566666D01*
X167114285Y-101661904D01*
X167114285Y-101757142D01*
X167161904Y-101852380D01*
X167209523Y-101900000D01*
X167304761Y-101947619D01*
X167542857Y-101947619D01*
X167685714Y-101900000D01*
X168114285Y-100947619D02*
X168114285Y-101947619D01*
X168495238Y-101947619D01*
X168590476Y-101900000D01*
X168638095Y-101852380D01*
X168685714Y-101757142D01*
X168685714Y-101614285D01*
X168638095Y-101519047D01*
X168590476Y-101471428D01*
X168495238Y-101423809D01*
X168114285Y-101423809D01*
X169685714Y-101042857D02*
X169638095Y-100995238D01*
X169495238Y-100947619D01*
X169400000Y-100947619D01*
X169257142Y-100995238D01*
X169161904Y-101090476D01*
X169114285Y-101185714D01*
X169066666Y-101376190D01*
X169066666Y-101519047D01*
X169114285Y-101709523D01*
X169161904Y-101804761D01*
X169257142Y-101900000D01*
X169400000Y-101947619D01*
X169495238Y-101947619D01*
X169638095Y-101900000D01*
X169685714Y-101852380D01*
X167638095Y-104547619D02*
X168209523Y-104547619D01*
X167923809Y-103547619D02*
X167923809Y-104547619D01*
X168447619Y-104547619D02*
X169066666Y-104547619D01*
X168733333Y-104166666D01*
X168876190Y-104166666D01*
X168971428Y-104119047D01*
X169019047Y-104071428D01*
X169066666Y-103976190D01*
X169066666Y-103738095D01*
X169019047Y-103642857D01*
X168971428Y-103595238D01*
X168876190Y-103547619D01*
X168590476Y-103547619D01*
X168495238Y-103595238D01*
X168447619Y-103642857D01*
X167638095Y-107147619D02*
X168209523Y-107147619D01*
X167923809Y-106147619D02*
X167923809Y-107147619D01*
X168495238Y-107052380D02*
X168542857Y-107100000D01*
X168638095Y-107147619D01*
X168876190Y-107147619D01*
X168971428Y-107100000D01*
X169019047Y-107052380D01*
X169066666Y-106957142D01*
X169066666Y-106861904D01*
X169019047Y-106719047D01*
X168447619Y-106147619D01*
X169066666Y-106147619D01*
X167638095Y-109747619D02*
X168209523Y-109747619D01*
X167923809Y-108747619D02*
X167923809Y-109747619D01*
X169066666Y-108747619D02*
X168495238Y-108747619D01*
X168780952Y-108747619D02*
X168780952Y-109747619D01*
X168685714Y-109604761D01*
X168590476Y-109509523D01*
X168495238Y-109461904D01*
X167438095Y-120000000D02*
X167342857Y-120047619D01*
X167200000Y-120047619D01*
X167057142Y-120000000D01*
X166961904Y-119904761D01*
X166914285Y-119809523D01*
X166866666Y-119619047D01*
X166866666Y-119476190D01*
X166914285Y-119285714D01*
X166961904Y-119190476D01*
X167057142Y-119095238D01*
X167200000Y-119047619D01*
X167295238Y-119047619D01*
X167438095Y-119095238D01*
X167485714Y-119142857D01*
X167485714Y-119476190D01*
X167295238Y-119476190D01*
X167914285Y-119047619D02*
X167914285Y-120047619D01*
X168485714Y-119047619D01*
X168485714Y-120047619D01*
X168961904Y-119047619D02*
X168961904Y-120047619D01*
X169200000Y-120047619D01*
X169342857Y-120000000D01*
X169438095Y-119904761D01*
X169485714Y-119809523D01*
X169533333Y-119619047D01*
X169533333Y-119476190D01*
X169485714Y-119285714D01*
X169438095Y-119190476D01*
X169342857Y-119095238D01*
X169200000Y-119047619D01*
X168961904Y-119047619D01*
X167538095Y-117500000D02*
X167442857Y-117547619D01*
X167300000Y-117547619D01*
X167157142Y-117500000D01*
X167061904Y-117404761D01*
X167014285Y-117309523D01*
X166966666Y-117119047D01*
X166966666Y-116976190D01*
X167014285Y-116785714D01*
X167061904Y-116690476D01*
X167157142Y-116595238D01*
X167300000Y-116547619D01*
X167395238Y-116547619D01*
X167538095Y-116595238D01*
X167585714Y-116642857D01*
X167585714Y-116976190D01*
X167395238Y-116976190D01*
X168014285Y-116547619D02*
X168014285Y-117547619D01*
X168585714Y-116547619D01*
X168585714Y-117547619D01*
X169061904Y-116547619D02*
X169061904Y-117547619D01*
X169300000Y-117547619D01*
X169442857Y-117500000D01*
X169538095Y-117404761D01*
X169585714Y-117309523D01*
X169633333Y-117119047D01*
X169633333Y-116976190D01*
X169585714Y-116785714D01*
X169538095Y-116690476D01*
X169442857Y-116595238D01*
X169300000Y-116547619D01*
X169061904Y-116547619D01*
X167538095Y-114900000D02*
X167442857Y-114947619D01*
X167300000Y-114947619D01*
X167157142Y-114900000D01*
X167061904Y-114804761D01*
X167014285Y-114709523D01*
X166966666Y-114519047D01*
X166966666Y-114376190D01*
X167014285Y-114185714D01*
X167061904Y-114090476D01*
X167157142Y-113995238D01*
X167300000Y-113947619D01*
X167395238Y-113947619D01*
X167538095Y-113995238D01*
X167585714Y-114042857D01*
X167585714Y-114376190D01*
X167395238Y-114376190D01*
X168014285Y-113947619D02*
X168014285Y-114947619D01*
X168585714Y-113947619D01*
X168585714Y-114947619D01*
X169061904Y-113947619D02*
X169061904Y-114947619D01*
X169300000Y-114947619D01*
X169442857Y-114900000D01*
X169538095Y-114804761D01*
X169585714Y-114709523D01*
X169633333Y-114519047D01*
X169633333Y-114376190D01*
X169585714Y-114185714D01*
X169538095Y-114090476D01*
X169442857Y-113995238D01*
X169300000Y-113947619D01*
X169061904Y-113947619D01*
X167538095Y-112500000D02*
X167442857Y-112547619D01*
X167300000Y-112547619D01*
X167157142Y-112500000D01*
X167061904Y-112404761D01*
X167014285Y-112309523D01*
X166966666Y-112119047D01*
X166966666Y-111976190D01*
X167014285Y-111785714D01*
X167061904Y-111690476D01*
X167157142Y-111595238D01*
X167300000Y-111547619D01*
X167395238Y-111547619D01*
X167538095Y-111595238D01*
X167585714Y-111642857D01*
X167585714Y-111976190D01*
X167395238Y-111976190D01*
X168014285Y-111547619D02*
X168014285Y-112547619D01*
X168585714Y-111547619D01*
X168585714Y-112547619D01*
X169061904Y-111547619D02*
X169061904Y-112547619D01*
X169300000Y-112547619D01*
X169442857Y-112500000D01*
X169538095Y-112404761D01*
X169585714Y-112309523D01*
X169633333Y-112119047D01*
X169633333Y-111976190D01*
X169585714Y-111785714D01*
X169538095Y-111690476D01*
X169442857Y-111595238D01*
X169300000Y-111547619D01*
X169061904Y-111547619D01*
X165238095Y-138500000D02*
X165142857Y-138547619D01*
X165000000Y-138547619D01*
X164857142Y-138500000D01*
X164761904Y-138404761D01*
X164714285Y-138309523D01*
X164666666Y-138119047D01*
X164666666Y-137976190D01*
X164714285Y-137785714D01*
X164761904Y-137690476D01*
X164857142Y-137595238D01*
X165000000Y-137547619D01*
X165095238Y-137547619D01*
X165238095Y-137595238D01*
X165285714Y-137642857D01*
X165285714Y-137976190D01*
X165095238Y-137976190D01*
X165714285Y-137547619D02*
X165714285Y-138547619D01*
X166285714Y-137547619D01*
X166285714Y-138547619D01*
X166761904Y-137547619D02*
X166761904Y-138547619D01*
X167000000Y-138547619D01*
X167142857Y-138500000D01*
X167238095Y-138404761D01*
X167285714Y-138309523D01*
X167333333Y-138119047D01*
X167333333Y-137976190D01*
X167285714Y-137785714D01*
X167238095Y-137690476D01*
X167142857Y-137595238D01*
X167000000Y-137547619D01*
X166761904Y-137547619D01*
X165161904Y-135747619D02*
X165780952Y-135747619D01*
X165447619Y-135366666D01*
X165590476Y-135366666D01*
X165685714Y-135319047D01*
X165733333Y-135271428D01*
X165780952Y-135176190D01*
X165780952Y-134938095D01*
X165733333Y-134842857D01*
X165685714Y-134795238D01*
X165590476Y-134747619D01*
X165304761Y-134747619D01*
X165209523Y-134795238D01*
X165161904Y-134842857D01*
X166066666Y-135747619D02*
X166400000Y-134747619D01*
X166733333Y-135747619D01*
X166971428Y-135747619D02*
X167590476Y-135747619D01*
X167257142Y-135366666D01*
X167400000Y-135366666D01*
X167495238Y-135319047D01*
X167542857Y-135271428D01*
X167590476Y-135176190D01*
X167590476Y-134938095D01*
X167542857Y-134842857D01*
X167495238Y-134795238D01*
X167400000Y-134747619D01*
X167114285Y-134747619D01*
X167019047Y-134795238D01*
X166971428Y-134842857D01*
X165638095Y-133347619D02*
X165971428Y-132347619D01*
X166304761Y-133347619D01*
X166828571Y-132823809D02*
X166828571Y-132347619D01*
X166495238Y-133347619D02*
X166828571Y-132823809D01*
X167161904Y-133347619D01*
X165390476Y-130747619D02*
X165723809Y-129747619D01*
X166057142Y-130747619D01*
X166295238Y-130747619D02*
X166961904Y-129747619D01*
X166961904Y-130747619D02*
X166295238Y-129747619D01*
D11*
X164114285Y-128038095D02*
X164114285Y-127466666D01*
X164076190Y-127352380D01*
X164000000Y-127276190D01*
X163885714Y-127238095D01*
X163809523Y-127238095D01*
X164457142Y-127276190D02*
X164571428Y-127238095D01*
X164761904Y-127238095D01*
X164838095Y-127276190D01*
X164876190Y-127314285D01*
X164914285Y-127390476D01*
X164914285Y-127466666D01*
X164876190Y-127542857D01*
X164838095Y-127580952D01*
X164761904Y-127619047D01*
X164609523Y-127657142D01*
X164533333Y-127695238D01*
X164495238Y-127733333D01*
X164457142Y-127809523D01*
X164457142Y-127885714D01*
X164495238Y-127961904D01*
X164533333Y-128000000D01*
X164609523Y-128038095D01*
X164800000Y-128038095D01*
X164914285Y-128000000D01*
X165066666Y-127161904D02*
X165676190Y-127161904D01*
X166323809Y-127314285D02*
X166285714Y-127276190D01*
X166171428Y-127238095D01*
X166095238Y-127238095D01*
X165980952Y-127276190D01*
X165904761Y-127352380D01*
X165866666Y-127428571D01*
X165828571Y-127580952D01*
X165828571Y-127695238D01*
X165866666Y-127847619D01*
X165904761Y-127923809D01*
X165980952Y-128000000D01*
X166095238Y-128038095D01*
X166171428Y-128038095D01*
X166285714Y-128000000D01*
X166323809Y-127961904D01*
X167047619Y-127238095D02*
X166666666Y-127238095D01*
X166666666Y-128038095D01*
X167314285Y-127238095D02*
X167314285Y-128038095D01*
X168152380Y-127314285D02*
X168114285Y-127276190D01*
X168000000Y-127238095D01*
X167923809Y-127238095D01*
X167809523Y-127276190D01*
X167733333Y-127352380D01*
X167695238Y-127428571D01*
X167657142Y-127580952D01*
X167657142Y-127695238D01*
X167695238Y-127847619D01*
X167733333Y-127923809D01*
X167809523Y-128000000D01*
X167923809Y-128038095D01*
X168000000Y-128038095D01*
X168114285Y-128000000D01*
X168152380Y-127961904D01*
X168495238Y-127238095D02*
X168495238Y-128038095D01*
X168952380Y-127238095D02*
X168609523Y-127695238D01*
X168952380Y-128038095D02*
X168495238Y-127580952D01*
D12*
X170300000Y-31000000D02*
X164500000Y-31000000D01*
X35000000Y-141000000D02*
X170300000Y-141000000D01*
X35000000Y-113000000D02*
X35000000Y-141000000D01*
X35000000Y-31000000D02*
X166000000Y-31000000D01*
X35000000Y-31000000D02*
X35000000Y-113000000D01*
%TO.C,J6*%
X149920000Y-84500000D02*
X150920000Y-85000000D01*
X149920000Y-85500000D02*
X149920000Y-84500000D01*
X150920000Y-85000000D02*
X149920000Y-85500000D01*
X152620000Y-74060000D02*
X151310000Y-74060000D01*
X152620000Y-74060000D02*
X152620000Y-74060000D01*
X152620000Y-63310000D02*
X152620000Y-74060000D01*
X159120000Y-63310000D02*
X152620000Y-63310000D01*
X159120000Y-88910000D02*
X159120000Y-63310000D01*
X152620000Y-88910000D02*
X159120000Y-88910000D01*
X152620000Y-78160000D02*
X152620000Y-88910000D01*
X151310000Y-78160000D02*
X152620000Y-78160000D01*
X151310000Y-62010000D02*
X151310000Y-90210000D01*
X160430000Y-62010000D02*
X151310000Y-62010000D01*
X160430000Y-90210000D02*
X160430000Y-62010000D01*
X151310000Y-90210000D02*
X160430000Y-90210000D01*
%TO.C,D1*%
X128700000Y-68300000D02*
X136000000Y-68300000D01*
X128700000Y-72650000D02*
X128700000Y-73800000D01*
X128700000Y-73800000D02*
X136000000Y-73800000D01*
%TO.C,D2*%
X109950000Y-73800000D02*
X117250000Y-73800000D01*
X109950000Y-72650000D02*
X109950000Y-73800000D01*
X109950000Y-68300000D02*
X117250000Y-68300000D01*
%TO.C,D3*%
X71950000Y-68350000D02*
X79250000Y-68350000D01*
X71950000Y-72700000D02*
X71950000Y-73850000D01*
X71950000Y-73850000D02*
X79250000Y-73850000D01*
%TO.C,D4*%
X52850000Y-73850000D02*
X60150000Y-73850000D01*
X52850000Y-72700000D02*
X52850000Y-73850000D01*
X52850000Y-68350000D02*
X60150000Y-68350000D01*
%TO.C,J1*%
X42700000Y-128920000D02*
X42200000Y-129920000D01*
X41700000Y-128920000D02*
X42700000Y-128920000D01*
X42200000Y-129920000D02*
X41700000Y-128920000D01*
X53140000Y-131620000D02*
X53140000Y-130310000D01*
X53140000Y-131620000D02*
X53140000Y-131620000D01*
X63890000Y-131620000D02*
X53140000Y-131620000D01*
X63890000Y-138120000D02*
X63890000Y-131620000D01*
X38290000Y-138120000D02*
X63890000Y-138120000D01*
X38290000Y-131620000D02*
X38290000Y-138120000D01*
X49040000Y-131620000D02*
X38290000Y-131620000D01*
X49040000Y-130310000D02*
X49040000Y-131620000D01*
X65190000Y-130310000D02*
X36990000Y-130310000D01*
X65190000Y-139430000D02*
X65190000Y-130310000D01*
X36990000Y-139430000D02*
X65190000Y-139430000D01*
X36990000Y-130310000D02*
X36990000Y-139430000D01*
%TO.C,J2*%
X73100000Y-128920000D02*
X72600000Y-129920000D01*
X72100000Y-128920000D02*
X73100000Y-128920000D01*
X72600000Y-129920000D02*
X72100000Y-128920000D01*
X83540000Y-131620000D02*
X83540000Y-130310000D01*
X83540000Y-131620000D02*
X83540000Y-131620000D01*
X94290000Y-131620000D02*
X83540000Y-131620000D01*
X94290000Y-138120000D02*
X94290000Y-131620000D01*
X68690000Y-138120000D02*
X94290000Y-138120000D01*
X68690000Y-131620000D02*
X68690000Y-138120000D01*
X79440000Y-131620000D02*
X68690000Y-131620000D01*
X79440000Y-130310000D02*
X79440000Y-131620000D01*
X95590000Y-130310000D02*
X67390000Y-130310000D01*
X95590000Y-139430000D02*
X95590000Y-130310000D01*
X67390000Y-139430000D02*
X95590000Y-139430000D01*
X67390000Y-130310000D02*
X67390000Y-139430000D01*
%TO.C,J3*%
X103700000Y-128920000D02*
X103200000Y-129920000D01*
X102700000Y-128920000D02*
X103700000Y-128920000D01*
X103200000Y-129920000D02*
X102700000Y-128920000D01*
X114140000Y-131620000D02*
X114140000Y-130310000D01*
X114140000Y-131620000D02*
X114140000Y-131620000D01*
X124890000Y-131620000D02*
X114140000Y-131620000D01*
X124890000Y-138120000D02*
X124890000Y-131620000D01*
X99290000Y-138120000D02*
X124890000Y-138120000D01*
X99290000Y-131620000D02*
X99290000Y-138120000D01*
X110040000Y-131620000D02*
X99290000Y-131620000D01*
X110040000Y-130310000D02*
X110040000Y-131620000D01*
X126190000Y-130310000D02*
X97990000Y-130310000D01*
X126190000Y-139430000D02*
X126190000Y-130310000D01*
X97990000Y-139430000D02*
X126190000Y-139430000D01*
X97990000Y-130310000D02*
X97990000Y-139430000D01*
%TO.C,J4*%
X128390000Y-130310000D02*
X128390000Y-139430000D01*
X128390000Y-139430000D02*
X156590000Y-139430000D01*
X156590000Y-139430000D02*
X156590000Y-130310000D01*
X156590000Y-130310000D02*
X128390000Y-130310000D01*
X140440000Y-130310000D02*
X140440000Y-131620000D01*
X140440000Y-131620000D02*
X129690000Y-131620000D01*
X129690000Y-131620000D02*
X129690000Y-138120000D01*
X129690000Y-138120000D02*
X155290000Y-138120000D01*
X155290000Y-138120000D02*
X155290000Y-131620000D01*
X155290000Y-131620000D02*
X144540000Y-131620000D01*
X144540000Y-131620000D02*
X144540000Y-131620000D01*
X144540000Y-131620000D02*
X144540000Y-130310000D01*
X133600000Y-129920000D02*
X133100000Y-128920000D01*
X133100000Y-128920000D02*
X134100000Y-128920000D01*
X134100000Y-128920000D02*
X133600000Y-129920000D01*
%TO.C,J5*%
X151310000Y-124010000D02*
X160430000Y-124010000D01*
X160430000Y-124010000D02*
X160430000Y-95810000D01*
X160430000Y-95810000D02*
X151310000Y-95810000D01*
X151310000Y-95810000D02*
X151310000Y-124010000D01*
X151310000Y-111960000D02*
X152620000Y-111960000D01*
X152620000Y-111960000D02*
X152620000Y-122710000D01*
X152620000Y-122710000D02*
X159120000Y-122710000D01*
X159120000Y-122710000D02*
X159120000Y-97110000D01*
X159120000Y-97110000D02*
X152620000Y-97110000D01*
X152620000Y-97110000D02*
X152620000Y-107860000D01*
X152620000Y-107860000D02*
X152620000Y-107860000D01*
X152620000Y-107860000D02*
X151310000Y-107860000D01*
X150920000Y-118800000D02*
X149920000Y-119300000D01*
X149920000Y-119300000D02*
X149920000Y-118300000D01*
X149920000Y-118300000D02*
X150920000Y-118800000D01*
%TO.C,J7*%
X150110000Y-60010000D02*
X159230000Y-60010000D01*
X159230000Y-60010000D02*
X159230000Y-31810000D01*
X159230000Y-31810000D02*
X150110000Y-31810000D01*
X150110000Y-31810000D02*
X150110000Y-60010000D01*
X150110000Y-47960000D02*
X151420000Y-47960000D01*
X151420000Y-47960000D02*
X151420000Y-58710000D01*
X151420000Y-58710000D02*
X157920000Y-58710000D01*
X157920000Y-58710000D02*
X157920000Y-33110000D01*
X157920000Y-33110000D02*
X151420000Y-33110000D01*
X151420000Y-33110000D02*
X151420000Y-43860000D01*
X151420000Y-43860000D02*
X151420000Y-43860000D01*
X151420000Y-43860000D02*
X150110000Y-43860000D01*
X149720000Y-54800000D02*
X148720000Y-55300000D01*
X148720000Y-55300000D02*
X148720000Y-54300000D01*
X148720000Y-54300000D02*
X149720000Y-54800000D01*
%TO.C,J8*%
X160720000Y-60010000D02*
X169840000Y-60010000D01*
X169840000Y-60010000D02*
X169840000Y-31810000D01*
X169840000Y-31810000D02*
X160720000Y-31810000D01*
X160720000Y-31810000D02*
X160720000Y-60010000D01*
X160720000Y-47960000D02*
X162030000Y-47960000D01*
X162030000Y-47960000D02*
X162030000Y-58710000D01*
X162030000Y-58710000D02*
X168530000Y-58710000D01*
X168530000Y-58710000D02*
X168530000Y-33110000D01*
X168530000Y-33110000D02*
X162030000Y-33110000D01*
X162030000Y-33110000D02*
X162030000Y-43860000D01*
X162030000Y-43860000D02*
X162030000Y-43860000D01*
X162030000Y-43860000D02*
X160720000Y-43860000D01*
X160330000Y-54800000D02*
X159330000Y-55300000D01*
X159330000Y-55300000D02*
X159330000Y-54300000D01*
X159330000Y-54300000D02*
X160330000Y-54800000D01*
%TO.C,J9*%
X157730000Y-139270000D02*
X159000000Y-139270000D01*
X157730000Y-138000000D02*
X157730000Y-139270000D01*
X160042929Y-127460000D02*
X160440000Y-127460000D01*
X160042929Y-128220000D02*
X160440000Y-128220000D01*
X169100000Y-127460000D02*
X163100000Y-127460000D01*
X169100000Y-128220000D02*
X169100000Y-127460000D01*
X163100000Y-128220000D02*
X169100000Y-128220000D01*
X160440000Y-129110000D02*
X163100000Y-129110000D01*
X160042929Y-130000000D02*
X160440000Y-130000000D01*
X160042929Y-130760000D02*
X160440000Y-130760000D01*
X169100000Y-130000000D02*
X163100000Y-130000000D01*
X169100000Y-130760000D02*
X169100000Y-130000000D01*
X163100000Y-130760000D02*
X169100000Y-130760000D01*
X160440000Y-131650000D02*
X163100000Y-131650000D01*
X160042929Y-132540000D02*
X160440000Y-132540000D01*
X160042929Y-133300000D02*
X160440000Y-133300000D01*
X169100000Y-132540000D02*
X163100000Y-132540000D01*
X169100000Y-133300000D02*
X169100000Y-132540000D01*
X163100000Y-133300000D02*
X169100000Y-133300000D01*
X160440000Y-134190000D02*
X163100000Y-134190000D01*
X160042929Y-135080000D02*
X160440000Y-135080000D01*
X160042929Y-135840000D02*
X160440000Y-135840000D01*
X169100000Y-135080000D02*
X163100000Y-135080000D01*
X169100000Y-135840000D02*
X169100000Y-135080000D01*
X163100000Y-135840000D02*
X169100000Y-135840000D01*
X160440000Y-136730000D02*
X163100000Y-136730000D01*
X160110000Y-137620000D02*
X160440000Y-137620000D01*
X160110000Y-138380000D02*
X160440000Y-138380000D01*
X163100000Y-137720000D02*
X169100000Y-137720000D01*
X163100000Y-137840000D02*
X169100000Y-137840000D01*
X163100000Y-137960000D02*
X169100000Y-137960000D01*
X163100000Y-138080000D02*
X169100000Y-138080000D01*
X163100000Y-138200000D02*
X169100000Y-138200000D01*
X163100000Y-138320000D02*
X169100000Y-138320000D01*
X169100000Y-137620000D02*
X163100000Y-137620000D01*
X169100000Y-138380000D02*
X169100000Y-137620000D01*
X163100000Y-138380000D02*
X169100000Y-138380000D01*
X163100000Y-139330000D02*
X160440000Y-139330000D01*
X163100000Y-126510000D02*
X163100000Y-139330000D01*
X160440000Y-126510000D02*
X163100000Y-126510000D01*
X160440000Y-139330000D02*
X160440000Y-126510000D01*
%TO.C,J10*%
X163870000Y-80330000D02*
X165200000Y-80330000D01*
X163870000Y-79000000D02*
X163870000Y-80330000D01*
X163870000Y-77730000D02*
X166530000Y-77730000D01*
X166530000Y-77730000D02*
X166530000Y-62430000D01*
X163870000Y-77730000D02*
X163870000Y-62430000D01*
X163870000Y-62430000D02*
X166530000Y-62430000D01*
%TO.C,J11*%
X166530000Y-100270000D02*
X165200000Y-100270000D01*
X166530000Y-101600000D02*
X166530000Y-100270000D01*
X166530000Y-102870000D02*
X163870000Y-102870000D01*
X163870000Y-102870000D02*
X163870000Y-120710000D01*
X166530000Y-102870000D02*
X166530000Y-120710000D01*
X166530000Y-120710000D02*
X163870000Y-120710000D01*
%TO.C,KB1*%
X44380000Y-32170000D02*
X44380000Y-33500000D01*
X45710000Y-32170000D02*
X44380000Y-32170000D01*
X46980000Y-32170000D02*
X46980000Y-34830000D01*
X46980000Y-34830000D02*
X49580000Y-34830000D01*
X46980000Y-32170000D02*
X49580000Y-32170000D01*
X49580000Y-32170000D02*
X49580000Y-34830000D01*
%TO.C,KB2*%
X68580000Y-32170000D02*
X68580000Y-34830000D01*
X65980000Y-32170000D02*
X68580000Y-32170000D01*
X65980000Y-34830000D02*
X68580000Y-34830000D01*
X65980000Y-32170000D02*
X65980000Y-34830000D01*
X64710000Y-32170000D02*
X63380000Y-32170000D01*
X63380000Y-32170000D02*
X63380000Y-33500000D01*
%TO.C,KB3*%
X82380000Y-32170000D02*
X82380000Y-33500000D01*
X83710000Y-32170000D02*
X82380000Y-32170000D01*
X84980000Y-32170000D02*
X84980000Y-34830000D01*
X84980000Y-34830000D02*
X87580000Y-34830000D01*
X84980000Y-32170000D02*
X87580000Y-32170000D01*
X87580000Y-32170000D02*
X87580000Y-34830000D01*
%TO.C,KB4*%
X106620000Y-32170000D02*
X106620000Y-34830000D01*
X104020000Y-32170000D02*
X106620000Y-32170000D01*
X104020000Y-34830000D02*
X106620000Y-34830000D01*
X104020000Y-32170000D02*
X104020000Y-34830000D01*
X102750000Y-32170000D02*
X101420000Y-32170000D01*
X101420000Y-32170000D02*
X101420000Y-33500000D01*
%TO.C,KB5*%
X120380000Y-32170000D02*
X120380000Y-33500000D01*
X121710000Y-32170000D02*
X120380000Y-32170000D01*
X122980000Y-32170000D02*
X122980000Y-34830000D01*
X122980000Y-34830000D02*
X125580000Y-34830000D01*
X122980000Y-32170000D02*
X125580000Y-32170000D01*
X125580000Y-32170000D02*
X125580000Y-34830000D01*
%TO.C,KB6*%
X144620000Y-32170000D02*
X144620000Y-34830000D01*
X142020000Y-32170000D02*
X144620000Y-32170000D01*
X142020000Y-34830000D02*
X144620000Y-34830000D01*
X142020000Y-32170000D02*
X142020000Y-34830000D01*
X140750000Y-32170000D02*
X139420000Y-32170000D01*
X139420000Y-32170000D02*
X139420000Y-33500000D01*
%TO.C,KB7*%
X44380000Y-70670000D02*
X44380000Y-72000000D01*
X45710000Y-70670000D02*
X44380000Y-70670000D01*
X46980000Y-70670000D02*
X46980000Y-73330000D01*
X46980000Y-73330000D02*
X49580000Y-73330000D01*
X46980000Y-70670000D02*
X49580000Y-70670000D01*
X49580000Y-70670000D02*
X49580000Y-73330000D01*
%TO.C,KB8*%
X68580000Y-70670000D02*
X68580000Y-73330000D01*
X65980000Y-70670000D02*
X68580000Y-70670000D01*
X65980000Y-73330000D02*
X68580000Y-73330000D01*
X65980000Y-70670000D02*
X65980000Y-73330000D01*
X64710000Y-70670000D02*
X63380000Y-70670000D01*
X63380000Y-70670000D02*
X63380000Y-72000000D01*
%TO.C,KB9*%
X87580000Y-70670000D02*
X87580000Y-73330000D01*
X84980000Y-70670000D02*
X87580000Y-70670000D01*
X84980000Y-73330000D02*
X87580000Y-73330000D01*
X84980000Y-70670000D02*
X84980000Y-73330000D01*
X83710000Y-70670000D02*
X82380000Y-70670000D01*
X82380000Y-70670000D02*
X82380000Y-72000000D01*
%TO.C,KB10*%
X101380000Y-70670000D02*
X101380000Y-72000000D01*
X102710000Y-70670000D02*
X101380000Y-70670000D01*
X103980000Y-70670000D02*
X103980000Y-73330000D01*
X103980000Y-73330000D02*
X106580000Y-73330000D01*
X103980000Y-70670000D02*
X106580000Y-70670000D01*
X106580000Y-70670000D02*
X106580000Y-73330000D01*
%TO.C,KB11*%
X125620000Y-70670000D02*
X125620000Y-73330000D01*
X123020000Y-70670000D02*
X125620000Y-70670000D01*
X123020000Y-73330000D02*
X125620000Y-73330000D01*
X123020000Y-70670000D02*
X123020000Y-73330000D01*
X121750000Y-70670000D02*
X120420000Y-70670000D01*
X120420000Y-70670000D02*
X120420000Y-72000000D01*
%TO.C,KB12*%
X139380000Y-70670000D02*
X139380000Y-72000000D01*
X140710000Y-70670000D02*
X139380000Y-70670000D01*
X141980000Y-70670000D02*
X141980000Y-73330000D01*
X141980000Y-73330000D02*
X144580000Y-73330000D01*
X141980000Y-70670000D02*
X144580000Y-70670000D01*
X144580000Y-70670000D02*
X144580000Y-73330000D01*
%TO.C,KB13*%
X44380000Y-89420000D02*
X44380000Y-90750000D01*
X45710000Y-89420000D02*
X44380000Y-89420000D01*
X46980000Y-89420000D02*
X46980000Y-92080000D01*
X46980000Y-92080000D02*
X49580000Y-92080000D01*
X46980000Y-89420000D02*
X49580000Y-89420000D01*
X49580000Y-89420000D02*
X49580000Y-92080000D01*
%TO.C,KB14*%
X68580000Y-89420000D02*
X68580000Y-92080000D01*
X65980000Y-89420000D02*
X68580000Y-89420000D01*
X65980000Y-92080000D02*
X68580000Y-92080000D01*
X65980000Y-89420000D02*
X65980000Y-92080000D01*
X64710000Y-89420000D02*
X63380000Y-89420000D01*
X63380000Y-89420000D02*
X63380000Y-90750000D01*
%TO.C,KB15*%
X82420000Y-89420000D02*
X82420000Y-90750000D01*
X83750000Y-89420000D02*
X82420000Y-89420000D01*
X85020000Y-89420000D02*
X85020000Y-92080000D01*
X85020000Y-92080000D02*
X87620000Y-92080000D01*
X85020000Y-89420000D02*
X87620000Y-89420000D01*
X87620000Y-89420000D02*
X87620000Y-92080000D01*
%TO.C,KB16*%
X106620000Y-89420000D02*
X106620000Y-92080000D01*
X104020000Y-89420000D02*
X106620000Y-89420000D01*
X104020000Y-92080000D02*
X106620000Y-92080000D01*
X104020000Y-89420000D02*
X104020000Y-92080000D01*
X102750000Y-89420000D02*
X101420000Y-89420000D01*
X101420000Y-89420000D02*
X101420000Y-90750000D01*
%TO.C,KB17*%
X120420000Y-89420000D02*
X120420000Y-90750000D01*
X121750000Y-89420000D02*
X120420000Y-89420000D01*
X123020000Y-89420000D02*
X123020000Y-92080000D01*
X123020000Y-92080000D02*
X125620000Y-92080000D01*
X123020000Y-89420000D02*
X125620000Y-89420000D01*
X125620000Y-89420000D02*
X125620000Y-92080000D01*
%TO.C,KB18*%
X144620000Y-89420000D02*
X144620000Y-92080000D01*
X142020000Y-89420000D02*
X144620000Y-89420000D01*
X142020000Y-92080000D02*
X144620000Y-92080000D01*
X142020000Y-89420000D02*
X142020000Y-92080000D01*
X140750000Y-89420000D02*
X139420000Y-89420000D01*
X139420000Y-89420000D02*
X139420000Y-90750000D01*
%TO.C,KB19*%
X44380000Y-108420000D02*
X44380000Y-109750000D01*
X45710000Y-108420000D02*
X44380000Y-108420000D01*
X46980000Y-108420000D02*
X46980000Y-111080000D01*
X46980000Y-111080000D02*
X49580000Y-111080000D01*
X46980000Y-108420000D02*
X49580000Y-108420000D01*
X49580000Y-108420000D02*
X49580000Y-111080000D01*
%TO.C,KB20*%
X68620000Y-108420000D02*
X68620000Y-111080000D01*
X66020000Y-108420000D02*
X68620000Y-108420000D01*
X66020000Y-111080000D02*
X68620000Y-111080000D01*
X66020000Y-108420000D02*
X66020000Y-111080000D01*
X64750000Y-108420000D02*
X63420000Y-108420000D01*
X63420000Y-108420000D02*
X63420000Y-109750000D01*
%TO.C,KB21*%
X82380000Y-108420000D02*
X82380000Y-109750000D01*
X83710000Y-108420000D02*
X82380000Y-108420000D01*
X84980000Y-108420000D02*
X84980000Y-111080000D01*
X84980000Y-111080000D02*
X87580000Y-111080000D01*
X84980000Y-108420000D02*
X87580000Y-108420000D01*
X87580000Y-108420000D02*
X87580000Y-111080000D01*
%TO.C,KB22*%
X106580000Y-108420000D02*
X106580000Y-111080000D01*
X103980000Y-108420000D02*
X106580000Y-108420000D01*
X103980000Y-111080000D02*
X106580000Y-111080000D01*
X103980000Y-108420000D02*
X103980000Y-111080000D01*
X102710000Y-108420000D02*
X101380000Y-108420000D01*
X101380000Y-108420000D02*
X101380000Y-109750000D01*
%TO.C,KB23*%
X120380000Y-108420000D02*
X120380000Y-109750000D01*
X121710000Y-108420000D02*
X120380000Y-108420000D01*
X122980000Y-108420000D02*
X122980000Y-111080000D01*
X122980000Y-111080000D02*
X125580000Y-111080000D01*
X122980000Y-108420000D02*
X125580000Y-108420000D01*
X125580000Y-108420000D02*
X125580000Y-111080000D01*
%TO.C,KB24*%
X144580000Y-108420000D02*
X144580000Y-111080000D01*
X141980000Y-108420000D02*
X144580000Y-108420000D01*
X141980000Y-111080000D02*
X144580000Y-111080000D01*
X141980000Y-108420000D02*
X141980000Y-111080000D01*
X140710000Y-108420000D02*
X139380000Y-108420000D01*
X139380000Y-108420000D02*
X139380000Y-109750000D01*
D13*
%TO.C,P1*%
X72750000Y-65375000D02*
X72750000Y-53425000D01*
D14*
X80227000Y-55500000D02*
G75*
G03*
X80227000Y-55500000I-127000J0D01*
G01*
D13*
%TO.C,P2*%
X54250000Y-65225000D02*
X54250000Y-53275000D01*
D14*
X61727000Y-55350000D02*
G75*
G03*
X61727000Y-55350000I-127000J0D01*
G01*
%TO.C,P3*%
X99227000Y-55500000D02*
G75*
G03*
X99227000Y-55500000I-127000J0D01*
G01*
D13*
X91750000Y-65375000D02*
X91750000Y-53425000D01*
D14*
%TO.C,P4*%
X118227000Y-55500000D02*
G75*
G03*
X118227000Y-55500000I-127000J0D01*
G01*
D13*
X110750000Y-65375000D02*
X110750000Y-53425000D01*
D12*
%TO.C,U1*%
X159600000Y-94150000D02*
X157000000Y-94150000D01*
X157000000Y-94150000D02*
X157000000Y-93950000D01*
X157000000Y-91950000D02*
X157000000Y-91750000D01*
X157000000Y-91750000D02*
X159600000Y-91750000D01*
X159600000Y-91750000D02*
X159600000Y-91850000D01*
X159600000Y-91850000D02*
X160000000Y-91850000D01*
X159600000Y-94150000D02*
X159600000Y-93950000D01*
%TO.C,J12*%
X162270000Y-81570000D02*
X167470000Y-81570000D01*
X162270000Y-94330000D02*
X162270000Y-81570000D01*
X167470000Y-96930000D02*
X167470000Y-81570000D01*
X162270000Y-94330000D02*
X164870000Y-94330000D01*
X164870000Y-94330000D02*
X164870000Y-96930000D01*
X164870000Y-96930000D02*
X167470000Y-96930000D01*
X162270000Y-95600000D02*
X162270000Y-96930000D01*
X162270000Y-96930000D02*
X163600000Y-96930000D01*
%TO.C,R1*%
X152832776Y-92327500D02*
X153342224Y-92327500D01*
X152832776Y-93372500D02*
X153342224Y-93372500D01*
%TO.C,J6*%
D10*
X156203333Y-90552380D02*
X156203333Y-91266666D01*
X156250952Y-91409523D01*
X156346190Y-91504761D01*
X156489047Y-91552380D01*
X156584285Y-91552380D01*
X155298571Y-90552380D02*
X155489047Y-90552380D01*
X155584285Y-90600000D01*
X155631904Y-90647619D01*
X155727142Y-90790476D01*
X155774761Y-90980952D01*
X155774761Y-91361904D01*
X155727142Y-91457142D01*
X155679523Y-91504761D01*
X155584285Y-91552380D01*
X155393809Y-91552380D01*
X155298571Y-91504761D01*
X155250952Y-91457142D01*
X155203333Y-91361904D01*
X155203333Y-91123809D01*
X155250952Y-91028571D01*
X155298571Y-90980952D01*
X155393809Y-90933333D01*
X155584285Y-90933333D01*
X155679523Y-90980952D01*
X155727142Y-91028571D01*
X155774761Y-91123809D01*
%TO.C,D1*%
X133088095Y-75102380D02*
X133088095Y-74102380D01*
X132850000Y-74102380D01*
X132707142Y-74150000D01*
X132611904Y-74245238D01*
X132564285Y-74340476D01*
X132516666Y-74530952D01*
X132516666Y-74673809D01*
X132564285Y-74864285D01*
X132611904Y-74959523D01*
X132707142Y-75054761D01*
X132850000Y-75102380D01*
X133088095Y-75102380D01*
X131564285Y-75102380D02*
X132135714Y-75102380D01*
X131850000Y-75102380D02*
X131850000Y-74102380D01*
X131945238Y-74245238D01*
X132040476Y-74340476D01*
X132135714Y-74388095D01*
%TO.C,D2*%
X114338095Y-75002380D02*
X114338095Y-74002380D01*
X114100000Y-74002380D01*
X113957142Y-74050000D01*
X113861904Y-74145238D01*
X113814285Y-74240476D01*
X113766666Y-74430952D01*
X113766666Y-74573809D01*
X113814285Y-74764285D01*
X113861904Y-74859523D01*
X113957142Y-74954761D01*
X114100000Y-75002380D01*
X114338095Y-75002380D01*
X113385714Y-74097619D02*
X113338095Y-74050000D01*
X113242857Y-74002380D01*
X113004761Y-74002380D01*
X112909523Y-74050000D01*
X112861904Y-74097619D01*
X112814285Y-74192857D01*
X112814285Y-74288095D01*
X112861904Y-74430952D01*
X113433333Y-75002380D01*
X112814285Y-75002380D01*
%TO.C,D3*%
X76338095Y-75052380D02*
X76338095Y-74052380D01*
X76100000Y-74052380D01*
X75957142Y-74100000D01*
X75861904Y-74195238D01*
X75814285Y-74290476D01*
X75766666Y-74480952D01*
X75766666Y-74623809D01*
X75814285Y-74814285D01*
X75861904Y-74909523D01*
X75957142Y-75004761D01*
X76100000Y-75052380D01*
X76338095Y-75052380D01*
X75433333Y-74052380D02*
X74814285Y-74052380D01*
X75147619Y-74433333D01*
X75004761Y-74433333D01*
X74909523Y-74480952D01*
X74861904Y-74528571D01*
X74814285Y-74623809D01*
X74814285Y-74861904D01*
X74861904Y-74957142D01*
X74909523Y-75004761D01*
X75004761Y-75052380D01*
X75290476Y-75052380D01*
X75385714Y-75004761D01*
X75433333Y-74957142D01*
%TO.C,D4*%
X57338095Y-75052380D02*
X57338095Y-74052380D01*
X57100000Y-74052380D01*
X56957142Y-74100000D01*
X56861904Y-74195238D01*
X56814285Y-74290476D01*
X56766666Y-74480952D01*
X56766666Y-74623809D01*
X56814285Y-74814285D01*
X56861904Y-74909523D01*
X56957142Y-75004761D01*
X57100000Y-75052380D01*
X57338095Y-75052380D01*
X55909523Y-74385714D02*
X55909523Y-75052380D01*
X56147619Y-74004761D02*
X56385714Y-74719047D01*
X55766666Y-74719047D01*
%TO.C,J1*%
X35552380Y-134536666D02*
X36266666Y-134536666D01*
X36409523Y-134489047D01*
X36504761Y-134393809D01*
X36552380Y-134250952D01*
X36552380Y-134155714D01*
X36552380Y-135536666D02*
X36552380Y-134965238D01*
X36552380Y-135250952D02*
X35552380Y-135250952D01*
X35695238Y-135155714D01*
X35790476Y-135060476D01*
X35838095Y-134965238D01*
%TO.C,J2*%
X65952380Y-134536666D02*
X66666666Y-134536666D01*
X66809523Y-134489047D01*
X66904761Y-134393809D01*
X66952380Y-134250952D01*
X66952380Y-134155714D01*
X66047619Y-134965238D02*
X66000000Y-135012857D01*
X65952380Y-135108095D01*
X65952380Y-135346190D01*
X66000000Y-135441428D01*
X66047619Y-135489047D01*
X66142857Y-135536666D01*
X66238095Y-135536666D01*
X66380952Y-135489047D01*
X66952380Y-134917619D01*
X66952380Y-135536666D01*
%TO.C,J3*%
X96552380Y-134536666D02*
X97266666Y-134536666D01*
X97409523Y-134489047D01*
X97504761Y-134393809D01*
X97552380Y-134250952D01*
X97552380Y-134155714D01*
X96552380Y-134917619D02*
X96552380Y-135536666D01*
X96933333Y-135203333D01*
X96933333Y-135346190D01*
X96980952Y-135441428D01*
X97028571Y-135489047D01*
X97123809Y-135536666D01*
X97361904Y-135536666D01*
X97457142Y-135489047D01*
X97504761Y-135441428D01*
X97552380Y-135346190D01*
X97552380Y-135060476D01*
X97504761Y-134965238D01*
X97457142Y-134917619D01*
%TO.C,J4*%
X126952380Y-134536666D02*
X127666666Y-134536666D01*
X127809523Y-134489047D01*
X127904761Y-134393809D01*
X127952380Y-134250952D01*
X127952380Y-134155714D01*
X127285714Y-135441428D02*
X127952380Y-135441428D01*
X126904761Y-135203333D02*
X127619047Y-134965238D01*
X127619047Y-135584285D01*
%TO.C,J5*%
X156203333Y-124352380D02*
X156203333Y-125066666D01*
X156250952Y-125209523D01*
X156346190Y-125304761D01*
X156489047Y-125352380D01*
X156584285Y-125352380D01*
X155250952Y-124352380D02*
X155727142Y-124352380D01*
X155774761Y-124828571D01*
X155727142Y-124780952D01*
X155631904Y-124733333D01*
X155393809Y-124733333D01*
X155298571Y-124780952D01*
X155250952Y-124828571D01*
X155203333Y-124923809D01*
X155203333Y-125161904D01*
X155250952Y-125257142D01*
X155298571Y-125304761D01*
X155393809Y-125352380D01*
X155631904Y-125352380D01*
X155727142Y-125304761D01*
X155774761Y-125257142D01*
%TO.C,J7*%
X155003333Y-60352380D02*
X155003333Y-61066666D01*
X155050952Y-61209523D01*
X155146190Y-61304761D01*
X155289047Y-61352380D01*
X155384285Y-61352380D01*
X154622380Y-60352380D02*
X153955714Y-60352380D01*
X154384285Y-61352380D01*
%TO.C,J8*%
X165613333Y-60352380D02*
X165613333Y-61066666D01*
X165660952Y-61209523D01*
X165756190Y-61304761D01*
X165899047Y-61352380D01*
X165994285Y-61352380D01*
X164994285Y-60780952D02*
X165089523Y-60733333D01*
X165137142Y-60685714D01*
X165184761Y-60590476D01*
X165184761Y-60542857D01*
X165137142Y-60447619D01*
X165089523Y-60400000D01*
X164994285Y-60352380D01*
X164803809Y-60352380D01*
X164708571Y-60400000D01*
X164660952Y-60447619D01*
X164613333Y-60542857D01*
X164613333Y-60590476D01*
X164660952Y-60685714D01*
X164708571Y-60733333D01*
X164803809Y-60780952D01*
X164994285Y-60780952D01*
X165089523Y-60828571D01*
X165137142Y-60876190D01*
X165184761Y-60971428D01*
X165184761Y-61161904D01*
X165137142Y-61257142D01*
X165089523Y-61304761D01*
X164994285Y-61352380D01*
X164803809Y-61352380D01*
X164708571Y-61304761D01*
X164660952Y-61257142D01*
X164613333Y-61161904D01*
X164613333Y-60971428D01*
X164660952Y-60876190D01*
X164708571Y-60828571D01*
X164803809Y-60780952D01*
%TO.C,J9*%
X163718333Y-139722380D02*
X163718333Y-140436666D01*
X163765952Y-140579523D01*
X163861190Y-140674761D01*
X164004047Y-140722380D01*
X164099285Y-140722380D01*
X163194523Y-140722380D02*
X163004047Y-140722380D01*
X162908809Y-140674761D01*
X162861190Y-140627142D01*
X162765952Y-140484285D01*
X162718333Y-140293809D01*
X162718333Y-139912857D01*
X162765952Y-139817619D01*
X162813571Y-139770000D01*
X162908809Y-139722380D01*
X163099285Y-139722380D01*
X163194523Y-139770000D01*
X163242142Y-139817619D01*
X163289761Y-139912857D01*
X163289761Y-140150952D01*
X163242142Y-140246190D01*
X163194523Y-140293809D01*
X163099285Y-140341428D01*
X162908809Y-140341428D01*
X162813571Y-140293809D01*
X162765952Y-140246190D01*
X162718333Y-140150952D01*
%TO.C,J10*%
X163409523Y-78252380D02*
X163409523Y-78966666D01*
X163457142Y-79109523D01*
X163552380Y-79204761D01*
X163695238Y-79252380D01*
X163790476Y-79252380D01*
X162409523Y-79252380D02*
X162980952Y-79252380D01*
X162695238Y-79252380D02*
X162695238Y-78252380D01*
X162790476Y-78395238D01*
X162885714Y-78490476D01*
X162980952Y-78538095D01*
X161790476Y-78252380D02*
X161695238Y-78252380D01*
X161600000Y-78300000D01*
X161552380Y-78347619D01*
X161504761Y-78442857D01*
X161457142Y-78633333D01*
X161457142Y-78871428D01*
X161504761Y-79061904D01*
X161552380Y-79157142D01*
X161600000Y-79204761D01*
X161695238Y-79252380D01*
X161790476Y-79252380D01*
X161885714Y-79204761D01*
X161933333Y-79157142D01*
X161980952Y-79061904D01*
X162028571Y-78871428D01*
X162028571Y-78633333D01*
X161980952Y-78442857D01*
X161933333Y-78347619D01*
X161885714Y-78300000D01*
X161790476Y-78252380D01*
%TO.C,J11*%
X166009523Y-98722380D02*
X166009523Y-99436666D01*
X166057142Y-99579523D01*
X166152380Y-99674761D01*
X166295238Y-99722380D01*
X166390476Y-99722380D01*
X165009523Y-99722380D02*
X165580952Y-99722380D01*
X165295238Y-99722380D02*
X165295238Y-98722380D01*
X165390476Y-98865238D01*
X165485714Y-98960476D01*
X165580952Y-99008095D01*
X164057142Y-99722380D02*
X164628571Y-99722380D01*
X164342857Y-99722380D02*
X164342857Y-98722380D01*
X164438095Y-98865238D01*
X164533333Y-98960476D01*
X164628571Y-99008095D01*
%TO.C,KB1*%
X43832380Y-32261904D02*
X42832380Y-32261904D01*
X43832380Y-32833333D02*
X43260952Y-32404761D01*
X42832380Y-32833333D02*
X43403809Y-32261904D01*
X43308571Y-33595238D02*
X43356190Y-33738095D01*
X43403809Y-33785714D01*
X43499047Y-33833333D01*
X43641904Y-33833333D01*
X43737142Y-33785714D01*
X43784761Y-33738095D01*
X43832380Y-33642857D01*
X43832380Y-33261904D01*
X42832380Y-33261904D01*
X42832380Y-33595238D01*
X42880000Y-33690476D01*
X42927619Y-33738095D01*
X43022857Y-33785714D01*
X43118095Y-33785714D01*
X43213333Y-33738095D01*
X43260952Y-33690476D01*
X43308571Y-33595238D01*
X43308571Y-33261904D01*
X43832380Y-34785714D02*
X43832380Y-34214285D01*
X43832380Y-34500000D02*
X42832380Y-34500000D01*
X42975238Y-34404761D01*
X43070476Y-34309523D01*
X43118095Y-34214285D01*
%TO.C,KB2*%
X62832380Y-32261904D02*
X61832380Y-32261904D01*
X62832380Y-32833333D02*
X62260952Y-32404761D01*
X61832380Y-32833333D02*
X62403809Y-32261904D01*
X62308571Y-33595238D02*
X62356190Y-33738095D01*
X62403809Y-33785714D01*
X62499047Y-33833333D01*
X62641904Y-33833333D01*
X62737142Y-33785714D01*
X62784761Y-33738095D01*
X62832380Y-33642857D01*
X62832380Y-33261904D01*
X61832380Y-33261904D01*
X61832380Y-33595238D01*
X61880000Y-33690476D01*
X61927619Y-33738095D01*
X62022857Y-33785714D01*
X62118095Y-33785714D01*
X62213333Y-33738095D01*
X62260952Y-33690476D01*
X62308571Y-33595238D01*
X62308571Y-33261904D01*
X61927619Y-34214285D02*
X61880000Y-34261904D01*
X61832380Y-34357142D01*
X61832380Y-34595238D01*
X61880000Y-34690476D01*
X61927619Y-34738095D01*
X62022857Y-34785714D01*
X62118095Y-34785714D01*
X62260952Y-34738095D01*
X62832380Y-34166666D01*
X62832380Y-34785714D01*
%TO.C,KB3*%
X81832380Y-32261904D02*
X80832380Y-32261904D01*
X81832380Y-32833333D02*
X81260952Y-32404761D01*
X80832380Y-32833333D02*
X81403809Y-32261904D01*
X81308571Y-33595238D02*
X81356190Y-33738095D01*
X81403809Y-33785714D01*
X81499047Y-33833333D01*
X81641904Y-33833333D01*
X81737142Y-33785714D01*
X81784761Y-33738095D01*
X81832380Y-33642857D01*
X81832380Y-33261904D01*
X80832380Y-33261904D01*
X80832380Y-33595238D01*
X80880000Y-33690476D01*
X80927619Y-33738095D01*
X81022857Y-33785714D01*
X81118095Y-33785714D01*
X81213333Y-33738095D01*
X81260952Y-33690476D01*
X81308571Y-33595238D01*
X81308571Y-33261904D01*
X80832380Y-34166666D02*
X80832380Y-34785714D01*
X81213333Y-34452380D01*
X81213333Y-34595238D01*
X81260952Y-34690476D01*
X81308571Y-34738095D01*
X81403809Y-34785714D01*
X81641904Y-34785714D01*
X81737142Y-34738095D01*
X81784761Y-34690476D01*
X81832380Y-34595238D01*
X81832380Y-34309523D01*
X81784761Y-34214285D01*
X81737142Y-34166666D01*
%TO.C,KB4*%
X100872380Y-32261904D02*
X99872380Y-32261904D01*
X100872380Y-32833333D02*
X100300952Y-32404761D01*
X99872380Y-32833333D02*
X100443809Y-32261904D01*
X100348571Y-33595238D02*
X100396190Y-33738095D01*
X100443809Y-33785714D01*
X100539047Y-33833333D01*
X100681904Y-33833333D01*
X100777142Y-33785714D01*
X100824761Y-33738095D01*
X100872380Y-33642857D01*
X100872380Y-33261904D01*
X99872380Y-33261904D01*
X99872380Y-33595238D01*
X99920000Y-33690476D01*
X99967619Y-33738095D01*
X100062857Y-33785714D01*
X100158095Y-33785714D01*
X100253333Y-33738095D01*
X100300952Y-33690476D01*
X100348571Y-33595238D01*
X100348571Y-33261904D01*
X100205714Y-34690476D02*
X100872380Y-34690476D01*
X99824761Y-34452380D02*
X100539047Y-34214285D01*
X100539047Y-34833333D01*
%TO.C,KB5*%
X119832380Y-32261904D02*
X118832380Y-32261904D01*
X119832380Y-32833333D02*
X119260952Y-32404761D01*
X118832380Y-32833333D02*
X119403809Y-32261904D01*
X119308571Y-33595238D02*
X119356190Y-33738095D01*
X119403809Y-33785714D01*
X119499047Y-33833333D01*
X119641904Y-33833333D01*
X119737142Y-33785714D01*
X119784761Y-33738095D01*
X119832380Y-33642857D01*
X119832380Y-33261904D01*
X118832380Y-33261904D01*
X118832380Y-33595238D01*
X118880000Y-33690476D01*
X118927619Y-33738095D01*
X119022857Y-33785714D01*
X119118095Y-33785714D01*
X119213333Y-33738095D01*
X119260952Y-33690476D01*
X119308571Y-33595238D01*
X119308571Y-33261904D01*
X118832380Y-34738095D02*
X118832380Y-34261904D01*
X119308571Y-34214285D01*
X119260952Y-34261904D01*
X119213333Y-34357142D01*
X119213333Y-34595238D01*
X119260952Y-34690476D01*
X119308571Y-34738095D01*
X119403809Y-34785714D01*
X119641904Y-34785714D01*
X119737142Y-34738095D01*
X119784761Y-34690476D01*
X119832380Y-34595238D01*
X119832380Y-34357142D01*
X119784761Y-34261904D01*
X119737142Y-34214285D01*
%TO.C,KB6*%
X138872380Y-32261904D02*
X137872380Y-32261904D01*
X138872380Y-32833333D02*
X138300952Y-32404761D01*
X137872380Y-32833333D02*
X138443809Y-32261904D01*
X138348571Y-33595238D02*
X138396190Y-33738095D01*
X138443809Y-33785714D01*
X138539047Y-33833333D01*
X138681904Y-33833333D01*
X138777142Y-33785714D01*
X138824761Y-33738095D01*
X138872380Y-33642857D01*
X138872380Y-33261904D01*
X137872380Y-33261904D01*
X137872380Y-33595238D01*
X137920000Y-33690476D01*
X137967619Y-33738095D01*
X138062857Y-33785714D01*
X138158095Y-33785714D01*
X138253333Y-33738095D01*
X138300952Y-33690476D01*
X138348571Y-33595238D01*
X138348571Y-33261904D01*
X137872380Y-34690476D02*
X137872380Y-34500000D01*
X137920000Y-34404761D01*
X137967619Y-34357142D01*
X138110476Y-34261904D01*
X138300952Y-34214285D01*
X138681904Y-34214285D01*
X138777142Y-34261904D01*
X138824761Y-34309523D01*
X138872380Y-34404761D01*
X138872380Y-34595238D01*
X138824761Y-34690476D01*
X138777142Y-34738095D01*
X138681904Y-34785714D01*
X138443809Y-34785714D01*
X138348571Y-34738095D01*
X138300952Y-34690476D01*
X138253333Y-34595238D01*
X138253333Y-34404761D01*
X138300952Y-34309523D01*
X138348571Y-34261904D01*
X138443809Y-34214285D01*
%TO.C,KB7*%
X43832380Y-70761904D02*
X42832380Y-70761904D01*
X43832380Y-71333333D02*
X43260952Y-70904761D01*
X42832380Y-71333333D02*
X43403809Y-70761904D01*
X43308571Y-72095238D02*
X43356190Y-72238095D01*
X43403809Y-72285714D01*
X43499047Y-72333333D01*
X43641904Y-72333333D01*
X43737142Y-72285714D01*
X43784761Y-72238095D01*
X43832380Y-72142857D01*
X43832380Y-71761904D01*
X42832380Y-71761904D01*
X42832380Y-72095238D01*
X42880000Y-72190476D01*
X42927619Y-72238095D01*
X43022857Y-72285714D01*
X43118095Y-72285714D01*
X43213333Y-72238095D01*
X43260952Y-72190476D01*
X43308571Y-72095238D01*
X43308571Y-71761904D01*
X42832380Y-72666666D02*
X42832380Y-73333333D01*
X43832380Y-72904761D01*
%TO.C,KB8*%
X62832380Y-70761904D02*
X61832380Y-70761904D01*
X62832380Y-71333333D02*
X62260952Y-70904761D01*
X61832380Y-71333333D02*
X62403809Y-70761904D01*
X62308571Y-72095238D02*
X62356190Y-72238095D01*
X62403809Y-72285714D01*
X62499047Y-72333333D01*
X62641904Y-72333333D01*
X62737142Y-72285714D01*
X62784761Y-72238095D01*
X62832380Y-72142857D01*
X62832380Y-71761904D01*
X61832380Y-71761904D01*
X61832380Y-72095238D01*
X61880000Y-72190476D01*
X61927619Y-72238095D01*
X62022857Y-72285714D01*
X62118095Y-72285714D01*
X62213333Y-72238095D01*
X62260952Y-72190476D01*
X62308571Y-72095238D01*
X62308571Y-71761904D01*
X62260952Y-72904761D02*
X62213333Y-72809523D01*
X62165714Y-72761904D01*
X62070476Y-72714285D01*
X62022857Y-72714285D01*
X61927619Y-72761904D01*
X61880000Y-72809523D01*
X61832380Y-72904761D01*
X61832380Y-73095238D01*
X61880000Y-73190476D01*
X61927619Y-73238095D01*
X62022857Y-73285714D01*
X62070476Y-73285714D01*
X62165714Y-73238095D01*
X62213333Y-73190476D01*
X62260952Y-73095238D01*
X62260952Y-72904761D01*
X62308571Y-72809523D01*
X62356190Y-72761904D01*
X62451428Y-72714285D01*
X62641904Y-72714285D01*
X62737142Y-72761904D01*
X62784761Y-72809523D01*
X62832380Y-72904761D01*
X62832380Y-73095238D01*
X62784761Y-73190476D01*
X62737142Y-73238095D01*
X62641904Y-73285714D01*
X62451428Y-73285714D01*
X62356190Y-73238095D01*
X62308571Y-73190476D01*
X62260952Y-73095238D01*
%TO.C,KB9*%
X81832380Y-70761904D02*
X80832380Y-70761904D01*
X81832380Y-71333333D02*
X81260952Y-70904761D01*
X80832380Y-71333333D02*
X81403809Y-70761904D01*
X81308571Y-72095238D02*
X81356190Y-72238095D01*
X81403809Y-72285714D01*
X81499047Y-72333333D01*
X81641904Y-72333333D01*
X81737142Y-72285714D01*
X81784761Y-72238095D01*
X81832380Y-72142857D01*
X81832380Y-71761904D01*
X80832380Y-71761904D01*
X80832380Y-72095238D01*
X80880000Y-72190476D01*
X80927619Y-72238095D01*
X81022857Y-72285714D01*
X81118095Y-72285714D01*
X81213333Y-72238095D01*
X81260952Y-72190476D01*
X81308571Y-72095238D01*
X81308571Y-71761904D01*
X81832380Y-72809523D02*
X81832380Y-73000000D01*
X81784761Y-73095238D01*
X81737142Y-73142857D01*
X81594285Y-73238095D01*
X81403809Y-73285714D01*
X81022857Y-73285714D01*
X80927619Y-73238095D01*
X80880000Y-73190476D01*
X80832380Y-73095238D01*
X80832380Y-72904761D01*
X80880000Y-72809523D01*
X80927619Y-72761904D01*
X81022857Y-72714285D01*
X81260952Y-72714285D01*
X81356190Y-72761904D01*
X81403809Y-72809523D01*
X81451428Y-72904761D01*
X81451428Y-73095238D01*
X81403809Y-73190476D01*
X81356190Y-73238095D01*
X81260952Y-73285714D01*
%TO.C,KB10*%
X100832380Y-70285714D02*
X99832380Y-70285714D01*
X100832380Y-70857142D02*
X100260952Y-70428571D01*
X99832380Y-70857142D02*
X100403809Y-70285714D01*
X100308571Y-71619047D02*
X100356190Y-71761904D01*
X100403809Y-71809523D01*
X100499047Y-71857142D01*
X100641904Y-71857142D01*
X100737142Y-71809523D01*
X100784761Y-71761904D01*
X100832380Y-71666666D01*
X100832380Y-71285714D01*
X99832380Y-71285714D01*
X99832380Y-71619047D01*
X99880000Y-71714285D01*
X99927619Y-71761904D01*
X100022857Y-71809523D01*
X100118095Y-71809523D01*
X100213333Y-71761904D01*
X100260952Y-71714285D01*
X100308571Y-71619047D01*
X100308571Y-71285714D01*
X100832380Y-72809523D02*
X100832380Y-72238095D01*
X100832380Y-72523809D02*
X99832380Y-72523809D01*
X99975238Y-72428571D01*
X100070476Y-72333333D01*
X100118095Y-72238095D01*
X99832380Y-73428571D02*
X99832380Y-73523809D01*
X99880000Y-73619047D01*
X99927619Y-73666666D01*
X100022857Y-73714285D01*
X100213333Y-73761904D01*
X100451428Y-73761904D01*
X100641904Y-73714285D01*
X100737142Y-73666666D01*
X100784761Y-73619047D01*
X100832380Y-73523809D01*
X100832380Y-73428571D01*
X100784761Y-73333333D01*
X100737142Y-73285714D01*
X100641904Y-73238095D01*
X100451428Y-73190476D01*
X100213333Y-73190476D01*
X100022857Y-73238095D01*
X99927619Y-73285714D01*
X99880000Y-73333333D01*
X99832380Y-73428571D01*
%TO.C,KB11*%
X119872380Y-70285714D02*
X118872380Y-70285714D01*
X119872380Y-70857142D02*
X119300952Y-70428571D01*
X118872380Y-70857142D02*
X119443809Y-70285714D01*
X119348571Y-71619047D02*
X119396190Y-71761904D01*
X119443809Y-71809523D01*
X119539047Y-71857142D01*
X119681904Y-71857142D01*
X119777142Y-71809523D01*
X119824761Y-71761904D01*
X119872380Y-71666666D01*
X119872380Y-71285714D01*
X118872380Y-71285714D01*
X118872380Y-71619047D01*
X118920000Y-71714285D01*
X118967619Y-71761904D01*
X119062857Y-71809523D01*
X119158095Y-71809523D01*
X119253333Y-71761904D01*
X119300952Y-71714285D01*
X119348571Y-71619047D01*
X119348571Y-71285714D01*
X119872380Y-72809523D02*
X119872380Y-72238095D01*
X119872380Y-72523809D02*
X118872380Y-72523809D01*
X119015238Y-72428571D01*
X119110476Y-72333333D01*
X119158095Y-72238095D01*
X119872380Y-73761904D02*
X119872380Y-73190476D01*
X119872380Y-73476190D02*
X118872380Y-73476190D01*
X119015238Y-73380952D01*
X119110476Y-73285714D01*
X119158095Y-73190476D01*
%TO.C,KB12*%
X138832380Y-70285714D02*
X137832380Y-70285714D01*
X138832380Y-70857142D02*
X138260952Y-70428571D01*
X137832380Y-70857142D02*
X138403809Y-70285714D01*
X138308571Y-71619047D02*
X138356190Y-71761904D01*
X138403809Y-71809523D01*
X138499047Y-71857142D01*
X138641904Y-71857142D01*
X138737142Y-71809523D01*
X138784761Y-71761904D01*
X138832380Y-71666666D01*
X138832380Y-71285714D01*
X137832380Y-71285714D01*
X137832380Y-71619047D01*
X137880000Y-71714285D01*
X137927619Y-71761904D01*
X138022857Y-71809523D01*
X138118095Y-71809523D01*
X138213333Y-71761904D01*
X138260952Y-71714285D01*
X138308571Y-71619047D01*
X138308571Y-71285714D01*
X138832380Y-72809523D02*
X138832380Y-72238095D01*
X138832380Y-72523809D02*
X137832380Y-72523809D01*
X137975238Y-72428571D01*
X138070476Y-72333333D01*
X138118095Y-72238095D01*
X137927619Y-73190476D02*
X137880000Y-73238095D01*
X137832380Y-73333333D01*
X137832380Y-73571428D01*
X137880000Y-73666666D01*
X137927619Y-73714285D01*
X138022857Y-73761904D01*
X138118095Y-73761904D01*
X138260952Y-73714285D01*
X138832380Y-73142857D01*
X138832380Y-73761904D01*
%TO.C,KB13*%
X43832380Y-89035714D02*
X42832380Y-89035714D01*
X43832380Y-89607142D02*
X43260952Y-89178571D01*
X42832380Y-89607142D02*
X43403809Y-89035714D01*
X43308571Y-90369047D02*
X43356190Y-90511904D01*
X43403809Y-90559523D01*
X43499047Y-90607142D01*
X43641904Y-90607142D01*
X43737142Y-90559523D01*
X43784761Y-90511904D01*
X43832380Y-90416666D01*
X43832380Y-90035714D01*
X42832380Y-90035714D01*
X42832380Y-90369047D01*
X42880000Y-90464285D01*
X42927619Y-90511904D01*
X43022857Y-90559523D01*
X43118095Y-90559523D01*
X43213333Y-90511904D01*
X43260952Y-90464285D01*
X43308571Y-90369047D01*
X43308571Y-90035714D01*
X43832380Y-91559523D02*
X43832380Y-90988095D01*
X43832380Y-91273809D02*
X42832380Y-91273809D01*
X42975238Y-91178571D01*
X43070476Y-91083333D01*
X43118095Y-90988095D01*
X42832380Y-91892857D02*
X42832380Y-92511904D01*
X43213333Y-92178571D01*
X43213333Y-92321428D01*
X43260952Y-92416666D01*
X43308571Y-92464285D01*
X43403809Y-92511904D01*
X43641904Y-92511904D01*
X43737142Y-92464285D01*
X43784761Y-92416666D01*
X43832380Y-92321428D01*
X43832380Y-92035714D01*
X43784761Y-91940476D01*
X43737142Y-91892857D01*
%TO.C,KB14*%
X62832380Y-89035714D02*
X61832380Y-89035714D01*
X62832380Y-89607142D02*
X62260952Y-89178571D01*
X61832380Y-89607142D02*
X62403809Y-89035714D01*
X62308571Y-90369047D02*
X62356190Y-90511904D01*
X62403809Y-90559523D01*
X62499047Y-90607142D01*
X62641904Y-90607142D01*
X62737142Y-90559523D01*
X62784761Y-90511904D01*
X62832380Y-90416666D01*
X62832380Y-90035714D01*
X61832380Y-90035714D01*
X61832380Y-90369047D01*
X61880000Y-90464285D01*
X61927619Y-90511904D01*
X62022857Y-90559523D01*
X62118095Y-90559523D01*
X62213333Y-90511904D01*
X62260952Y-90464285D01*
X62308571Y-90369047D01*
X62308571Y-90035714D01*
X62832380Y-91559523D02*
X62832380Y-90988095D01*
X62832380Y-91273809D02*
X61832380Y-91273809D01*
X61975238Y-91178571D01*
X62070476Y-91083333D01*
X62118095Y-90988095D01*
X62165714Y-92416666D02*
X62832380Y-92416666D01*
X61784761Y-92178571D02*
X62499047Y-91940476D01*
X62499047Y-92559523D01*
%TO.C,KB15*%
X81872380Y-89035714D02*
X80872380Y-89035714D01*
X81872380Y-89607142D02*
X81300952Y-89178571D01*
X80872380Y-89607142D02*
X81443809Y-89035714D01*
X81348571Y-90369047D02*
X81396190Y-90511904D01*
X81443809Y-90559523D01*
X81539047Y-90607142D01*
X81681904Y-90607142D01*
X81777142Y-90559523D01*
X81824761Y-90511904D01*
X81872380Y-90416666D01*
X81872380Y-90035714D01*
X80872380Y-90035714D01*
X80872380Y-90369047D01*
X80920000Y-90464285D01*
X80967619Y-90511904D01*
X81062857Y-90559523D01*
X81158095Y-90559523D01*
X81253333Y-90511904D01*
X81300952Y-90464285D01*
X81348571Y-90369047D01*
X81348571Y-90035714D01*
X81872380Y-91559523D02*
X81872380Y-90988095D01*
X81872380Y-91273809D02*
X80872380Y-91273809D01*
X81015238Y-91178571D01*
X81110476Y-91083333D01*
X81158095Y-90988095D01*
X80872380Y-92464285D02*
X80872380Y-91988095D01*
X81348571Y-91940476D01*
X81300952Y-91988095D01*
X81253333Y-92083333D01*
X81253333Y-92321428D01*
X81300952Y-92416666D01*
X81348571Y-92464285D01*
X81443809Y-92511904D01*
X81681904Y-92511904D01*
X81777142Y-92464285D01*
X81824761Y-92416666D01*
X81872380Y-92321428D01*
X81872380Y-92083333D01*
X81824761Y-91988095D01*
X81777142Y-91940476D01*
%TO.C,KB16*%
X100872380Y-89035714D02*
X99872380Y-89035714D01*
X100872380Y-89607142D02*
X100300952Y-89178571D01*
X99872380Y-89607142D02*
X100443809Y-89035714D01*
X100348571Y-90369047D02*
X100396190Y-90511904D01*
X100443809Y-90559523D01*
X100539047Y-90607142D01*
X100681904Y-90607142D01*
X100777142Y-90559523D01*
X100824761Y-90511904D01*
X100872380Y-90416666D01*
X100872380Y-90035714D01*
X99872380Y-90035714D01*
X99872380Y-90369047D01*
X99920000Y-90464285D01*
X99967619Y-90511904D01*
X100062857Y-90559523D01*
X100158095Y-90559523D01*
X100253333Y-90511904D01*
X100300952Y-90464285D01*
X100348571Y-90369047D01*
X100348571Y-90035714D01*
X100872380Y-91559523D02*
X100872380Y-90988095D01*
X100872380Y-91273809D02*
X99872380Y-91273809D01*
X100015238Y-91178571D01*
X100110476Y-91083333D01*
X100158095Y-90988095D01*
X99872380Y-92416666D02*
X99872380Y-92226190D01*
X99920000Y-92130952D01*
X99967619Y-92083333D01*
X100110476Y-91988095D01*
X100300952Y-91940476D01*
X100681904Y-91940476D01*
X100777142Y-91988095D01*
X100824761Y-92035714D01*
X100872380Y-92130952D01*
X100872380Y-92321428D01*
X100824761Y-92416666D01*
X100777142Y-92464285D01*
X100681904Y-92511904D01*
X100443809Y-92511904D01*
X100348571Y-92464285D01*
X100300952Y-92416666D01*
X100253333Y-92321428D01*
X100253333Y-92130952D01*
X100300952Y-92035714D01*
X100348571Y-91988095D01*
X100443809Y-91940476D01*
%TO.C,KB17*%
X119872380Y-89035714D02*
X118872380Y-89035714D01*
X119872380Y-89607142D02*
X119300952Y-89178571D01*
X118872380Y-89607142D02*
X119443809Y-89035714D01*
X119348571Y-90369047D02*
X119396190Y-90511904D01*
X119443809Y-90559523D01*
X119539047Y-90607142D01*
X119681904Y-90607142D01*
X119777142Y-90559523D01*
X119824761Y-90511904D01*
X119872380Y-90416666D01*
X119872380Y-90035714D01*
X118872380Y-90035714D01*
X118872380Y-90369047D01*
X118920000Y-90464285D01*
X118967619Y-90511904D01*
X119062857Y-90559523D01*
X119158095Y-90559523D01*
X119253333Y-90511904D01*
X119300952Y-90464285D01*
X119348571Y-90369047D01*
X119348571Y-90035714D01*
X119872380Y-91559523D02*
X119872380Y-90988095D01*
X119872380Y-91273809D02*
X118872380Y-91273809D01*
X119015238Y-91178571D01*
X119110476Y-91083333D01*
X119158095Y-90988095D01*
X118872380Y-91892857D02*
X118872380Y-92559523D01*
X119872380Y-92130952D01*
%TO.C,KB18*%
X138872380Y-89035714D02*
X137872380Y-89035714D01*
X138872380Y-89607142D02*
X138300952Y-89178571D01*
X137872380Y-89607142D02*
X138443809Y-89035714D01*
X138348571Y-90369047D02*
X138396190Y-90511904D01*
X138443809Y-90559523D01*
X138539047Y-90607142D01*
X138681904Y-90607142D01*
X138777142Y-90559523D01*
X138824761Y-90511904D01*
X138872380Y-90416666D01*
X138872380Y-90035714D01*
X137872380Y-90035714D01*
X137872380Y-90369047D01*
X137920000Y-90464285D01*
X137967619Y-90511904D01*
X138062857Y-90559523D01*
X138158095Y-90559523D01*
X138253333Y-90511904D01*
X138300952Y-90464285D01*
X138348571Y-90369047D01*
X138348571Y-90035714D01*
X138872380Y-91559523D02*
X138872380Y-90988095D01*
X138872380Y-91273809D02*
X137872380Y-91273809D01*
X138015238Y-91178571D01*
X138110476Y-91083333D01*
X138158095Y-90988095D01*
X138300952Y-92130952D02*
X138253333Y-92035714D01*
X138205714Y-91988095D01*
X138110476Y-91940476D01*
X138062857Y-91940476D01*
X137967619Y-91988095D01*
X137920000Y-92035714D01*
X137872380Y-92130952D01*
X137872380Y-92321428D01*
X137920000Y-92416666D01*
X137967619Y-92464285D01*
X138062857Y-92511904D01*
X138110476Y-92511904D01*
X138205714Y-92464285D01*
X138253333Y-92416666D01*
X138300952Y-92321428D01*
X138300952Y-92130952D01*
X138348571Y-92035714D01*
X138396190Y-91988095D01*
X138491428Y-91940476D01*
X138681904Y-91940476D01*
X138777142Y-91988095D01*
X138824761Y-92035714D01*
X138872380Y-92130952D01*
X138872380Y-92321428D01*
X138824761Y-92416666D01*
X138777142Y-92464285D01*
X138681904Y-92511904D01*
X138491428Y-92511904D01*
X138396190Y-92464285D01*
X138348571Y-92416666D01*
X138300952Y-92321428D01*
%TO.C,KB19*%
X43832380Y-108035714D02*
X42832380Y-108035714D01*
X43832380Y-108607142D02*
X43260952Y-108178571D01*
X42832380Y-108607142D02*
X43403809Y-108035714D01*
X43308571Y-109369047D02*
X43356190Y-109511904D01*
X43403809Y-109559523D01*
X43499047Y-109607142D01*
X43641904Y-109607142D01*
X43737142Y-109559523D01*
X43784761Y-109511904D01*
X43832380Y-109416666D01*
X43832380Y-109035714D01*
X42832380Y-109035714D01*
X42832380Y-109369047D01*
X42880000Y-109464285D01*
X42927619Y-109511904D01*
X43022857Y-109559523D01*
X43118095Y-109559523D01*
X43213333Y-109511904D01*
X43260952Y-109464285D01*
X43308571Y-109369047D01*
X43308571Y-109035714D01*
X43832380Y-110559523D02*
X43832380Y-109988095D01*
X43832380Y-110273809D02*
X42832380Y-110273809D01*
X42975238Y-110178571D01*
X43070476Y-110083333D01*
X43118095Y-109988095D01*
X43832380Y-111035714D02*
X43832380Y-111226190D01*
X43784761Y-111321428D01*
X43737142Y-111369047D01*
X43594285Y-111464285D01*
X43403809Y-111511904D01*
X43022857Y-111511904D01*
X42927619Y-111464285D01*
X42880000Y-111416666D01*
X42832380Y-111321428D01*
X42832380Y-111130952D01*
X42880000Y-111035714D01*
X42927619Y-110988095D01*
X43022857Y-110940476D01*
X43260952Y-110940476D01*
X43356190Y-110988095D01*
X43403809Y-111035714D01*
X43451428Y-111130952D01*
X43451428Y-111321428D01*
X43403809Y-111416666D01*
X43356190Y-111464285D01*
X43260952Y-111511904D01*
%TO.C,KB20*%
X62872380Y-108035714D02*
X61872380Y-108035714D01*
X62872380Y-108607142D02*
X62300952Y-108178571D01*
X61872380Y-108607142D02*
X62443809Y-108035714D01*
X62348571Y-109369047D02*
X62396190Y-109511904D01*
X62443809Y-109559523D01*
X62539047Y-109607142D01*
X62681904Y-109607142D01*
X62777142Y-109559523D01*
X62824761Y-109511904D01*
X62872380Y-109416666D01*
X62872380Y-109035714D01*
X61872380Y-109035714D01*
X61872380Y-109369047D01*
X61920000Y-109464285D01*
X61967619Y-109511904D01*
X62062857Y-109559523D01*
X62158095Y-109559523D01*
X62253333Y-109511904D01*
X62300952Y-109464285D01*
X62348571Y-109369047D01*
X62348571Y-109035714D01*
X61967619Y-109988095D02*
X61920000Y-110035714D01*
X61872380Y-110130952D01*
X61872380Y-110369047D01*
X61920000Y-110464285D01*
X61967619Y-110511904D01*
X62062857Y-110559523D01*
X62158095Y-110559523D01*
X62300952Y-110511904D01*
X62872380Y-109940476D01*
X62872380Y-110559523D01*
X61872380Y-111178571D02*
X61872380Y-111273809D01*
X61920000Y-111369047D01*
X61967619Y-111416666D01*
X62062857Y-111464285D01*
X62253333Y-111511904D01*
X62491428Y-111511904D01*
X62681904Y-111464285D01*
X62777142Y-111416666D01*
X62824761Y-111369047D01*
X62872380Y-111273809D01*
X62872380Y-111178571D01*
X62824761Y-111083333D01*
X62777142Y-111035714D01*
X62681904Y-110988095D01*
X62491428Y-110940476D01*
X62253333Y-110940476D01*
X62062857Y-110988095D01*
X61967619Y-111035714D01*
X61920000Y-111083333D01*
X61872380Y-111178571D01*
%TO.C,KB21*%
X81832380Y-108035714D02*
X80832380Y-108035714D01*
X81832380Y-108607142D02*
X81260952Y-108178571D01*
X80832380Y-108607142D02*
X81403809Y-108035714D01*
X81308571Y-109369047D02*
X81356190Y-109511904D01*
X81403809Y-109559523D01*
X81499047Y-109607142D01*
X81641904Y-109607142D01*
X81737142Y-109559523D01*
X81784761Y-109511904D01*
X81832380Y-109416666D01*
X81832380Y-109035714D01*
X80832380Y-109035714D01*
X80832380Y-109369047D01*
X80880000Y-109464285D01*
X80927619Y-109511904D01*
X81022857Y-109559523D01*
X81118095Y-109559523D01*
X81213333Y-109511904D01*
X81260952Y-109464285D01*
X81308571Y-109369047D01*
X81308571Y-109035714D01*
X80927619Y-109988095D02*
X80880000Y-110035714D01*
X80832380Y-110130952D01*
X80832380Y-110369047D01*
X80880000Y-110464285D01*
X80927619Y-110511904D01*
X81022857Y-110559523D01*
X81118095Y-110559523D01*
X81260952Y-110511904D01*
X81832380Y-109940476D01*
X81832380Y-110559523D01*
X81832380Y-111511904D02*
X81832380Y-110940476D01*
X81832380Y-111226190D02*
X80832380Y-111226190D01*
X80975238Y-111130952D01*
X81070476Y-111035714D01*
X81118095Y-110940476D01*
%TO.C,KB22*%
X100832380Y-108035714D02*
X99832380Y-108035714D01*
X100832380Y-108607142D02*
X100260952Y-108178571D01*
X99832380Y-108607142D02*
X100403809Y-108035714D01*
X100308571Y-109369047D02*
X100356190Y-109511904D01*
X100403809Y-109559523D01*
X100499047Y-109607142D01*
X100641904Y-109607142D01*
X100737142Y-109559523D01*
X100784761Y-109511904D01*
X100832380Y-109416666D01*
X100832380Y-109035714D01*
X99832380Y-109035714D01*
X99832380Y-109369047D01*
X99880000Y-109464285D01*
X99927619Y-109511904D01*
X100022857Y-109559523D01*
X100118095Y-109559523D01*
X100213333Y-109511904D01*
X100260952Y-109464285D01*
X100308571Y-109369047D01*
X100308571Y-109035714D01*
X99927619Y-109988095D02*
X99880000Y-110035714D01*
X99832380Y-110130952D01*
X99832380Y-110369047D01*
X99880000Y-110464285D01*
X99927619Y-110511904D01*
X100022857Y-110559523D01*
X100118095Y-110559523D01*
X100260952Y-110511904D01*
X100832380Y-109940476D01*
X100832380Y-110559523D01*
X99927619Y-110940476D02*
X99880000Y-110988095D01*
X99832380Y-111083333D01*
X99832380Y-111321428D01*
X99880000Y-111416666D01*
X99927619Y-111464285D01*
X100022857Y-111511904D01*
X100118095Y-111511904D01*
X100260952Y-111464285D01*
X100832380Y-110892857D01*
X100832380Y-111511904D01*
%TO.C,KB23*%
X119832380Y-108035714D02*
X118832380Y-108035714D01*
X119832380Y-108607142D02*
X119260952Y-108178571D01*
X118832380Y-108607142D02*
X119403809Y-108035714D01*
X119308571Y-109369047D02*
X119356190Y-109511904D01*
X119403809Y-109559523D01*
X119499047Y-109607142D01*
X119641904Y-109607142D01*
X119737142Y-109559523D01*
X119784761Y-109511904D01*
X119832380Y-109416666D01*
X119832380Y-109035714D01*
X118832380Y-109035714D01*
X118832380Y-109369047D01*
X118880000Y-109464285D01*
X118927619Y-109511904D01*
X119022857Y-109559523D01*
X119118095Y-109559523D01*
X119213333Y-109511904D01*
X119260952Y-109464285D01*
X119308571Y-109369047D01*
X119308571Y-109035714D01*
X118927619Y-109988095D02*
X118880000Y-110035714D01*
X118832380Y-110130952D01*
X118832380Y-110369047D01*
X118880000Y-110464285D01*
X118927619Y-110511904D01*
X119022857Y-110559523D01*
X119118095Y-110559523D01*
X119260952Y-110511904D01*
X119832380Y-109940476D01*
X119832380Y-110559523D01*
X118832380Y-110892857D02*
X118832380Y-111511904D01*
X119213333Y-111178571D01*
X119213333Y-111321428D01*
X119260952Y-111416666D01*
X119308571Y-111464285D01*
X119403809Y-111511904D01*
X119641904Y-111511904D01*
X119737142Y-111464285D01*
X119784761Y-111416666D01*
X119832380Y-111321428D01*
X119832380Y-111035714D01*
X119784761Y-110940476D01*
X119737142Y-110892857D01*
%TO.C,KB24*%
X138832380Y-108035714D02*
X137832380Y-108035714D01*
X138832380Y-108607142D02*
X138260952Y-108178571D01*
X137832380Y-108607142D02*
X138403809Y-108035714D01*
X138308571Y-109369047D02*
X138356190Y-109511904D01*
X138403809Y-109559523D01*
X138499047Y-109607142D01*
X138641904Y-109607142D01*
X138737142Y-109559523D01*
X138784761Y-109511904D01*
X138832380Y-109416666D01*
X138832380Y-109035714D01*
X137832380Y-109035714D01*
X137832380Y-109369047D01*
X137880000Y-109464285D01*
X137927619Y-109511904D01*
X138022857Y-109559523D01*
X138118095Y-109559523D01*
X138213333Y-109511904D01*
X138260952Y-109464285D01*
X138308571Y-109369047D01*
X138308571Y-109035714D01*
X137927619Y-109988095D02*
X137880000Y-110035714D01*
X137832380Y-110130952D01*
X137832380Y-110369047D01*
X137880000Y-110464285D01*
X137927619Y-110511904D01*
X138022857Y-110559523D01*
X138118095Y-110559523D01*
X138260952Y-110511904D01*
X138832380Y-109940476D01*
X138832380Y-110559523D01*
X138165714Y-111416666D02*
X138832380Y-111416666D01*
X137784761Y-111178571D02*
X138499047Y-110940476D01*
X138499047Y-111559523D01*
%TO.C,P1*%
X71813278Y-55083790D02*
X70812554Y-55083790D01*
X70812554Y-55465018D01*
X70860208Y-55560325D01*
X70907861Y-55607979D01*
X71003168Y-55655632D01*
X71146129Y-55655632D01*
X71241436Y-55607979D01*
X71289089Y-55560325D01*
X71336743Y-55465018D01*
X71336743Y-55083790D01*
X71813278Y-56608703D02*
X71813278Y-56036860D01*
X71813278Y-56322782D02*
X70812554Y-56322782D01*
X70955515Y-56227474D01*
X71050822Y-56132167D01*
X71098475Y-56036860D01*
%TO.C,P2*%
X53313278Y-54933790D02*
X52312554Y-54933790D01*
X52312554Y-55315018D01*
X52360208Y-55410325D01*
X52407861Y-55457979D01*
X52503168Y-55505632D01*
X52646129Y-55505632D01*
X52741436Y-55457979D01*
X52789089Y-55410325D01*
X52836743Y-55315018D01*
X52836743Y-54933790D01*
X52407861Y-55886860D02*
X52360208Y-55934514D01*
X52312554Y-56029821D01*
X52312554Y-56268089D01*
X52360208Y-56363396D01*
X52407861Y-56411049D01*
X52503168Y-56458703D01*
X52598475Y-56458703D01*
X52741436Y-56411049D01*
X53313278Y-55839207D01*
X53313278Y-56458703D01*
%TO.C,P3*%
X90813278Y-55083790D02*
X89812554Y-55083790D01*
X89812554Y-55465018D01*
X89860208Y-55560325D01*
X89907861Y-55607979D01*
X90003168Y-55655632D01*
X90146129Y-55655632D01*
X90241436Y-55607979D01*
X90289089Y-55560325D01*
X90336743Y-55465018D01*
X90336743Y-55083790D01*
X89812554Y-55989207D02*
X89812554Y-56608703D01*
X90193782Y-56275128D01*
X90193782Y-56418089D01*
X90241436Y-56513396D01*
X90289089Y-56561049D01*
X90384396Y-56608703D01*
X90622664Y-56608703D01*
X90717971Y-56561049D01*
X90765624Y-56513396D01*
X90813278Y-56418089D01*
X90813278Y-56132167D01*
X90765624Y-56036860D01*
X90717971Y-55989207D01*
%TO.C,P4*%
X109813278Y-55083790D02*
X108812554Y-55083790D01*
X108812554Y-55465018D01*
X108860208Y-55560325D01*
X108907861Y-55607979D01*
X109003168Y-55655632D01*
X109146129Y-55655632D01*
X109241436Y-55607979D01*
X109289089Y-55560325D01*
X109336743Y-55465018D01*
X109336743Y-55083790D01*
X109146129Y-56513396D02*
X109813278Y-56513396D01*
X108764900Y-56275128D02*
X109479703Y-56036860D01*
X109479703Y-56656356D01*
%TO.C,U1*%
X159061904Y-89862380D02*
X159061904Y-90671904D01*
X159014285Y-90767142D01*
X158966666Y-90814761D01*
X158871428Y-90862380D01*
X158680952Y-90862380D01*
X158585714Y-90814761D01*
X158538095Y-90767142D01*
X158490476Y-90671904D01*
X158490476Y-89862380D01*
X157490476Y-90862380D02*
X158061904Y-90862380D01*
X157776190Y-90862380D02*
X157776190Y-89862380D01*
X157871428Y-90005238D01*
X157966666Y-90100476D01*
X158061904Y-90148095D01*
%TO.C,J12*%
X165679523Y-97382380D02*
X165679523Y-98096666D01*
X165727142Y-98239523D01*
X165822380Y-98334761D01*
X165965238Y-98382380D01*
X166060476Y-98382380D01*
X164679523Y-98382380D02*
X165250952Y-98382380D01*
X164965238Y-98382380D02*
X164965238Y-97382380D01*
X165060476Y-97525238D01*
X165155714Y-97620476D01*
X165250952Y-97668095D01*
X164298571Y-97477619D02*
X164250952Y-97430000D01*
X164155714Y-97382380D01*
X163917619Y-97382380D01*
X163822380Y-97430000D01*
X163774761Y-97477619D01*
X163727142Y-97572857D01*
X163727142Y-97668095D01*
X163774761Y-97810952D01*
X164346190Y-98382380D01*
X163727142Y-98382380D01*
%TO.C,R1*%
X153254166Y-94732380D02*
X153587500Y-94256190D01*
X153825595Y-94732380D02*
X153825595Y-93732380D01*
X153444642Y-93732380D01*
X153349404Y-93780000D01*
X153301785Y-93827619D01*
X153254166Y-93922857D01*
X153254166Y-94065714D01*
X153301785Y-94160952D01*
X153349404Y-94208571D01*
X153444642Y-94256190D01*
X153825595Y-94256190D01*
X152301785Y-94732380D02*
X152873214Y-94732380D01*
X152587500Y-94732380D02*
X152587500Y-93732380D01*
X152682738Y-93875238D01*
X152777976Y-93970476D01*
X152873214Y-94018095D01*
%TD*%
M02*
