%TF.GenerationSoftware,KiCad,Pcbnew,(5.1.10)-1*%
%TF.CreationDate,2022-05-16T18:50:31-07:00*%
%TF.ProjectId,KeyPad_Board,4b657950-6164-45f4-926f-6172642e6b69,rev?*%
%TF.SameCoordinates,Original*%
%TF.FileFunction,Legend,Top*%
%TF.FilePolarity,Positive*%
%FSLAX46Y46*%
G04 Gerber Fmt 4.6, Leading zero omitted, Abs format (unit mm)*
G04 Created by KiCad (PCBNEW (5.1.10)-1) date 2022-05-16 18:50:31*
%MOMM*%
%LPD*%
G01*
G04 APERTURE LIST*
%ADD10C,0.150000*%
%ADD11C,0.127000*%
%ADD12C,0.078740*%
G04 APERTURE END LIST*
D10*
X42380952Y-61852380D02*
X42380952Y-62566666D01*
X42333333Y-62709523D01*
X42238095Y-62804761D01*
X42095238Y-62852380D01*
X42000000Y-62852380D01*
X43333333Y-62852380D02*
X42857142Y-62852380D01*
X42857142Y-61852380D01*
X44238095Y-62757142D02*
X44190476Y-62804761D01*
X44047619Y-62852380D01*
X43952380Y-62852380D01*
X43809523Y-62804761D01*
X43714285Y-62709523D01*
X43666666Y-62614285D01*
X43619047Y-62423809D01*
X43619047Y-62280952D01*
X43666666Y-62090476D01*
X43714285Y-61995238D01*
X43809523Y-61900000D01*
X43952380Y-61852380D01*
X44047619Y-61852380D01*
X44190476Y-61900000D01*
X44238095Y-61947619D01*
X44952380Y-61852380D02*
X44952380Y-62566666D01*
X44904761Y-62709523D01*
X44809523Y-62804761D01*
X44666666Y-62852380D01*
X44571428Y-62852380D01*
X45904761Y-62852380D02*
X45428571Y-62852380D01*
X45428571Y-61852380D01*
X46809523Y-62757142D02*
X46761904Y-62804761D01*
X46619047Y-62852380D01*
X46523809Y-62852380D01*
X46380952Y-62804761D01*
X46285714Y-62709523D01*
X46238095Y-62614285D01*
X46190476Y-62423809D01*
X46190476Y-62280952D01*
X46238095Y-62090476D01*
X46285714Y-61995238D01*
X46380952Y-61900000D01*
X46523809Y-61852380D01*
X46619047Y-61852380D01*
X46761904Y-61900000D01*
X46809523Y-61947619D01*
X47523809Y-61852380D02*
X47523809Y-62566666D01*
X47476190Y-62709523D01*
X47380952Y-62804761D01*
X47238095Y-62852380D01*
X47142857Y-62852380D01*
X48476190Y-62852380D02*
X48000000Y-62852380D01*
X48000000Y-61852380D01*
X49380952Y-62757142D02*
X49333333Y-62804761D01*
X49190476Y-62852380D01*
X49095238Y-62852380D01*
X48952380Y-62804761D01*
X48857142Y-62709523D01*
X48809523Y-62614285D01*
X48761904Y-62423809D01*
X48761904Y-62280952D01*
X48809523Y-62090476D01*
X48857142Y-61995238D01*
X48952380Y-61900000D01*
X49095238Y-61852380D01*
X49190476Y-61852380D01*
X49333333Y-61900000D01*
X49380952Y-61947619D01*
X50095238Y-61852380D02*
X50095238Y-62566666D01*
X50047619Y-62709523D01*
X49952380Y-62804761D01*
X49809523Y-62852380D01*
X49714285Y-62852380D01*
X51047619Y-62852380D02*
X50571428Y-62852380D01*
X50571428Y-61852380D01*
X51952380Y-62757142D02*
X51904761Y-62804761D01*
X51761904Y-62852380D01*
X51666666Y-62852380D01*
X51523809Y-62804761D01*
X51428571Y-62709523D01*
X51380952Y-62614285D01*
X51333333Y-62423809D01*
X51333333Y-62280952D01*
X51380952Y-62090476D01*
X51428571Y-61995238D01*
X51523809Y-61900000D01*
X51666666Y-61852380D01*
X51761904Y-61852380D01*
X51904761Y-61900000D01*
X51952380Y-61947619D01*
D11*
%TO.C,SW6*%
X135750000Y-55950000D02*
X148250000Y-55950000D01*
X135750000Y-55950000D02*
X135750000Y-68450000D01*
X135750000Y-68450000D02*
X148250000Y-68450000D01*
X148250000Y-68450000D02*
X148250000Y-55950000D01*
%TO.C,SW1*%
X53250000Y-68450000D02*
X53250000Y-55950000D01*
X40750000Y-68450000D02*
X53250000Y-68450000D01*
X40750000Y-55950000D02*
X40750000Y-68450000D01*
X40750000Y-55950000D02*
X53250000Y-55950000D01*
%TO.C,SW2*%
X59750000Y-55950000D02*
X72250000Y-55950000D01*
X59750000Y-55950000D02*
X59750000Y-68450000D01*
X59750000Y-68450000D02*
X72250000Y-68450000D01*
X72250000Y-68450000D02*
X72250000Y-55950000D01*
%TO.C,SW3*%
X91250000Y-68450000D02*
X91250000Y-55950000D01*
X78750000Y-68450000D02*
X91250000Y-68450000D01*
X78750000Y-55950000D02*
X78750000Y-68450000D01*
X78750000Y-55950000D02*
X91250000Y-55950000D01*
%TO.C,SW4*%
X97750000Y-55950000D02*
X110250000Y-55950000D01*
X97750000Y-55950000D02*
X97750000Y-68450000D01*
X97750000Y-68450000D02*
X110250000Y-68450000D01*
X110250000Y-68450000D02*
X110250000Y-55950000D01*
%TO.C,SW5*%
X129250000Y-68450000D02*
X129250000Y-55950000D01*
X116750000Y-68450000D02*
X129250000Y-68450000D01*
X116750000Y-55950000D02*
X116750000Y-68450000D01*
X116750000Y-55950000D02*
X129250000Y-55950000D01*
%TO.C,SW6*%
D12*
X134080052Y-56477484D02*
X134125046Y-56492482D01*
X134200037Y-56492482D01*
X134230033Y-56477484D01*
X134245031Y-56462486D01*
X134260029Y-56432489D01*
X134260029Y-56402493D01*
X134245031Y-56372497D01*
X134230033Y-56357499D01*
X134200037Y-56342500D01*
X134140044Y-56327502D01*
X134110048Y-56312504D01*
X134095050Y-56297506D01*
X134080052Y-56267510D01*
X134080052Y-56237513D01*
X134095050Y-56207517D01*
X134110048Y-56192519D01*
X134140044Y-56177521D01*
X134215035Y-56177521D01*
X134260029Y-56192519D01*
X134365016Y-56177521D02*
X134440007Y-56492482D01*
X134500000Y-56267510D01*
X134559992Y-56492482D01*
X134634983Y-56177521D01*
X134889951Y-56177521D02*
X134829959Y-56177521D01*
X134799962Y-56192519D01*
X134784964Y-56207517D01*
X134754968Y-56252512D01*
X134739970Y-56312504D01*
X134739970Y-56432489D01*
X134754968Y-56462486D01*
X134769966Y-56477484D01*
X134799962Y-56492482D01*
X134859955Y-56492482D01*
X134889951Y-56477484D01*
X134904949Y-56462486D01*
X134919948Y-56432489D01*
X134919948Y-56357499D01*
X134904949Y-56327502D01*
X134889951Y-56312504D01*
X134859955Y-56297506D01*
X134799962Y-56297506D01*
X134769966Y-56312504D01*
X134754968Y-56327502D01*
X134739970Y-56357499D01*
D10*
%TO.C,SW1*%
D12*
X39080052Y-56477484D02*
X39125046Y-56492482D01*
X39200037Y-56492482D01*
X39230033Y-56477484D01*
X39245031Y-56462486D01*
X39260029Y-56432489D01*
X39260029Y-56402493D01*
X39245031Y-56372497D01*
X39230033Y-56357499D01*
X39200037Y-56342500D01*
X39140044Y-56327502D01*
X39110048Y-56312504D01*
X39095050Y-56297506D01*
X39080052Y-56267510D01*
X39080052Y-56237513D01*
X39095050Y-56207517D01*
X39110048Y-56192519D01*
X39140044Y-56177521D01*
X39215035Y-56177521D01*
X39260029Y-56192519D01*
X39365016Y-56177521D02*
X39440007Y-56492482D01*
X39500000Y-56267510D01*
X39559992Y-56492482D01*
X39634983Y-56177521D01*
X39919948Y-56492482D02*
X39739970Y-56492482D01*
X39829959Y-56492482D02*
X39829959Y-56177521D01*
X39799962Y-56222515D01*
X39769966Y-56252512D01*
X39739970Y-56267510D01*
D10*
%TO.C,SW2*%
D12*
X58080052Y-56477484D02*
X58125046Y-56492482D01*
X58200037Y-56492482D01*
X58230033Y-56477484D01*
X58245031Y-56462486D01*
X58260029Y-56432489D01*
X58260029Y-56402493D01*
X58245031Y-56372497D01*
X58230033Y-56357499D01*
X58200037Y-56342500D01*
X58140044Y-56327502D01*
X58110048Y-56312504D01*
X58095050Y-56297506D01*
X58080052Y-56267510D01*
X58080052Y-56237513D01*
X58095050Y-56207517D01*
X58110048Y-56192519D01*
X58140044Y-56177521D01*
X58215035Y-56177521D01*
X58260029Y-56192519D01*
X58365016Y-56177521D02*
X58440007Y-56492482D01*
X58500000Y-56267510D01*
X58559992Y-56492482D01*
X58634983Y-56177521D01*
X58739970Y-56207517D02*
X58754968Y-56192519D01*
X58784964Y-56177521D01*
X58859955Y-56177521D01*
X58889951Y-56192519D01*
X58904949Y-56207517D01*
X58919948Y-56237513D01*
X58919948Y-56267510D01*
X58904949Y-56312504D01*
X58724972Y-56492482D01*
X58919948Y-56492482D01*
D10*
%TO.C,SW3*%
D12*
X77080052Y-56477484D02*
X77125046Y-56492482D01*
X77200037Y-56492482D01*
X77230033Y-56477484D01*
X77245031Y-56462486D01*
X77260029Y-56432489D01*
X77260029Y-56402493D01*
X77245031Y-56372497D01*
X77230033Y-56357499D01*
X77200037Y-56342500D01*
X77140044Y-56327502D01*
X77110048Y-56312504D01*
X77095050Y-56297506D01*
X77080052Y-56267510D01*
X77080052Y-56237513D01*
X77095050Y-56207517D01*
X77110048Y-56192519D01*
X77140044Y-56177521D01*
X77215035Y-56177521D01*
X77260029Y-56192519D01*
X77365016Y-56177521D02*
X77440007Y-56492482D01*
X77500000Y-56267510D01*
X77559992Y-56492482D01*
X77634983Y-56177521D01*
X77724972Y-56177521D02*
X77919948Y-56177521D01*
X77814961Y-56297506D01*
X77859955Y-56297506D01*
X77889951Y-56312504D01*
X77904949Y-56327502D01*
X77919948Y-56357499D01*
X77919948Y-56432489D01*
X77904949Y-56462486D01*
X77889951Y-56477484D01*
X77859955Y-56492482D01*
X77769966Y-56492482D01*
X77739970Y-56477484D01*
X77724972Y-56462486D01*
D10*
%TO.C,SW4*%
D12*
X96080052Y-56477484D02*
X96125046Y-56492482D01*
X96200037Y-56492482D01*
X96230033Y-56477484D01*
X96245031Y-56462486D01*
X96260029Y-56432489D01*
X96260029Y-56402493D01*
X96245031Y-56372497D01*
X96230033Y-56357499D01*
X96200037Y-56342500D01*
X96140044Y-56327502D01*
X96110048Y-56312504D01*
X96095050Y-56297506D01*
X96080052Y-56267510D01*
X96080052Y-56237513D01*
X96095050Y-56207517D01*
X96110048Y-56192519D01*
X96140044Y-56177521D01*
X96215035Y-56177521D01*
X96260029Y-56192519D01*
X96365016Y-56177521D02*
X96440007Y-56492482D01*
X96500000Y-56267510D01*
X96559992Y-56492482D01*
X96634983Y-56177521D01*
X96889951Y-56282508D02*
X96889951Y-56492482D01*
X96814961Y-56162523D02*
X96739970Y-56387495D01*
X96934946Y-56387495D01*
D10*
%TO.C,SW5*%
D12*
X115080052Y-56477484D02*
X115125046Y-56492482D01*
X115200037Y-56492482D01*
X115230033Y-56477484D01*
X115245031Y-56462486D01*
X115260029Y-56432489D01*
X115260029Y-56402493D01*
X115245031Y-56372497D01*
X115230033Y-56357499D01*
X115200037Y-56342500D01*
X115140044Y-56327502D01*
X115110048Y-56312504D01*
X115095050Y-56297506D01*
X115080052Y-56267510D01*
X115080052Y-56237513D01*
X115095050Y-56207517D01*
X115110048Y-56192519D01*
X115140044Y-56177521D01*
X115215035Y-56177521D01*
X115260029Y-56192519D01*
X115365016Y-56177521D02*
X115440007Y-56492482D01*
X115500000Y-56267510D01*
X115559992Y-56492482D01*
X115634983Y-56177521D01*
X115904949Y-56177521D02*
X115754968Y-56177521D01*
X115739970Y-56327502D01*
X115754968Y-56312504D01*
X115784964Y-56297506D01*
X115859955Y-56297506D01*
X115889951Y-56312504D01*
X115904949Y-56327502D01*
X115919948Y-56357499D01*
X115919948Y-56432489D01*
X115904949Y-56462486D01*
X115889951Y-56477484D01*
X115859955Y-56492482D01*
X115784964Y-56492482D01*
X115754968Y-56477484D01*
X115739970Y-56462486D01*
D10*
%TD*%
M02*
