%TF.GenerationSoftware,KiCad,Pcbnew,(5.1.10)-1*%
%TF.CreationDate,2022-05-16T18:50:31-07:00*%
%TF.ProjectId,KeyPad_Board,4b657950-6164-45f4-926f-6172642e6b69,rev?*%
%TF.SameCoordinates,Original*%
%TF.FileFunction,Paste,Bot*%
%TF.FilePolarity,Positive*%
%FSLAX46Y46*%
G04 Gerber Fmt 4.6, Leading zero omitted, Abs format (unit mm)*
G04 Created by KiCad (PCBNEW (5.1.10)-1) date 2022-05-16 18:50:31*
%MOMM*%
%LPD*%
G01*
G04 APERTURE LIST*
%ADD10R,1.500000X1.000000*%
%ADD11R,3.000000X1.600000*%
%ADD12R,5.500000X1.000000*%
%ADD13R,0.750000X0.250000*%
G04 APERTURE END LIST*
D10*
%TO.C,D1*%
X129900000Y-72650000D03*
X129900000Y-71050000D03*
X129900000Y-69450000D03*
X134800000Y-72650000D03*
X134800000Y-71050000D03*
X134800000Y-69450000D03*
%TD*%
%TO.C,D2*%
X116050000Y-69450000D03*
X116050000Y-71050000D03*
X116050000Y-72650000D03*
X111150000Y-69450000D03*
X111150000Y-71050000D03*
X111150000Y-72650000D03*
%TD*%
%TO.C,D3*%
X73150000Y-72700000D03*
X73150000Y-71100000D03*
X73150000Y-69500000D03*
X78050000Y-72700000D03*
X78050000Y-71100000D03*
X78050000Y-69500000D03*
%TD*%
%TO.C,D4*%
X58950000Y-69500000D03*
X58950000Y-71100000D03*
X58950000Y-72700000D03*
X54050000Y-69500000D03*
X54050000Y-71100000D03*
X54050000Y-72700000D03*
%TD*%
D11*
%TO.C,P1*%
X75250000Y-64800000D03*
X75250000Y-54000000D03*
D12*
X77500000Y-62400000D03*
X77500000Y-56400000D03*
X77500000Y-60400000D03*
X77500000Y-58400000D03*
%TD*%
D11*
%TO.C,P2*%
X56750000Y-64650000D03*
X56750000Y-53850000D03*
D12*
X59000000Y-62250000D03*
X59000000Y-56250000D03*
X59000000Y-60250000D03*
X59000000Y-58250000D03*
%TD*%
%TO.C,P3*%
X96500000Y-58400000D03*
X96500000Y-60400000D03*
X96500000Y-56400000D03*
X96500000Y-62400000D03*
D11*
X94250000Y-54000000D03*
X94250000Y-64800000D03*
%TD*%
D12*
%TO.C,P4*%
X115500000Y-58400000D03*
X115500000Y-60400000D03*
X115500000Y-56400000D03*
X115500000Y-62400000D03*
D11*
X113250000Y-54000000D03*
X113250000Y-64800000D03*
%TD*%
D13*
%TO.C,U1*%
X159850000Y-92200000D03*
X159850000Y-92700000D03*
X159850000Y-93200000D03*
X159850000Y-93700000D03*
X156750000Y-93700000D03*
X156750000Y-93200000D03*
X156750000Y-92700000D03*
X156750000Y-92200000D03*
%TD*%
%TO.C,R1*%
G36*
G01*
X151687500Y-93087500D02*
X151687500Y-92612500D01*
G75*
G02*
X151925000Y-92375000I237500J0D01*
G01*
X152425000Y-92375000D01*
G75*
G02*
X152662500Y-92612500I0J-237500D01*
G01*
X152662500Y-93087500D01*
G75*
G02*
X152425000Y-93325000I-237500J0D01*
G01*
X151925000Y-93325000D01*
G75*
G02*
X151687500Y-93087500I0J237500D01*
G01*
G37*
G36*
G01*
X153512500Y-93087500D02*
X153512500Y-92612500D01*
G75*
G02*
X153750000Y-92375000I237500J0D01*
G01*
X154250000Y-92375000D01*
G75*
G02*
X154487500Y-92612500I0J-237500D01*
G01*
X154487500Y-93087500D01*
G75*
G02*
X154250000Y-93325000I-237500J0D01*
G01*
X153750000Y-93325000D01*
G75*
G02*
X153512500Y-93087500I0J237500D01*
G01*
G37*
%TD*%
M02*
