%TF.GenerationSoftware,KiCad,Pcbnew,(5.1.10)-1*%
%TF.CreationDate,2022-05-16T18:50:31-07:00*%
%TF.ProjectId,KeyPad_Board,4b657950-6164-45f4-926f-6172642e6b69,rev?*%
%TF.SameCoordinates,Original*%
%TF.FileFunction,Copper,L1,Top*%
%TF.FilePolarity,Positive*%
%FSLAX46Y46*%
G04 Gerber Fmt 4.6, Leading zero omitted, Abs format (unit mm)*
G04 Created by KiCad (PCBNEW (5.1.10)-1) date 2022-05-16 18:50:31*
%MOMM*%
%LPD*%
G01*
G04 APERTURE LIST*
%TA.AperFunction,ComponentPad*%
%ADD10C,1.700000*%
%TD*%
%TA.AperFunction,SMDPad,CuDef*%
%ADD11R,2.000000X1.900000*%
%TD*%
%TA.AperFunction,ComponentPad*%
%ADD12R,1.700000X1.700000*%
%TD*%
%TA.AperFunction,ComponentPad*%
%ADD13O,1.700000X1.700000*%
%TD*%
%TA.AperFunction,ViaPad*%
%ADD14C,0.800000*%
%TD*%
%TA.AperFunction,Conductor*%
%ADD15C,0.300000*%
%TD*%
G04 APERTURE END LIST*
%TO.P,J6,1*%
%TO.N,R*%
%TA.AperFunction,ComponentPad*%
G36*
G01*
X153750000Y-85600000D02*
X153750000Y-84400000D01*
G75*
G02*
X154000000Y-84150000I250000J0D01*
G01*
X155200000Y-84150000D01*
G75*
G02*
X155450000Y-84400000I0J-250000D01*
G01*
X155450000Y-85600000D01*
G75*
G02*
X155200000Y-85850000I-250000J0D01*
G01*
X154000000Y-85850000D01*
G75*
G02*
X153750000Y-85600000I0J250000D01*
G01*
G37*
%TD.AperFunction*%
D10*
%TO.P,J6,3*%
%TO.N,G*%
X154600000Y-82460000D03*
%TO.P,J6,5*%
%TO.N,T*%
X154600000Y-79920000D03*
%TO.P,J6,7*%
%TO.N,SW5_CLICK*%
X154600000Y-77380000D03*
%TO.P,J6,9*%
%TO.N,SW5_LEFT*%
X154600000Y-74840000D03*
%TO.P,J6,11*%
%TO.N,SW5_DOWN*%
X154600000Y-72300000D03*
%TO.P,J6,13*%
%TO.N,SW5_RIGHT*%
X154600000Y-69760000D03*
%TO.P,J6,15*%
%TO.N,SW5_UP*%
X154600000Y-67220000D03*
%TO.P,J6,2*%
%TO.N,GND*%
X157140000Y-85000000D03*
%TO.P,J6,4*%
X157140000Y-82460000D03*
%TO.P,J6,6*%
X157140000Y-79920000D03*
%TO.P,J6,8*%
X157140000Y-77380000D03*
%TO.P,J6,10*%
X157140000Y-74840000D03*
%TO.P,J6,12*%
X157140000Y-72300000D03*
%TO.P,J6,14*%
X157140000Y-69760000D03*
%TO.P,J6,16*%
X157140000Y-67220000D03*
%TD*%
D11*
%TO.P,SW6,4*%
%TO.N,SW6_UP*%
X149500000Y-58200000D03*
%TO.P,SW6,5*%
%TO.N,SW6_RIGHT*%
X149500000Y-62200000D03*
%TO.P,SW6,6*%
%TO.N,SW6_DOWN*%
X149500000Y-66200000D03*
%TO.P,SW6,1*%
%TO.N,GND*%
X134500000Y-58200000D03*
%TO.P,SW6,2*%
%TO.N,SW6_LEFT*%
X134500000Y-62200000D03*
%TO.P,SW6,3*%
%TO.N,SW6_CLICK*%
X134500000Y-66200000D03*
%TD*%
%TO.P,J1,1*%
%TO.N,SW1_UP*%
%TA.AperFunction,ComponentPad*%
G36*
G01*
X41600000Y-132750000D02*
X42800000Y-132750000D01*
G75*
G02*
X43050000Y-133000000I0J-250000D01*
G01*
X43050000Y-134200000D01*
G75*
G02*
X42800000Y-134450000I-250000J0D01*
G01*
X41600000Y-134450000D01*
G75*
G02*
X41350000Y-134200000I0J250000D01*
G01*
X41350000Y-133000000D01*
G75*
G02*
X41600000Y-132750000I250000J0D01*
G01*
G37*
%TD.AperFunction*%
D10*
%TO.P,J1,3*%
%TO.N,SW1_RIGHT*%
X44740000Y-133600000D03*
%TO.P,J1,5*%
%TO.N,SW1_DOWN*%
X47280000Y-133600000D03*
%TO.P,J1,7*%
%TO.N,SW1_LEFT*%
X49820000Y-133600000D03*
%TO.P,J1,9*%
%TO.N,SW1_CLICK*%
X52360000Y-133600000D03*
%TO.P,J1,11*%
%TO.N,TAB*%
X54900000Y-133600000D03*
%TO.P,J1,13*%
%TO.N,SHIFT*%
X57440000Y-133600000D03*
%TO.P,J1,15*%
%TO.N,CTRL*%
X59980000Y-133600000D03*
%TO.P,J1,2*%
%TO.N,GND*%
X42200000Y-136140000D03*
%TO.P,J1,4*%
X44740000Y-136140000D03*
%TO.P,J1,6*%
X47280000Y-136140000D03*
%TO.P,J1,8*%
X49820000Y-136140000D03*
%TO.P,J1,10*%
X52360000Y-136140000D03*
%TO.P,J1,12*%
X54900000Y-136140000D03*
%TO.P,J1,14*%
X57440000Y-136140000D03*
%TO.P,J1,16*%
X59980000Y-136140000D03*
%TD*%
%TO.P,J2,1*%
%TO.N,SW2_UP*%
%TA.AperFunction,ComponentPad*%
G36*
G01*
X72000000Y-132750000D02*
X73200000Y-132750000D01*
G75*
G02*
X73450000Y-133000000I0J-250000D01*
G01*
X73450000Y-134200000D01*
G75*
G02*
X73200000Y-134450000I-250000J0D01*
G01*
X72000000Y-134450000D01*
G75*
G02*
X71750000Y-134200000I0J250000D01*
G01*
X71750000Y-133000000D01*
G75*
G02*
X72000000Y-132750000I250000J0D01*
G01*
G37*
%TD.AperFunction*%
%TO.P,J2,3*%
%TO.N,SW2_RIGHT*%
X75140000Y-133600000D03*
%TO.P,J2,5*%
%TO.N,SW2_DOWN*%
X77680000Y-133600000D03*
%TO.P,J2,7*%
%TO.N,SW2_CLICK*%
X80220000Y-133600000D03*
%TO.P,J2,9*%
%TO.N,SW2_LEFT*%
X82760000Y-133600000D03*
%TO.P,J2,11*%
%TO.N,Z*%
X85300000Y-133600000D03*
%TO.P,J2,13*%
%TO.N,A*%
X87840000Y-133600000D03*
%TO.P,J2,15*%
%TO.N,Q*%
X90380000Y-133600000D03*
%TO.P,J2,2*%
%TO.N,GND*%
X72600000Y-136140000D03*
%TO.P,J2,4*%
X75140000Y-136140000D03*
%TO.P,J2,6*%
X77680000Y-136140000D03*
%TO.P,J2,8*%
X80220000Y-136140000D03*
%TO.P,J2,10*%
X82760000Y-136140000D03*
%TO.P,J2,12*%
X85300000Y-136140000D03*
%TO.P,J2,14*%
X87840000Y-136140000D03*
%TO.P,J2,16*%
X90380000Y-136140000D03*
%TD*%
%TO.P,J3,1*%
%TO.N,X*%
%TA.AperFunction,ComponentPad*%
G36*
G01*
X102600000Y-132750000D02*
X103800000Y-132750000D01*
G75*
G02*
X104050000Y-133000000I0J-250000D01*
G01*
X104050000Y-134200000D01*
G75*
G02*
X103800000Y-134450000I-250000J0D01*
G01*
X102600000Y-134450000D01*
G75*
G02*
X102350000Y-134200000I0J250000D01*
G01*
X102350000Y-133000000D01*
G75*
G02*
X102600000Y-132750000I250000J0D01*
G01*
G37*
%TD.AperFunction*%
%TO.P,J3,3*%
%TO.N,S*%
X105740000Y-133600000D03*
%TO.P,J3,5*%
%TO.N,W*%
X108280000Y-133600000D03*
%TO.P,J3,7*%
%TO.N,SW3_CLICK*%
X110820000Y-133600000D03*
%TO.P,J3,9*%
%TO.N,SW3_LEFT*%
X113360000Y-133600000D03*
%TO.P,J3,11*%
%TO.N,SW3_DOWN*%
X115900000Y-133600000D03*
%TO.P,J3,13*%
%TO.N,SW3_RIGHT*%
X118440000Y-133600000D03*
%TO.P,J3,15*%
%TO.N,SW3_UP*%
X120980000Y-133600000D03*
%TO.P,J3,2*%
%TO.N,GND*%
X103200000Y-136140000D03*
%TO.P,J3,4*%
X105740000Y-136140000D03*
%TO.P,J3,6*%
X108280000Y-136140000D03*
%TO.P,J3,8*%
X110820000Y-136140000D03*
%TO.P,J3,10*%
X113360000Y-136140000D03*
%TO.P,J3,12*%
X115900000Y-136140000D03*
%TO.P,J3,14*%
X118440000Y-136140000D03*
%TO.P,J3,16*%
X120980000Y-136140000D03*
%TD*%
%TO.P,J4,16*%
%TO.N,GND*%
X151380000Y-136140000D03*
%TO.P,J4,14*%
X148840000Y-136140000D03*
%TO.P,J4,12*%
X146300000Y-136140000D03*
%TO.P,J4,10*%
X143760000Y-136140000D03*
%TO.P,J4,8*%
X141220000Y-136140000D03*
%TO.P,J4,6*%
X138680000Y-136140000D03*
%TO.P,J4,4*%
X136140000Y-136140000D03*
%TO.P,J4,2*%
X133600000Y-136140000D03*
%TO.P,J4,15*%
%TO.N,SW4_UP*%
X151380000Y-133600000D03*
%TO.P,J4,13*%
%TO.N,SW4_RIGHT*%
X148840000Y-133600000D03*
%TO.P,J4,11*%
%TO.N,SW4_DOWN*%
X146300000Y-133600000D03*
%TO.P,J4,9*%
%TO.N,SW4_LEFT*%
X143760000Y-133600000D03*
%TO.P,J4,7*%
%TO.N,SW4_CLICK*%
X141220000Y-133600000D03*
%TO.P,J4,5*%
%TO.N,E*%
X138680000Y-133600000D03*
%TO.P,J4,3*%
%TO.N,D*%
X136140000Y-133600000D03*
%TO.P,J4,1*%
%TO.N,C*%
%TA.AperFunction,ComponentPad*%
G36*
G01*
X133000000Y-132750000D02*
X134200000Y-132750000D01*
G75*
G02*
X134450000Y-133000000I0J-250000D01*
G01*
X134450000Y-134200000D01*
G75*
G02*
X134200000Y-134450000I-250000J0D01*
G01*
X133000000Y-134450000D01*
G75*
G02*
X132750000Y-134200000I0J250000D01*
G01*
X132750000Y-133000000D01*
G75*
G02*
X133000000Y-132750000I250000J0D01*
G01*
G37*
%TD.AperFunction*%
%TD*%
%TO.P,J5,16*%
%TO.N,GND*%
X157140000Y-101020000D03*
%TO.P,J5,14*%
X157140000Y-103560000D03*
%TO.P,J5,12*%
X157140000Y-106100000D03*
%TO.P,J5,10*%
X157140000Y-108640000D03*
%TO.P,J5,8*%
X157140000Y-111180000D03*
%TO.P,J5,6*%
X157140000Y-113720000D03*
%TO.P,J5,4*%
X157140000Y-116260000D03*
%TO.P,J5,2*%
X157140000Y-118800000D03*
%TO.P,J5,15*%
%TO.N,SPACE*%
X154600000Y-101020000D03*
%TO.P,J5,13*%
%TO.N,THUMB3*%
X154600000Y-103560000D03*
%TO.P,J5,11*%
%TO.N,THUMB2*%
X154600000Y-106100000D03*
%TO.P,J5,9*%
%TO.N,THUMB1*%
X154600000Y-108640000D03*
%TO.P,J5,7*%
%TO.N,F*%
X154600000Y-111180000D03*
%TO.P,J5,5*%
%TO.N,B*%
X154600000Y-113720000D03*
%TO.P,J5,3*%
%TO.N,V*%
X154600000Y-116260000D03*
%TO.P,J5,1*%
%TO.N,JOYSTICK_CLICK*%
%TA.AperFunction,ComponentPad*%
G36*
G01*
X153750000Y-119400000D02*
X153750000Y-118200000D01*
G75*
G02*
X154000000Y-117950000I250000J0D01*
G01*
X155200000Y-117950000D01*
G75*
G02*
X155450000Y-118200000I0J-250000D01*
G01*
X155450000Y-119400000D01*
G75*
G02*
X155200000Y-119650000I-250000J0D01*
G01*
X154000000Y-119650000D01*
G75*
G02*
X153750000Y-119400000I0J250000D01*
G01*
G37*
%TD.AperFunction*%
%TD*%
%TO.P,J7,16*%
%TO.N,GND*%
X155940000Y-37020000D03*
%TO.P,J7,14*%
X155940000Y-39560000D03*
%TO.P,J7,12*%
X155940000Y-42100000D03*
%TO.P,J7,10*%
X155940000Y-44640000D03*
%TO.P,J7,8*%
X155940000Y-47180000D03*
%TO.P,J7,6*%
X155940000Y-49720000D03*
%TO.P,J7,4*%
X155940000Y-52260000D03*
%TO.P,J7,2*%
X155940000Y-54800000D03*
%TO.P,J7,15*%
%TO.N,ESC*%
X153400000Y-37020000D03*
%TO.P,J7,13*%
%TO.N,F1*%
X153400000Y-39560000D03*
%TO.P,J7,11*%
%TO.N,F2*%
X153400000Y-42100000D03*
%TO.P,J7,9*%
%TO.N,F3*%
X153400000Y-44640000D03*
%TO.P,J7,7*%
%TO.N,F4*%
X153400000Y-47180000D03*
%TO.P,J7,5*%
%TO.N,F5*%
X153400000Y-49720000D03*
%TO.P,J7,3*%
%TO.N,SW6_LEFT*%
X153400000Y-52260000D03*
%TO.P,J7,1*%
%TO.N,SW6_CLICK*%
%TA.AperFunction,ComponentPad*%
G36*
G01*
X152550000Y-55400000D02*
X152550000Y-54200000D01*
G75*
G02*
X152800000Y-53950000I250000J0D01*
G01*
X154000000Y-53950000D01*
G75*
G02*
X154250000Y-54200000I0J-250000D01*
G01*
X154250000Y-55400000D01*
G75*
G02*
X154000000Y-55650000I-250000J0D01*
G01*
X152800000Y-55650000D01*
G75*
G02*
X152550000Y-55400000I0J250000D01*
G01*
G37*
%TD.AperFunction*%
%TD*%
%TO.P,J8,16*%
%TO.N,GND*%
X166550000Y-37020000D03*
%TO.P,J8,14*%
X166550000Y-39560000D03*
%TO.P,J8,12*%
X166550000Y-42100000D03*
%TO.P,J8,10*%
X166550000Y-44640000D03*
%TO.P,J8,8*%
X166550000Y-47180000D03*
%TO.P,J8,6*%
X166550000Y-49720000D03*
%TO.P,J8,4*%
X166550000Y-52260000D03*
%TO.P,J8,2*%
X166550000Y-54800000D03*
%TO.P,J8,15*%
%TO.N,N/C*%
X164010000Y-37020000D03*
%TO.P,J8,13*%
X164010000Y-39560000D03*
%TO.P,J8,11*%
X164010000Y-42100000D03*
%TO.P,J8,9*%
X164010000Y-44640000D03*
%TO.P,J8,7*%
X164010000Y-47180000D03*
%TO.P,J8,5*%
%TO.N,SW6_UP*%
X164010000Y-49720000D03*
%TO.P,J8,3*%
%TO.N,SW6_RIGHT*%
X164010000Y-52260000D03*
%TO.P,J8,1*%
%TO.N,SW6_DOWN*%
%TA.AperFunction,ComponentPad*%
G36*
G01*
X163160000Y-55400000D02*
X163160000Y-54200000D01*
G75*
G02*
X163410000Y-53950000I250000J0D01*
G01*
X164610000Y-53950000D01*
G75*
G02*
X164860000Y-54200000I0J-250000D01*
G01*
X164860000Y-55400000D01*
G75*
G02*
X164610000Y-55650000I-250000J0D01*
G01*
X163410000Y-55650000D01*
G75*
G02*
X163160000Y-55400000I0J250000D01*
G01*
G37*
%TD.AperFunction*%
%TD*%
D12*
%TO.P,J9,1*%
%TO.N,GND*%
X159000000Y-138000000D03*
D13*
%TO.P,J9,2*%
%TO.N,+3V3*%
X159000000Y-135460000D03*
%TO.P,J9,3*%
%TO.N,VRY*%
X159000000Y-132920000D03*
%TO.P,J9,4*%
%TO.N,VRX*%
X159000000Y-130380000D03*
%TO.P,J9,5*%
%TO.N,JOYSTICK_CLICK*%
X159000000Y-127840000D03*
%TD*%
D12*
%TO.P,J10,1*%
%TO.N,+5V*%
X165200000Y-79000000D03*
D13*
%TO.P,J10,2*%
%TO.N,+3V3*%
X165200000Y-76460000D03*
%TO.P,J10,3*%
%TO.N,GND*%
X165200000Y-73920000D03*
%TO.P,J10,4*%
%TO.N,SPI_MOSI*%
X165200000Y-71380000D03*
%TO.P,J10,5*%
%TO.N,SPI_MISO*%
X165200000Y-68840000D03*
%TO.P,J10,6*%
%TO.N,SPI_SCLK*%
X165200000Y-66300000D03*
%TO.P,J10,7*%
%TO.N,SPI_CSN*%
X165200000Y-63760000D03*
%TD*%
D12*
%TO.P,J11,1*%
%TO.N,SPACE*%
X165200000Y-101600000D03*
D13*
%TO.P,J11,2*%
%TO.N,THUMB3*%
X165200000Y-104140000D03*
%TO.P,J11,3*%
%TO.N,THUMB2*%
X165200000Y-106680000D03*
%TO.P,J11,4*%
%TO.N,THUMB1*%
X165200000Y-109220000D03*
%TO.P,J11,5*%
%TO.N,GND*%
X165200000Y-111760000D03*
%TO.P,J11,6*%
X165200000Y-114300000D03*
%TO.P,J11,7*%
X165200000Y-116840000D03*
%TO.P,J11,8*%
X165200000Y-119380000D03*
%TD*%
D12*
%TO.P,KB1,1*%
%TO.N,ESC*%
X45710000Y-33500000D03*
D13*
%TO.P,KB1,2*%
%TO.N,GND*%
X48250000Y-33500000D03*
%TD*%
%TO.P,KB2,2*%
%TO.N,GND*%
X67250000Y-33500000D03*
D12*
%TO.P,KB2,1*%
%TO.N,F1*%
X64710000Y-33500000D03*
%TD*%
%TO.P,KB3,1*%
%TO.N,F2*%
X83710000Y-33500000D03*
D13*
%TO.P,KB3,2*%
%TO.N,GND*%
X86250000Y-33500000D03*
%TD*%
%TO.P,KB4,2*%
%TO.N,GND*%
X105290000Y-33500000D03*
D12*
%TO.P,KB4,1*%
%TO.N,F3*%
X102750000Y-33500000D03*
%TD*%
%TO.P,KB5,1*%
%TO.N,F4*%
X121710000Y-33500000D03*
D13*
%TO.P,KB5,2*%
%TO.N,GND*%
X124250000Y-33500000D03*
%TD*%
%TO.P,KB6,2*%
%TO.N,GND*%
X143290000Y-33500000D03*
D12*
%TO.P,KB6,1*%
%TO.N,F5*%
X140750000Y-33500000D03*
%TD*%
%TO.P,KB7,1*%
%TO.N,TAB*%
X45710000Y-72000000D03*
D13*
%TO.P,KB7,2*%
%TO.N,GND*%
X48250000Y-72000000D03*
%TD*%
%TO.P,KB8,2*%
%TO.N,GND*%
X67250000Y-72000000D03*
D12*
%TO.P,KB8,1*%
%TO.N,Q*%
X64710000Y-72000000D03*
%TD*%
D13*
%TO.P,KB9,2*%
%TO.N,GND*%
X86250000Y-72000000D03*
D12*
%TO.P,KB9,1*%
%TO.N,W*%
X83710000Y-72000000D03*
%TD*%
%TO.P,KB10,1*%
%TO.N,E*%
X102710000Y-72000000D03*
D13*
%TO.P,KB10,2*%
%TO.N,GND*%
X105250000Y-72000000D03*
%TD*%
%TO.P,KB11,2*%
%TO.N,GND*%
X124290000Y-72000000D03*
D12*
%TO.P,KB11,1*%
%TO.N,R*%
X121750000Y-72000000D03*
%TD*%
%TO.P,KB12,1*%
%TO.N,T*%
X140710000Y-72000000D03*
D13*
%TO.P,KB12,2*%
%TO.N,GND*%
X143250000Y-72000000D03*
%TD*%
D12*
%TO.P,KB13,1*%
%TO.N,SHIFT*%
X45710000Y-90750000D03*
D13*
%TO.P,KB13,2*%
%TO.N,GND*%
X48250000Y-90750000D03*
%TD*%
%TO.P,KB14,2*%
%TO.N,GND*%
X67250000Y-90750000D03*
D12*
%TO.P,KB14,1*%
%TO.N,A*%
X64710000Y-90750000D03*
%TD*%
%TO.P,KB15,1*%
%TO.N,S*%
X83750000Y-90750000D03*
D13*
%TO.P,KB15,2*%
%TO.N,GND*%
X86290000Y-90750000D03*
%TD*%
%TO.P,KB16,2*%
%TO.N,GND*%
X105290000Y-90750000D03*
D12*
%TO.P,KB16,1*%
%TO.N,D*%
X102750000Y-90750000D03*
%TD*%
%TO.P,KB17,1*%
%TO.N,F*%
X121750000Y-90750000D03*
D13*
%TO.P,KB17,2*%
%TO.N,GND*%
X124290000Y-90750000D03*
%TD*%
%TO.P,KB18,2*%
%TO.N,GND*%
X143290000Y-90750000D03*
D12*
%TO.P,KB18,1*%
%TO.N,G*%
X140750000Y-90750000D03*
%TD*%
%TO.P,KB19,1*%
%TO.N,CTRL*%
X45710000Y-109750000D03*
D13*
%TO.P,KB19,2*%
%TO.N,GND*%
X48250000Y-109750000D03*
%TD*%
%TO.P,KB20,2*%
%TO.N,GND*%
X67290000Y-109750000D03*
D12*
%TO.P,KB20,1*%
%TO.N,Z*%
X64750000Y-109750000D03*
%TD*%
%TO.P,KB21,1*%
%TO.N,X*%
X83710000Y-109750000D03*
D13*
%TO.P,KB21,2*%
%TO.N,GND*%
X86250000Y-109750000D03*
%TD*%
%TO.P,KB22,2*%
%TO.N,GND*%
X105250000Y-109750000D03*
D12*
%TO.P,KB22,1*%
%TO.N,C*%
X102710000Y-109750000D03*
%TD*%
%TO.P,KB23,1*%
%TO.N,V*%
X121710000Y-109750000D03*
D13*
%TO.P,KB23,2*%
%TO.N,GND*%
X124250000Y-109750000D03*
%TD*%
%TO.P,KB24,2*%
%TO.N,GND*%
X143250000Y-109750000D03*
D12*
%TO.P,KB24,1*%
%TO.N,B*%
X140710000Y-109750000D03*
%TD*%
%TO.P,J12,1*%
%TO.N,+3V3*%
X163600000Y-95600000D03*
D13*
%TO.P,J12,2*%
%TO.N,VRX*%
X166140000Y-95600000D03*
%TO.P,J12,3*%
%TO.N,+5V*%
X163600000Y-93060000D03*
%TO.P,J12,4*%
%TO.N,VRY*%
X166140000Y-93060000D03*
%TO.P,J12,5*%
%TO.N,GND*%
X163600000Y-90520000D03*
%TO.P,J12,6*%
%TO.N,SPI_CSN*%
X166140000Y-90520000D03*
%TO.P,J12,7*%
%TO.N,LED_DATA_IN*%
X163600000Y-87980000D03*
%TO.P,J12,8*%
%TO.N,SPI_SCLK*%
X166140000Y-87980000D03*
%TO.P,J12,9*%
%TO.N,I2C_SCL*%
X163600000Y-85440000D03*
%TO.P,J12,10*%
%TO.N,SPI_MISO*%
X166140000Y-85440000D03*
%TO.P,J12,11*%
%TO.N,I2C_SDA*%
X163600000Y-82900000D03*
%TO.P,J12,12*%
%TO.N,SPI_MOSI*%
X166140000Y-82900000D03*
%TD*%
D11*
%TO.P,SW1,3*%
%TO.N,SW1_CLICK*%
X39500000Y-66200000D03*
%TO.P,SW1,2*%
%TO.N,SW1_LEFT*%
X39500000Y-62200000D03*
%TO.P,SW1,1*%
%TO.N,GND*%
X39500000Y-58200000D03*
%TO.P,SW1,6*%
%TO.N,SW1_DOWN*%
X54500000Y-66200000D03*
%TO.P,SW1,5*%
%TO.N,SW1_RIGHT*%
X54500000Y-62200000D03*
%TO.P,SW1,4*%
%TO.N,SW1_UP*%
X54500000Y-58200000D03*
%TD*%
%TO.P,SW2,4*%
%TO.N,SW2_UP*%
X73500000Y-58200000D03*
%TO.P,SW2,5*%
%TO.N,SW2_RIGHT*%
X73500000Y-62200000D03*
%TO.P,SW2,6*%
%TO.N,SW2_DOWN*%
X73500000Y-66200000D03*
%TO.P,SW2,1*%
%TO.N,GND*%
X58500000Y-58200000D03*
%TO.P,SW2,2*%
%TO.N,SW2_LEFT*%
X58500000Y-62200000D03*
%TO.P,SW2,3*%
%TO.N,SW2_CLICK*%
X58500000Y-66200000D03*
%TD*%
%TO.P,SW3,3*%
%TO.N,SW3_CLICK*%
X77500000Y-66200000D03*
%TO.P,SW3,2*%
%TO.N,SW3_LEFT*%
X77500000Y-62200000D03*
%TO.P,SW3,1*%
%TO.N,GND*%
X77500000Y-58200000D03*
%TO.P,SW3,6*%
%TO.N,SW3_DOWN*%
X92500000Y-66200000D03*
%TO.P,SW3,5*%
%TO.N,SW3_RIGHT*%
X92500000Y-62200000D03*
%TO.P,SW3,4*%
%TO.N,SW3_UP*%
X92500000Y-58200000D03*
%TD*%
%TO.P,SW4,4*%
%TO.N,SW4_UP*%
X111500000Y-58200000D03*
%TO.P,SW4,5*%
%TO.N,SW4_RIGHT*%
X111500000Y-62200000D03*
%TO.P,SW4,6*%
%TO.N,SW4_DOWN*%
X111500000Y-66200000D03*
%TO.P,SW4,1*%
%TO.N,GND*%
X96500000Y-58200000D03*
%TO.P,SW4,2*%
%TO.N,SW4_LEFT*%
X96500000Y-62200000D03*
%TO.P,SW4,3*%
%TO.N,SW4_CLICK*%
X96500000Y-66200000D03*
%TD*%
%TO.P,SW5,3*%
%TO.N,SW5_CLICK*%
X115500000Y-66200000D03*
%TO.P,SW5,2*%
%TO.N,SW5_LEFT*%
X115500000Y-62200000D03*
%TO.P,SW5,1*%
%TO.N,GND*%
X115500000Y-58200000D03*
%TO.P,SW5,6*%
%TO.N,SW5_DOWN*%
X130500000Y-66200000D03*
%TO.P,SW5,5*%
%TO.N,SW5_RIGHT*%
X130500000Y-62200000D03*
%TO.P,SW5,4*%
%TO.N,SW5_UP*%
X130500000Y-58200000D03*
%TD*%
D14*
%TO.N,+5V*%
X119200000Y-58400000D03*
X100000000Y-58400000D03*
X81000000Y-58400000D03*
X62800000Y-59800000D03*
X158050000Y-91000000D03*
X75400000Y-70000000D03*
X60500000Y-71100000D03*
X112600000Y-69600000D03*
X132200000Y-70500000D03*
%TO.N,GND*%
X88200000Y-72000000D03*
X69000000Y-72000000D03*
X81000000Y-56400000D03*
X62800000Y-58200000D03*
X100000000Y-56400000D03*
X119200000Y-56400000D03*
X159000000Y-85000000D03*
X162600000Y-89200000D03*
X92200000Y-136000000D03*
X122600000Y-136200000D03*
X50550000Y-71800000D03*
X37350000Y-58400000D03*
X80100000Y-72200000D03*
X60600000Y-72400000D03*
X117900000Y-72600000D03*
X136600000Y-72300000D03*
X132600000Y-56900000D03*
%TO.N,+3V3*%
X163600000Y-97400000D03*
X162600000Y-111000000D03*
%TO.N,SW4_LEFT*%
X114600000Y-126400000D03*
X124400000Y-129600000D03*
%TO.N,SW4_UP*%
X115800000Y-110874990D03*
X127000000Y-110800000D03*
%TO.N,SW4_DOWN*%
X124400000Y-128400000D03*
X115375000Y-125600000D03*
%TO.N,SW4_CLICK*%
X113550000Y-125800000D03*
X124400000Y-130650000D03*
%TO.N,SW5_UP*%
X140000000Y-59600000D03*
X142400000Y-61000000D03*
%TO.N,SW5_RIGHT*%
X139400000Y-60400000D03*
X141600000Y-62000000D03*
%TO.N,SW5_DOWN*%
X148800000Y-69200000D03*
X137200000Y-63400000D03*
%TD*%
D15*
%TO.N,+5V*%
X163434999Y-93225001D02*
X163600000Y-93060000D01*
X163600000Y-93060000D02*
X163265001Y-92725001D01*
X163349998Y-93060000D02*
X163600000Y-93060000D01*
X161200000Y-90910002D02*
X163349998Y-93060000D01*
X161200000Y-80200000D02*
X161200000Y-90910002D01*
X162400000Y-79000000D02*
X161200000Y-80200000D01*
X165200000Y-79000000D02*
X162400000Y-79000000D01*
X161110002Y-91000000D02*
X161200000Y-90910002D01*
X158050000Y-91000000D02*
X161110002Y-91000000D01*
%TO.N,GND*%
X79200000Y-58200000D02*
X81000000Y-56400000D01*
X77500000Y-58200000D02*
X79200000Y-58200000D01*
X58500000Y-58200000D02*
X62800000Y-58200000D01*
X157140000Y-85000000D02*
X159000000Y-85000000D01*
X72600000Y-136140000D02*
X75140000Y-136140000D01*
X75140000Y-136140000D02*
X77680000Y-136140000D01*
X77680000Y-136140000D02*
X80220000Y-136140000D01*
X80220000Y-136140000D02*
X82760000Y-136140000D01*
X82760000Y-136140000D02*
X85300000Y-136140000D01*
X85300000Y-136140000D02*
X87840000Y-136140000D01*
X87840000Y-136140000D02*
X90380000Y-136140000D01*
X92060000Y-136140000D02*
X92200000Y-136000000D01*
X90380000Y-136140000D02*
X92060000Y-136140000D01*
X103200000Y-136140000D02*
X105740000Y-136140000D01*
X108280000Y-136140000D02*
X105740000Y-136140000D01*
X108280000Y-136140000D02*
X110820000Y-136140000D01*
X110820000Y-136140000D02*
X113360000Y-136140000D01*
X113360000Y-136140000D02*
X115900000Y-136140000D01*
X115900000Y-136140000D02*
X118440000Y-136140000D01*
X120980000Y-136140000D02*
X118440000Y-136140000D01*
X122540000Y-136140000D02*
X122600000Y-136200000D01*
X120980000Y-136140000D02*
X122540000Y-136140000D01*
X98200000Y-58200000D02*
X100000000Y-56400000D01*
X96500000Y-58200000D02*
X98200000Y-58200000D01*
X117400000Y-58200000D02*
X119200000Y-56400000D01*
X115500000Y-58200000D02*
X117400000Y-58200000D01*
X134500000Y-58200000D02*
X133900000Y-58200000D01*
X37550000Y-58200000D02*
X37350000Y-58400000D01*
X39500000Y-58200000D02*
X37550000Y-58200000D01*
X133900000Y-58200000D02*
X132600000Y-56900000D01*
X162600000Y-89520000D02*
X163600000Y-90520000D01*
X162600000Y-89200000D02*
X162600000Y-89520000D01*
%TO.N,ESC*%
X45710000Y-30690000D02*
X45710000Y-33500000D01*
X47600000Y-28800000D02*
X45710000Y-30690000D01*
X151600000Y-28800000D02*
X47600000Y-28800000D01*
X153400000Y-30600000D02*
X151600000Y-28800000D01*
X153400000Y-37020000D02*
X153400000Y-30600000D01*
%TO.N,F1*%
X64710000Y-30090000D02*
X64710000Y-33500000D01*
X65499990Y-29300010D02*
X64710000Y-30090000D01*
X152600000Y-30600000D02*
X151300010Y-29300010D01*
X152600000Y-35800000D02*
X152600000Y-30600000D01*
X152199999Y-36200001D02*
X152600000Y-35800000D01*
X152199999Y-38359999D02*
X152199999Y-36200001D01*
X151300010Y-29300010D02*
X65499990Y-29300010D01*
X153400000Y-39560000D02*
X152199999Y-38359999D01*
%TO.N,F2*%
X83710000Y-30490000D02*
X83710000Y-33500000D01*
X84399980Y-29800020D02*
X83710000Y-30490000D01*
X151000020Y-29800020D02*
X84399980Y-29800020D01*
X151699989Y-30499989D02*
X151000020Y-29800020D01*
X151699989Y-40399989D02*
X151699989Y-30499989D01*
X153400000Y-42100000D02*
X151699989Y-40399989D01*
%TO.N,F3*%
X102750000Y-31050000D02*
X102750000Y-33500000D01*
X150600000Y-30400000D02*
X103400000Y-30400000D01*
X103400000Y-30400000D02*
X102750000Y-31050000D01*
X151000000Y-30800000D02*
X150600000Y-30400000D01*
X151000000Y-42240000D02*
X151000000Y-30800000D01*
X153400000Y-44640000D02*
X151000000Y-42240000D01*
%TO.N,F4*%
X121710000Y-31090000D02*
X121710000Y-33500000D01*
X121899990Y-30900010D02*
X121710000Y-31090000D01*
X150100010Y-30900010D02*
X121899990Y-30900010D01*
X150400000Y-31200000D02*
X150100010Y-30900010D01*
X150400000Y-44180000D02*
X150400000Y-31200000D01*
X153400000Y-47180000D02*
X150400000Y-44180000D01*
%TO.N,F5*%
X140750000Y-32050000D02*
X140750000Y-33500000D01*
X141399980Y-31400020D02*
X140750000Y-32050000D01*
X149400020Y-31400020D02*
X141399980Y-31400020D01*
X149800000Y-31800000D02*
X149400020Y-31400020D01*
X149800000Y-46120000D02*
X149800000Y-31800000D01*
X153400000Y-49720000D02*
X149800000Y-46120000D01*
%TO.N,TAB*%
X39000000Y-72000000D02*
X45710000Y-72000000D01*
X36800000Y-74200000D02*
X39000000Y-72000000D01*
X36800000Y-125600000D02*
X36800000Y-74200000D01*
X40000000Y-128800000D02*
X36800000Y-125600000D01*
X50100000Y-128800000D02*
X40000000Y-128800000D01*
X54900000Y-133600000D02*
X50100000Y-128800000D01*
%TO.N,Q*%
X65000000Y-73600000D02*
X64710000Y-73310000D01*
X73230344Y-73600000D02*
X65000000Y-73600000D01*
X73600000Y-73969656D02*
X73230344Y-73600000D01*
X73600000Y-88800000D02*
X73600000Y-73969656D01*
X64710000Y-73310000D02*
X64710000Y-72000000D01*
X74200000Y-89400000D02*
X73600000Y-88800000D01*
X74200000Y-109800000D02*
X74200000Y-89400000D01*
X75000000Y-110600000D02*
X74200000Y-109800000D01*
X75775010Y-127175010D02*
X75000000Y-126400000D01*
X83955010Y-127175010D02*
X75775010Y-127175010D01*
X75000000Y-126400000D02*
X75000000Y-110600000D01*
X90380000Y-133600000D02*
X83955010Y-127175010D01*
%TO.N,W*%
X106280000Y-131600000D02*
X108280000Y-133600000D01*
X96800000Y-131600000D02*
X106280000Y-131600000D01*
X92475010Y-89475010D02*
X93200000Y-90200000D01*
X93800000Y-128600000D02*
X96800000Y-131600000D01*
X92475010Y-73844666D02*
X92475010Y-89475010D01*
X93800000Y-111200000D02*
X93800000Y-128600000D01*
X92230344Y-73600000D02*
X92475010Y-73844666D01*
X93200000Y-90200000D02*
X93200000Y-110600000D01*
X84800000Y-73600000D02*
X92230344Y-73600000D01*
X93200000Y-110600000D02*
X93800000Y-111200000D01*
X83710000Y-72510000D02*
X84800000Y-73600000D01*
X83710000Y-72000000D02*
X83710000Y-72510000D01*
%TO.N,E*%
X102710000Y-73110000D02*
X102710000Y-72000000D01*
X103200000Y-73600000D02*
X102710000Y-73110000D01*
X111230344Y-73600000D02*
X103200000Y-73600000D01*
X138680000Y-133600000D02*
X136480000Y-131400000D01*
X136480000Y-131400000D02*
X123800000Y-131400000D01*
X123800000Y-131400000D02*
X119575010Y-127175010D01*
X119575010Y-127175010D02*
X113375010Y-127175010D01*
X111475010Y-73875010D02*
X111475010Y-73844666D01*
X113375010Y-127175010D02*
X112800000Y-126600000D01*
X112800000Y-126600000D02*
X112800000Y-111400000D01*
X112200000Y-110800000D02*
X112200000Y-89600000D01*
X111600000Y-89000000D02*
X111600000Y-74000000D01*
X112200000Y-89600000D02*
X111600000Y-89000000D01*
X112800000Y-111400000D02*
X112200000Y-110800000D01*
X111600000Y-74000000D02*
X111475010Y-73875010D01*
X111475010Y-73844666D02*
X111230344Y-73600000D01*
%TO.N,R*%
X121800000Y-72050000D02*
X121750000Y-72000000D01*
X122000000Y-73600000D02*
X121800000Y-73400000D01*
X134200000Y-74200000D02*
X133600000Y-73600000D01*
X133600000Y-73600000D02*
X122000000Y-73600000D01*
X136400000Y-92400000D02*
X134200000Y-90200000D01*
X121800000Y-73400000D02*
X121800000Y-72050000D01*
X147200000Y-92400000D02*
X136400000Y-92400000D01*
X134200000Y-90200000D02*
X134200000Y-74200000D01*
X154600000Y-85000000D02*
X147200000Y-92400000D01*
%TO.N,T*%
X142334990Y-73624990D02*
X140710000Y-72000000D01*
X149255334Y-73624990D02*
X142334990Y-73624990D01*
X150200000Y-74569656D02*
X149255334Y-73624990D01*
X150200000Y-77200000D02*
X150200000Y-74569656D01*
X152920000Y-79920000D02*
X150200000Y-77200000D01*
X154600000Y-79920000D02*
X152920000Y-79920000D01*
%TO.N,SHIFT*%
X39850000Y-90750000D02*
X45710000Y-90750000D01*
X37600000Y-93000000D02*
X39850000Y-90750000D01*
X37600000Y-125400000D02*
X37600000Y-93000000D01*
X40400000Y-128200000D02*
X37600000Y-125400000D01*
X52040000Y-128200000D02*
X40400000Y-128200000D01*
X57440000Y-133600000D02*
X52040000Y-128200000D01*
%TO.N,A*%
X73030344Y-92400000D02*
X65200000Y-92400000D01*
X73600000Y-110200000D02*
X73600000Y-92969656D01*
X73600000Y-92969656D02*
X73030344Y-92400000D01*
X74300010Y-126700010D02*
X74300010Y-110900010D01*
X64710000Y-91910000D02*
X64710000Y-90750000D01*
X75499990Y-127899990D02*
X74300010Y-126700010D01*
X74300010Y-110900010D02*
X73600000Y-110200000D01*
X82139990Y-127899990D02*
X75499990Y-127899990D01*
X65200000Y-92400000D02*
X64710000Y-91910000D01*
X87840000Y-133600000D02*
X82139990Y-127899990D01*
%TO.N,S*%
X84000000Y-92600000D02*
X83750000Y-92350000D01*
X92230344Y-92600000D02*
X84000000Y-92600000D01*
X92600000Y-92969656D02*
X92230344Y-92600000D01*
X83750000Y-92350000D02*
X83750000Y-90750000D01*
X92600000Y-110800000D02*
X92600000Y-92969656D01*
X93100010Y-111300010D02*
X92600000Y-110800000D01*
X93100010Y-128792890D02*
X93100010Y-111300010D01*
X96507120Y-132200000D02*
X93100010Y-128792890D01*
X104340000Y-132200000D02*
X96507120Y-132200000D01*
X105740000Y-133600000D02*
X104340000Y-132200000D01*
%TO.N,D*%
X102750000Y-90750000D02*
X102800000Y-90800000D01*
X135400000Y-132200000D02*
X136140000Y-132940000D01*
X102800000Y-90800000D02*
X102800000Y-92200000D01*
X102800000Y-92200000D02*
X103200000Y-92600000D01*
X103200000Y-92600000D02*
X111400000Y-92600000D01*
X112100010Y-127300010D02*
X112600000Y-127800000D01*
X111400000Y-92600000D02*
X111600000Y-92800000D01*
X111600000Y-92800000D02*
X111600000Y-111200000D01*
X123800000Y-132200000D02*
X135400000Y-132200000D01*
X111600000Y-111200000D02*
X112100010Y-111700010D01*
X112100010Y-111700010D02*
X112100010Y-127300010D01*
X112600000Y-127800000D02*
X119400000Y-127800000D01*
X136140000Y-132940000D02*
X136140000Y-133600000D01*
X119400000Y-127800000D02*
X123800000Y-132200000D01*
%TO.N,F*%
X121750000Y-91950000D02*
X121750000Y-90750000D01*
X122200000Y-92400000D02*
X121750000Y-91950000D01*
X133400000Y-92400000D02*
X122200000Y-92400000D01*
X134200000Y-93200000D02*
X133400000Y-92400000D01*
X134200000Y-107600000D02*
X134200000Y-93200000D01*
X134800000Y-108200000D02*
X134200000Y-107600000D01*
X151620000Y-108200000D02*
X134800000Y-108200000D01*
X154600000Y-111180000D02*
X151620000Y-108200000D01*
%TO.N,G*%
X154600000Y-82460000D02*
X152340000Y-82460000D01*
X152340000Y-82460000D02*
X149800000Y-85000000D01*
X149800000Y-85000000D02*
X149800000Y-88800000D01*
X149800000Y-88800000D02*
X149400000Y-89200000D01*
X146400000Y-89200000D02*
X146375010Y-89175010D01*
X149400000Y-89200000D02*
X146400000Y-89200000D01*
X142324990Y-89175010D02*
X140750000Y-90750000D01*
X146375010Y-89175010D02*
X142324990Y-89175010D01*
%TO.N,CTRL*%
X59980000Y-133600000D02*
X54800000Y-128420000D01*
X54800000Y-112169656D02*
X54030344Y-111400000D01*
X54800000Y-128420000D02*
X54800000Y-112169656D01*
X47360000Y-111400000D02*
X45710000Y-109750000D01*
X54030344Y-111400000D02*
X47360000Y-111400000D01*
%TO.N,Z*%
X85300000Y-133600000D02*
X80100000Y-128400000D01*
X80100000Y-128400000D02*
X75200000Y-128400000D01*
X75200000Y-128400000D02*
X73800000Y-127000000D01*
X73800000Y-112169656D02*
X73230344Y-111600000D01*
X73800000Y-127000000D02*
X73800000Y-112169656D01*
X73230344Y-111600000D02*
X65600000Y-111600000D01*
X64750000Y-110750000D02*
X64750000Y-109750000D01*
X65600000Y-111600000D02*
X64750000Y-110750000D01*
%TO.N,X*%
X83710000Y-111310000D02*
X83710000Y-109750000D01*
X84000000Y-111600000D02*
X83710000Y-111310000D01*
X92600000Y-111800000D02*
X92400000Y-111600000D01*
X92600000Y-129000000D02*
X92600000Y-111800000D01*
X92400000Y-111600000D02*
X84000000Y-111600000D01*
X97200000Y-133600000D02*
X92600000Y-129000000D01*
X103200000Y-133600000D02*
X97200000Y-133600000D01*
%TO.N,C*%
X102710000Y-110910000D02*
X102710000Y-109750000D01*
X111230344Y-111600000D02*
X103400000Y-111600000D01*
X111600000Y-111969656D02*
X111230344Y-111600000D01*
X111600000Y-127800000D02*
X111600000Y-111969656D01*
X112200000Y-128400000D02*
X111600000Y-127800000D01*
X103400000Y-111600000D02*
X102710000Y-110910000D01*
X119200000Y-128400000D02*
X112200000Y-128400000D01*
X124400000Y-133600000D02*
X119200000Y-128400000D01*
X133600000Y-133600000D02*
X124400000Y-133600000D01*
%TO.N,V*%
X121710000Y-108690000D02*
X121710000Y-109750000D01*
X122200000Y-108200000D02*
X121710000Y-108690000D01*
X128400000Y-108200000D02*
X122200000Y-108200000D01*
X132800000Y-127200000D02*
X131600000Y-126000000D01*
X131600000Y-126000000D02*
X131600000Y-111400000D01*
X149400000Y-127200000D02*
X132800000Y-127200000D01*
X149800000Y-126800000D02*
X149400000Y-127200000D01*
X149800000Y-121060000D02*
X149800000Y-126800000D01*
X131600000Y-111400000D02*
X128400000Y-108200000D01*
X154600000Y-116260000D02*
X149800000Y-121060000D01*
%TO.N,B*%
X140710000Y-109750000D02*
X140710000Y-109090000D01*
X154600000Y-113720000D02*
X152520000Y-113720000D01*
X152520000Y-113720000D02*
X150400000Y-111600000D01*
X150400000Y-111600000D02*
X141400000Y-111600000D01*
X140710000Y-110910000D02*
X140710000Y-109750000D01*
X141400000Y-111600000D02*
X140710000Y-110910000D01*
%TO.N,JOYSTICK_CLICK*%
X154600000Y-123440000D02*
X159000000Y-127840000D01*
X154600000Y-118800000D02*
X154600000Y-123440000D01*
%TO.N,SPACE*%
X154600000Y-101020000D02*
X155780000Y-102200000D01*
X164579999Y-102220001D02*
X165200000Y-101600000D01*
X156563999Y-102220001D02*
X164579999Y-102220001D01*
X156543998Y-102200000D02*
X156563999Y-102220001D01*
X155780000Y-102200000D02*
X156543998Y-102200000D01*
%TO.N,THUMB3*%
X154600000Y-103560000D02*
X155840000Y-104800000D01*
X164540000Y-104800000D02*
X165200000Y-104140000D01*
X155840000Y-104800000D02*
X164540000Y-104800000D01*
%TO.N,THUMB2*%
X154600000Y-106100000D02*
X155900000Y-107400000D01*
X164480000Y-107400000D02*
X165200000Y-106680000D01*
X155900000Y-107400000D02*
X164480000Y-107400000D01*
%TO.N,THUMB1*%
X154600000Y-108640000D02*
X155760000Y-109800000D01*
X164440001Y-109979999D02*
X165200000Y-109220000D01*
X156979999Y-109979999D02*
X164440001Y-109979999D01*
X156800000Y-109800000D02*
X156979999Y-109979999D01*
X155760000Y-109800000D02*
X156800000Y-109800000D01*
%TO.N,+3V3*%
X164800001Y-81999999D02*
X164800001Y-94399999D01*
X166600000Y-80200000D02*
X164800001Y-81999999D01*
X166600000Y-77860000D02*
X166600000Y-80200000D01*
X164800001Y-94399999D02*
X163600000Y-95600000D01*
X165200000Y-76460000D02*
X166600000Y-77860000D01*
X159000000Y-135460000D02*
X157600000Y-134060000D01*
X157600000Y-134060000D02*
X157600000Y-129864000D01*
X157600000Y-129864000D02*
X157600000Y-129800000D01*
X158359999Y-129040001D02*
X160159999Y-129040001D01*
X157600000Y-129800000D02*
X158359999Y-129040001D01*
X162600000Y-126600000D02*
X162600000Y-111000000D01*
X160159999Y-129040001D02*
X162600000Y-126600000D01*
%TO.N,VRX*%
X160420000Y-130380000D02*
X167200000Y-123600000D01*
X159000000Y-130380000D02*
X160420000Y-130380000D01*
X167200000Y-96660000D02*
X166140000Y-95600000D01*
X167200000Y-123600000D02*
X167200000Y-96660000D01*
%TO.N,VRY*%
X159000000Y-132920000D02*
X168000000Y-123920000D01*
X168000000Y-94920000D02*
X166140000Y-93060000D01*
X168000000Y-123920000D02*
X168000000Y-94920000D01*
%TO.N,SPI_MOSI*%
X166140000Y-82900000D02*
X167200000Y-81840000D01*
X167200000Y-73380000D02*
X165200000Y-71380000D01*
X167200000Y-81840000D02*
X167200000Y-73380000D01*
%TO.N,SPI_MISO*%
X166140000Y-85440000D02*
X168000000Y-83580000D01*
X168000000Y-71640000D02*
X165200000Y-68840000D01*
X168000000Y-83580000D02*
X168000000Y-71640000D01*
%TO.N,SPI_SCLK*%
X166140000Y-87980000D02*
X168800000Y-85320000D01*
X168800000Y-69900000D02*
X165200000Y-66300000D01*
X168800000Y-85320000D02*
X168800000Y-69900000D01*
%TO.N,SPI_CSN*%
X166140000Y-90520000D02*
X169400000Y-87260000D01*
X169400000Y-67960000D02*
X165200000Y-63760000D01*
X169400000Y-87260000D02*
X169400000Y-67960000D01*
%TO.N,SW2_RIGHT*%
X71800000Y-60500000D02*
X73500000Y-62200000D01*
X71800000Y-58800000D02*
X71800000Y-60500000D01*
X72740000Y-131200000D02*
X60200000Y-131200000D01*
X60200000Y-131200000D02*
X56200000Y-127200000D01*
X62600000Y-56600000D02*
X64400000Y-58400000D01*
X56200000Y-127200000D02*
X56200000Y-68907120D01*
X56200000Y-68907120D02*
X56500010Y-68607110D01*
X75140000Y-133600000D02*
X72740000Y-131200000D01*
X56500010Y-68607110D02*
X56500010Y-57499990D01*
X56500010Y-57499990D02*
X57400000Y-56600000D01*
X57400000Y-56600000D02*
X62600000Y-56600000D01*
X66800000Y-58400000D02*
X67900000Y-57300000D01*
X67900000Y-57300000D02*
X70300000Y-57300000D01*
X64400000Y-58400000D02*
X66800000Y-58400000D01*
X70300000Y-57300000D02*
X71800000Y-58800000D01*
%TO.N,SW2_UP*%
X62550001Y-54249999D02*
X69049999Y-54249999D01*
X69049999Y-54249999D02*
X73000000Y-58200000D01*
X57000000Y-56000000D02*
X60800000Y-56000000D01*
X73000000Y-58200000D02*
X73500000Y-58200000D01*
X60800000Y-56000000D02*
X62550001Y-54249999D01*
X56000000Y-57000000D02*
X57000000Y-56000000D01*
X55600000Y-68800000D02*
X56000000Y-68400000D01*
X56000000Y-68400000D02*
X56000000Y-57000000D01*
X55600000Y-127600000D02*
X55600000Y-68800000D01*
X60000000Y-132000000D02*
X55600000Y-127600000D01*
X71000000Y-132000000D02*
X60000000Y-132000000D01*
X72600000Y-133600000D02*
X71000000Y-132000000D01*
%TO.N,SW2_LEFT*%
X58500000Y-62200000D02*
X58500000Y-62500000D01*
X61200000Y-66613998D02*
X60400000Y-67413998D01*
X61200000Y-65200000D02*
X61200000Y-66613998D01*
X58500000Y-62500000D02*
X61200000Y-65200000D01*
X60400000Y-67413998D02*
X60386002Y-67413998D01*
X60386002Y-67413998D02*
X58400000Y-69400000D01*
X58000000Y-126330344D02*
X58000000Y-69800000D01*
X61069656Y-129400000D02*
X58000000Y-126330344D01*
X78560000Y-129400000D02*
X61069656Y-129400000D01*
X58000000Y-69800000D02*
X58400000Y-69400000D01*
X82760000Y-133600000D02*
X78560000Y-129400000D01*
%TO.N,SW1_CLICK*%
X36600000Y-66200000D02*
X39500000Y-66200000D01*
X36200000Y-66600000D02*
X36600000Y-66200000D01*
X36200000Y-126000000D02*
X36200000Y-66600000D01*
X39800000Y-129600000D02*
X36200000Y-126000000D01*
X48360000Y-129600000D02*
X39800000Y-129600000D01*
X52360000Y-133600000D02*
X48360000Y-129600000D01*
%TO.N,SW1_DOWN*%
X52000000Y-58000000D02*
X52000000Y-65000000D01*
X47600000Y-53600000D02*
X52000000Y-58000000D01*
X38200000Y-53600000D02*
X47600000Y-53600000D01*
X52000000Y-65000000D02*
X53200000Y-66200000D01*
X34400000Y-127000000D02*
X34400000Y-57400000D01*
X38600000Y-131200000D02*
X34400000Y-127000000D01*
X44880000Y-131200000D02*
X38600000Y-131200000D01*
X53200000Y-66200000D02*
X54500000Y-66200000D01*
X34400000Y-57400000D02*
X38200000Y-53600000D01*
X47280000Y-133600000D02*
X44880000Y-131200000D01*
%TO.N,SW1_RIGHT*%
X52600000Y-60600000D02*
X54200000Y-62200000D01*
X52600000Y-57800000D02*
X52600000Y-60600000D01*
X47899990Y-53099990D02*
X52600000Y-57800000D01*
X37700010Y-53099990D02*
X47899990Y-53099990D01*
X54200000Y-62200000D02*
X54500000Y-62200000D01*
X33600000Y-127400000D02*
X33600000Y-57200000D01*
X33600000Y-57200000D02*
X37700010Y-53099990D01*
X38200000Y-132000000D02*
X33600000Y-127400000D01*
X43140000Y-132000000D02*
X38200000Y-132000000D01*
X44740000Y-133600000D02*
X43140000Y-132000000D01*
%TO.N,SW1_UP*%
X38000000Y-133600000D02*
X42200000Y-133600000D01*
X32800000Y-128400000D02*
X38000000Y-133600000D01*
X32800000Y-57000000D02*
X32800000Y-128400000D01*
X48200000Y-52400000D02*
X37400000Y-52400000D01*
X37400000Y-52400000D02*
X32800000Y-57000000D01*
X54000000Y-58200000D02*
X48200000Y-52400000D01*
X54500000Y-58200000D02*
X54000000Y-58200000D01*
%TO.N,SW1_LEFT*%
X38000000Y-62200000D02*
X39500000Y-62200000D01*
X35400000Y-64800000D02*
X38000000Y-62200000D01*
X35400000Y-126400000D02*
X35400000Y-64800000D01*
X39400000Y-130400000D02*
X35400000Y-126400000D01*
X46620000Y-130400000D02*
X39400000Y-130400000D01*
X49820000Y-133600000D02*
X46620000Y-130400000D01*
%TO.N,SW4_LEFT*%
X143760000Y-133600000D02*
X140360000Y-130200000D01*
X109600000Y-70555416D02*
X109600000Y-67413998D01*
X104386002Y-62200000D02*
X96500000Y-62200000D01*
X112800000Y-73755416D02*
X109600000Y-70555416D01*
X113400000Y-88200000D02*
X112800000Y-87600000D01*
X109600000Y-67413998D02*
X104386002Y-62200000D01*
X113400000Y-110200000D02*
X113400000Y-88200000D01*
X112800000Y-87600000D02*
X112800000Y-73755416D01*
X113400000Y-110200000D02*
X113800000Y-110600000D01*
X113800000Y-110800000D02*
X113800020Y-110800020D01*
X113800000Y-110600000D02*
X113800000Y-110800000D01*
X113800020Y-110800020D02*
X113800020Y-110985780D01*
X114600000Y-125739998D02*
X114600000Y-126400000D01*
X113800020Y-124940018D02*
X114600000Y-125739998D01*
X113800020Y-110985780D02*
X113800020Y-124940018D01*
X140360000Y-130200000D02*
X140360000Y-130160000D01*
X139800000Y-129600000D02*
X124400000Y-129600000D01*
X140360000Y-130160000D02*
X139800000Y-129600000D01*
%TO.N,SW3_CLICK*%
X110820000Y-133220000D02*
X110820000Y-133600000D01*
X108699990Y-131099990D02*
X110820000Y-133220000D01*
X93600000Y-74600000D02*
X93700010Y-74700010D01*
X90450001Y-70250001D02*
X93600000Y-73400000D01*
X77500000Y-66200000D02*
X78400000Y-66200000D01*
X86586002Y-63400000D02*
X90450001Y-67263999D01*
X90450001Y-67263999D02*
X90450001Y-70250001D01*
X81200000Y-63400000D02*
X86586002Y-63400000D01*
X93600000Y-73400000D02*
X93600000Y-74600000D01*
X93700010Y-74700010D02*
X93700010Y-110392890D01*
X93700010Y-110392890D02*
X94300010Y-110992890D01*
X94300010Y-110992890D02*
X94300010Y-128300010D01*
X94300010Y-128300010D02*
X97099990Y-131099990D01*
X78400000Y-66200000D02*
X81200000Y-63400000D01*
X97099990Y-131099990D02*
X108699990Y-131099990D01*
%TO.N,SW3_DOWN*%
X115900000Y-131700000D02*
X115900000Y-133600000D01*
X114299970Y-130099970D02*
X115900000Y-131700000D01*
X97699970Y-130099970D02*
X114299970Y-130099970D01*
X95400000Y-110200000D02*
X95400000Y-127800000D01*
X95400000Y-127800000D02*
X97699970Y-130099970D01*
X94800000Y-109600000D02*
X95400000Y-110200000D01*
X94800000Y-72800000D02*
X94800000Y-109600000D01*
X92500000Y-70500000D02*
X94800000Y-72800000D01*
X92500000Y-66200000D02*
X92500000Y-70500000D01*
%TO.N,SW3_RIGHT*%
X118440000Y-131440000D02*
X118440000Y-133600000D01*
X116599960Y-129599960D02*
X118440000Y-131440000D01*
X97999960Y-129599960D02*
X116599960Y-129599960D01*
X96000000Y-127600000D02*
X97999960Y-129599960D01*
X96000000Y-110092880D02*
X96000000Y-127600000D01*
X95400000Y-109492880D02*
X96000000Y-110092880D01*
X94200000Y-71492880D02*
X95400000Y-72692880D01*
X95400000Y-72692880D02*
X95400000Y-109492880D01*
X94200000Y-63900000D02*
X94200000Y-71492880D01*
X92500000Y-62200000D02*
X94200000Y-63900000D01*
%TO.N,SW3_UP*%
X121000000Y-133580000D02*
X120980000Y-133600000D01*
X121000000Y-131000000D02*
X121000000Y-133580000D01*
X92500000Y-58200000D02*
X92500000Y-59500000D01*
X92500000Y-59500000D02*
X94800000Y-61800000D01*
X94800000Y-61800000D02*
X94800000Y-71200000D01*
X94800000Y-71200000D02*
X95800000Y-72200000D01*
X95800000Y-72200000D02*
X95800000Y-72385760D01*
X95800000Y-72385760D02*
X95900010Y-72485770D01*
X119000000Y-129000000D02*
X121000000Y-131000000D01*
X95900010Y-72485770D02*
X95900010Y-109285770D01*
X96500008Y-114592888D02*
X96500010Y-114592890D01*
X95900010Y-109285770D02*
X96500008Y-109885768D01*
X96500008Y-109885768D02*
X96500008Y-114592888D01*
X98200000Y-129000000D02*
X119000000Y-129000000D01*
X96500010Y-114592890D02*
X96500010Y-127300010D01*
X96500010Y-127300010D02*
X98200000Y-129000000D01*
%TO.N,SW3_LEFT*%
X94800020Y-128000020D02*
X97399980Y-130599980D01*
X77500000Y-62200000D02*
X86200000Y-62200000D01*
X86200000Y-62200000D02*
X91149999Y-67149999D01*
X97399980Y-130599980D02*
X111399980Y-130599980D01*
X91149999Y-67149999D02*
X91149999Y-70149999D01*
X91149999Y-70149999D02*
X94200000Y-73200000D01*
X113360000Y-132560000D02*
X113360000Y-133600000D01*
X94300000Y-110100000D02*
X94800000Y-110600000D01*
X94200000Y-73200000D02*
X94200000Y-74600000D01*
X94299990Y-74699990D02*
X94299990Y-81899990D01*
X111399980Y-130599980D02*
X113360000Y-132560000D01*
X94800000Y-110785760D02*
X94800020Y-110785780D01*
X94200000Y-74600000D02*
X94299990Y-74699990D01*
X94299990Y-81899990D02*
X94300000Y-81900000D01*
X94300000Y-81900000D02*
X94300000Y-110100000D01*
X94800020Y-110785780D02*
X94800020Y-128000020D01*
X94800000Y-110600000D02*
X94800000Y-110785760D01*
%TO.N,SW2_CLICK*%
X58500000Y-68300000D02*
X58500000Y-67300000D01*
X57300010Y-69499990D02*
X58500000Y-68300000D01*
X57300010Y-126500010D02*
X57300010Y-69499990D01*
X60800000Y-130000000D02*
X57300010Y-126500010D01*
X58500000Y-67300000D02*
X58500000Y-66200000D01*
X76620000Y-130000000D02*
X60800000Y-130000000D01*
X80220000Y-133600000D02*
X76620000Y-130000000D01*
%TO.N,SW2_DOWN*%
X71000000Y-63700000D02*
X73500000Y-66200000D01*
X71000000Y-59201998D02*
X71000000Y-63700000D01*
X77680000Y-133600000D02*
X74680000Y-130600000D01*
X74680000Y-130600000D02*
X60600000Y-130600000D01*
X60600000Y-130600000D02*
X56800000Y-126800000D01*
X67000000Y-59000000D02*
X68200000Y-57800000D01*
X56800000Y-126800000D02*
X56800000Y-69014240D01*
X60000000Y-59600000D02*
X60600000Y-59000000D01*
X57000020Y-68814220D02*
X57000020Y-60199980D01*
X60600000Y-59000000D02*
X67000000Y-59000000D01*
X57000020Y-60199980D02*
X57600000Y-59600000D01*
X56800000Y-69014240D02*
X57000020Y-68814220D01*
X57600000Y-59600000D02*
X60000000Y-59600000D01*
X68200000Y-57800000D02*
X69598002Y-57800000D01*
X69598002Y-57800000D02*
X71000000Y-59201998D01*
%TO.N,SW4_UP*%
X111500000Y-58200000D02*
X112000000Y-58200000D01*
X112000000Y-58200000D02*
X114000000Y-60200000D01*
X114000000Y-60200000D02*
X114000000Y-65000000D01*
X114000000Y-65000000D02*
X114000000Y-71400000D01*
X114000000Y-71400000D02*
X115600000Y-73000000D01*
X115600000Y-73000000D02*
X115600000Y-74200000D01*
X115600000Y-74200000D02*
X115600000Y-75600000D01*
X115600000Y-75600000D02*
X115600000Y-81000000D01*
X115600000Y-81000000D02*
X115600000Y-87800000D01*
X115600000Y-87800000D02*
X115600000Y-93800000D01*
X115600000Y-93800000D02*
X115600000Y-110800000D01*
X115725010Y-110800000D02*
X115800000Y-110874990D01*
X115600000Y-110800000D02*
X115725010Y-110800000D01*
X151380000Y-132780000D02*
X151380000Y-133600000D01*
X150600000Y-132000000D02*
X151380000Y-132780000D01*
X148200000Y-132000000D02*
X150600000Y-132000000D01*
X132200000Y-127800000D02*
X144000000Y-127800000D01*
X144000000Y-127800000D02*
X148200000Y-132000000D01*
X131000000Y-126600000D02*
X132200000Y-127800000D01*
X131000000Y-111662536D02*
X131000000Y-126600000D01*
X130137464Y-110800000D02*
X131000000Y-111662536D01*
X127000000Y-110800000D02*
X130137464Y-110800000D01*
%TO.N,SW4_RIGHT*%
X131919676Y-128400000D02*
X143640000Y-128400000D01*
X130475010Y-111844666D02*
X130475010Y-126955334D01*
X130255334Y-111624990D02*
X130475010Y-111844666D01*
X115424990Y-111624990D02*
X130255334Y-111624990D01*
X143640000Y-128400000D02*
X148840000Y-133600000D01*
X115000000Y-111200000D02*
X115424990Y-111624990D01*
X130475010Y-126955334D02*
X131919676Y-128400000D01*
X115000000Y-73200000D02*
X115000000Y-111200000D01*
X113400000Y-64000000D02*
X113400000Y-71600000D01*
X113400000Y-71600000D02*
X115000000Y-73200000D01*
X111600000Y-62200000D02*
X113400000Y-64000000D01*
X111500000Y-62200000D02*
X111600000Y-62200000D01*
%TO.N,SW4_DOWN*%
X125000000Y-128400000D02*
X124400000Y-128400000D01*
X125600000Y-129000000D02*
X125000000Y-128400000D01*
X141700000Y-129000000D02*
X125600000Y-129000000D01*
X146300000Y-133600000D02*
X141700000Y-129000000D01*
X111500000Y-66200000D02*
X111500000Y-70407120D01*
X111500000Y-70407120D02*
X114400000Y-73307120D01*
X114400000Y-73307120D02*
X114400000Y-97600000D01*
X114400000Y-97600000D02*
X114400000Y-110200000D01*
X114400000Y-110200000D02*
X114400000Y-111200000D01*
X114400000Y-124625000D02*
X115375000Y-125600000D01*
X114400000Y-111200000D02*
X114400000Y-124625000D01*
%TO.N,SW4_CLICK*%
X141220000Y-133600000D02*
X138420000Y-130800000D01*
X100000000Y-63600000D02*
X97400000Y-66200000D01*
X108737464Y-70400000D02*
X106813998Y-70400000D01*
X97400000Y-66200000D02*
X96500000Y-66200000D01*
X112700010Y-110300010D02*
X112700010Y-88700010D01*
X102600000Y-63600000D02*
X100000000Y-63600000D01*
X112200000Y-88200000D02*
X112200000Y-73892880D01*
X112200000Y-73892880D02*
X112053560Y-73746440D01*
X112053560Y-73746440D02*
X112053560Y-73716096D01*
X112700010Y-88700010D02*
X112200000Y-88200000D01*
X112053560Y-73716096D02*
X108737464Y-70400000D01*
X106813998Y-70400000D02*
X105200000Y-68786002D01*
X105200000Y-68786002D02*
X105200000Y-66200000D01*
X105200000Y-66200000D02*
X102600000Y-63600000D01*
X112700010Y-110300010D02*
X112700010Y-110592890D01*
X112700010Y-110592890D02*
X113253560Y-111146440D01*
X138420000Y-130800000D02*
X125550000Y-130800000D01*
X113253560Y-111146440D02*
X113300010Y-111192890D01*
X113300010Y-125550010D02*
X113550000Y-125800000D01*
X113300010Y-111192890D02*
X113300010Y-125550010D01*
X124550000Y-130800000D02*
X124400000Y-130650000D01*
X125550000Y-130800000D02*
X124550000Y-130800000D01*
%TO.N,SW5_LEFT*%
X154600000Y-74840000D02*
X152840000Y-74840000D01*
X148150001Y-70150001D02*
X136550001Y-70150001D01*
X152840000Y-74840000D02*
X148150001Y-70150001D01*
X136550001Y-70150001D02*
X134600000Y-68200000D01*
X129919998Y-68200000D02*
X129000000Y-67280002D01*
X134600000Y-68200000D02*
X129919998Y-68200000D01*
X129000000Y-67280002D02*
X129000000Y-64000000D01*
X129000000Y-64000000D02*
X127400000Y-62400000D01*
X127200000Y-62200000D02*
X127400000Y-62400000D01*
X115500000Y-62200000D02*
X127200000Y-62200000D01*
%TO.N,SW5_UP*%
X130500000Y-58200000D02*
X131600000Y-58200000D01*
X131600000Y-58200000D02*
X132800000Y-59400000D01*
X133000000Y-59600000D02*
X140000000Y-59600000D01*
X132800000Y-59400000D02*
X133000000Y-59600000D01*
X142400000Y-61000000D02*
X145800000Y-61000000D01*
X145800000Y-61000000D02*
X148000000Y-63200000D01*
X148000000Y-63200000D02*
X148000000Y-67400000D01*
X148000000Y-67400000D02*
X148400000Y-67800000D01*
X148400000Y-67800000D02*
X152600000Y-67800000D01*
X153180000Y-67220000D02*
X154600000Y-67220000D01*
X152600000Y-67800000D02*
X153180000Y-67220000D01*
%TO.N,SW5_RIGHT*%
X130500000Y-62200000D02*
X131000000Y-62200000D01*
X132800000Y-60400000D02*
X139400000Y-60400000D01*
X131000000Y-62200000D02*
X132800000Y-60400000D01*
X153240000Y-68400000D02*
X154600000Y-69760000D01*
X148292880Y-68400000D02*
X153240000Y-68400000D01*
X147499990Y-67607110D02*
X148292880Y-68400000D01*
X147499990Y-63699990D02*
X147499990Y-67607110D01*
X145800000Y-62000000D02*
X147499990Y-63699990D01*
X141600000Y-62000000D02*
X145800000Y-62000000D01*
%TO.N,SW5_DOWN*%
X151900000Y-72300000D02*
X148800000Y-69200000D01*
X154600000Y-72300000D02*
X151900000Y-72300000D01*
X132900001Y-63799999D02*
X130500000Y-66200000D01*
X136800001Y-63799999D02*
X137200000Y-63400000D01*
X132900001Y-63799999D02*
X136800001Y-63799999D01*
%TO.N,SW6_CLICK*%
X147401998Y-54800000D02*
X153400000Y-54800000D01*
X136001998Y-66200000D02*
X147401998Y-54800000D01*
X134500000Y-66200000D02*
X136001998Y-66200000D01*
%TO.N,SW6_DOWN*%
X149500000Y-66200000D02*
X151200000Y-64500000D01*
X151200000Y-64500000D02*
X151200000Y-62000000D01*
X153999980Y-59200020D02*
X156799980Y-59200020D01*
X151200000Y-62000000D02*
X153999980Y-59200020D01*
X161200000Y-54800000D02*
X163800000Y-54800000D01*
X156799980Y-59200020D02*
X161200000Y-54800000D01*
%TO.N,SW6_RIGHT*%
X149500000Y-62200000D02*
X150000000Y-62200000D01*
X153499990Y-58700010D02*
X156499990Y-58700010D01*
X150000000Y-62200000D02*
X153499990Y-58700010D01*
X156499990Y-58700010D02*
X160600000Y-54600000D01*
X160600000Y-54600000D02*
X160600000Y-52600000D01*
X160940000Y-52260000D02*
X163800000Y-52260000D01*
X160600000Y-52600000D02*
X160940000Y-52260000D01*
%TO.N,SW6_UP*%
X149500000Y-58200000D02*
X156200000Y-58200000D01*
X156200000Y-58200000D02*
X160000000Y-54400000D01*
X160000000Y-54400000D02*
X160000000Y-51200000D01*
X161480000Y-49720000D02*
X163800000Y-49720000D01*
X160000000Y-51200000D02*
X161480000Y-49720000D01*
%TO.N,SW6_LEFT*%
X148826002Y-52260000D02*
X153400000Y-52260000D01*
X138886002Y-62200000D02*
X148826002Y-52260000D01*
X134500000Y-62200000D02*
X138886002Y-62200000D01*
%TO.N,SW5_CLICK*%
X115500000Y-66200000D02*
X115500000Y-65100000D01*
X115500000Y-65100000D02*
X117899990Y-62700010D01*
X117899990Y-62700010D02*
X126900010Y-62700010D01*
X126900010Y-62700010D02*
X128499990Y-64299990D01*
X128499990Y-67487112D02*
X129712886Y-68700008D01*
X128499990Y-64299990D02*
X128499990Y-67487112D01*
X129712886Y-68700008D02*
X134300008Y-68700008D01*
X134692880Y-69000000D02*
X136342889Y-70650009D01*
X134600000Y-69000000D02*
X134692880Y-69000000D01*
X134300008Y-68700008D02*
X134600000Y-69000000D01*
X136342889Y-70650009D02*
X147850009Y-70650009D01*
X154580000Y-77380000D02*
X154600000Y-77380000D01*
X147850009Y-70650009D02*
X154580000Y-77380000D01*
%TD*%
M02*
