M48
; DRILL file {KiCad (5.1.10)-1} date 05/16/22 18:50:17
; FORMAT={3:3/ absolute / metric / suppress leading zeros}
; #@! TF.CreationDate,2022-05-16T18:50:17-07:00
; #@! TF.GenerationSoftware,Kicad,Pcbnew,(5.1.10)-1
FMAT,2
METRIC,TZ
T1C0.400
T2C1.000
T3C2.000
T4C3.200
%
G90
G05
T1
X37350Y-58400
X50550Y-71800
X60500Y-71100
X60600Y-72400
X62800Y-58200
X62800Y-59800
X69000Y-72000
X75400Y-70000
X80100Y-72200
X81000Y-56400
X81000Y-58400
X88200Y-72000
X92200Y-136000
X100000Y-56400
X100000Y-58400
X112600Y-69600
X113550Y-125800
X114600Y-126400
X115375Y-125600
X115800Y-110875
X117900Y-72600
X119200Y-56400
X119200Y-58400
X122600Y-136200
X124400Y-128400
X124400Y-129600
X124400Y-130650
X127000Y-110800
X132200Y-70500
X132600Y-56900
X136600Y-72300
X137200Y-63400
X139400Y-60400
X140000Y-59600
X141600Y-62000
X142400Y-61000
X148800Y-69200
X158050Y-91000
X159000Y-85000
X162600Y-89200
X162600Y-111000
X163600Y-97400
T2
X42200Y-133600
X42200Y-136140
X44740Y-133600
X44740Y-136140
X45710Y-33500
X45710Y-72000
X45710Y-90750
X45710Y-109750
X47280Y-133600
X47280Y-136140
X48250Y-33500
X48250Y-72000
X48250Y-90750
X48250Y-109750
X49820Y-133600
X49820Y-136140
X52360Y-133600
X52360Y-136140
X54900Y-133600
X54900Y-136140
X57440Y-133600
X57440Y-136140
X59980Y-133600
X59980Y-136140
X64710Y-33500
X64710Y-72000
X64710Y-90750
X64750Y-109750
X67250Y-33500
X67250Y-72000
X67250Y-90750
X67290Y-109750
X72600Y-133600
X72600Y-136140
X75140Y-133600
X75140Y-136140
X77680Y-133600
X77680Y-136140
X80220Y-133600
X80220Y-136140
X82760Y-133600
X82760Y-136140
X83710Y-33500
X83710Y-72000
X83710Y-109750
X83750Y-90750
X85300Y-133600
X85300Y-136140
X86250Y-33500
X86250Y-72000
X86250Y-109750
X86290Y-90750
X87840Y-133600
X87840Y-136140
X90380Y-133600
X90380Y-136140
X102710Y-72000
X102710Y-109750
X102750Y-33500
X102750Y-90750
X103200Y-133600
X103200Y-136140
X105250Y-72000
X105250Y-109750
X105290Y-33500
X105290Y-90750
X105740Y-133600
X105740Y-136140
X108280Y-133600
X108280Y-136140
X110820Y-133600
X110820Y-136140
X113360Y-133600
X113360Y-136140
X115900Y-133600
X115900Y-136140
X118440Y-133600
X118440Y-136140
X120980Y-133600
X120980Y-136140
X121710Y-33500
X121710Y-109750
X121750Y-72000
X121750Y-90750
X124250Y-33500
X124250Y-109750
X124290Y-72000
X124290Y-90750
X133600Y-133600
X133600Y-136140
X136140Y-133600
X136140Y-136140
X138680Y-133600
X138680Y-136140
X140710Y-72000
X140710Y-109750
X140750Y-33500
X140750Y-90750
X141220Y-133600
X141220Y-136140
X143250Y-72000
X143250Y-109750
X143290Y-33500
X143290Y-90750
X143760Y-133600
X143760Y-136140
X146300Y-133600
X146300Y-136140
X148840Y-133600
X148840Y-136140
X151380Y-133600
X151380Y-136140
X153400Y-37020
X153400Y-39560
X153400Y-42100
X153400Y-44640
X153400Y-47180
X153400Y-49720
X153400Y-52260
X153400Y-54800
X154600Y-67220
X154600Y-69760
X154600Y-72300
X154600Y-74840
X154600Y-77380
X154600Y-79920
X154600Y-82460
X154600Y-85000
X154600Y-101020
X154600Y-103560
X154600Y-106100
X154600Y-108640
X154600Y-111180
X154600Y-113720
X154600Y-116260
X154600Y-118800
X155940Y-37020
X155940Y-39560
X155940Y-42100
X155940Y-44640
X155940Y-47180
X155940Y-49720
X155940Y-52260
X155940Y-54800
X157140Y-67220
X157140Y-69760
X157140Y-72300
X157140Y-74840
X157140Y-77380
X157140Y-79920
X157140Y-82460
X157140Y-85000
X157140Y-101020
X157140Y-103560
X157140Y-106100
X157140Y-108640
X157140Y-111180
X157140Y-113720
X157140Y-116260
X157140Y-118800
X159000Y-127840
X159000Y-130380
X159000Y-132920
X159000Y-135460
X159000Y-138000
X163600Y-82900
X163600Y-85440
X163600Y-87980
X163600Y-90520
X163600Y-93060
X163600Y-95600
X164010Y-37020
X164010Y-39560
X164010Y-42100
X164010Y-44640
X164010Y-47180
X164010Y-49720
X164010Y-52260
X164010Y-54800
X165200Y-63760
X165200Y-66300
X165200Y-68840
X165200Y-71380
X165200Y-73920
X165200Y-76460
X165200Y-79000
X165200Y-101600
X165200Y-104140
X165200Y-106680
X165200Y-109220
X165200Y-111760
X165200Y-114300
X165200Y-116840
X165200Y-119380
X166140Y-82900
X166140Y-85440
X166140Y-87980
X166140Y-90520
X166140Y-93060
X166140Y-95600
X166550Y-37020
X166550Y-39560
X166550Y-42100
X166550Y-44640
X166550Y-47180
X166550Y-49720
X166550Y-52260
X166550Y-54800
T3
X44000Y-65200
X50000Y-59200
X63000Y-65200
X69000Y-59200
X82000Y-65200
X88000Y-59200
X101000Y-65200
X107000Y-59200
X120000Y-65200
X126000Y-59200
X139000Y-65200
X145000Y-59200
T4
X43500Y-68200
X47000Y-56200
X50500Y-68200
X62500Y-68200
X66000Y-56200
X69500Y-68200
X81500Y-68200
X85000Y-56200
X88500Y-68200
X100500Y-68200
X104000Y-56200
X107500Y-68200
X119500Y-68200
X123000Y-56200
X126500Y-68200
X138500Y-68200
X142000Y-56200
X145500Y-68200
T0
M30
