%TF.GenerationSoftware,KiCad,Pcbnew,(5.1.10)-1*%
%TF.CreationDate,2022-05-16T18:50:31-07:00*%
%TF.ProjectId,KeyPad_Board,4b657950-6164-45f4-926f-6172642e6b69,rev?*%
%TF.SameCoordinates,Original*%
%TF.FileFunction,Soldermask,Top*%
%TF.FilePolarity,Negative*%
%FSLAX46Y46*%
G04 Gerber Fmt 4.6, Leading zero omitted, Abs format (unit mm)*
G04 Created by KiCad (PCBNEW (5.1.10)-1) date 2022-05-16 18:50:31*
%MOMM*%
%LPD*%
G01*
G04 APERTURE LIST*
%ADD10C,1.700000*%
%ADD11R,2.000000X1.900000*%
%ADD12C,3.200000*%
%ADD13C,2.000000*%
%ADD14R,1.700000X1.700000*%
%ADD15O,1.700000X1.700000*%
G04 APERTURE END LIST*
%TO.C,J6*%
G36*
G01*
X153750000Y-85600000D02*
X153750000Y-84400000D01*
G75*
G02*
X154000000Y-84150000I250000J0D01*
G01*
X155200000Y-84150000D01*
G75*
G02*
X155450000Y-84400000I0J-250000D01*
G01*
X155450000Y-85600000D01*
G75*
G02*
X155200000Y-85850000I-250000J0D01*
G01*
X154000000Y-85850000D01*
G75*
G02*
X153750000Y-85600000I0J250000D01*
G01*
G37*
D10*
X154600000Y-82460000D03*
X154600000Y-79920000D03*
X154600000Y-77380000D03*
X154600000Y-74840000D03*
X154600000Y-72300000D03*
X154600000Y-69760000D03*
X154600000Y-67220000D03*
X157140000Y-85000000D03*
X157140000Y-82460000D03*
X157140000Y-79920000D03*
X157140000Y-77380000D03*
X157140000Y-74840000D03*
X157140000Y-72300000D03*
X157140000Y-69760000D03*
X157140000Y-67220000D03*
%TD*%
D11*
%TO.C,SW6*%
X149500000Y-58200000D03*
X149500000Y-62200000D03*
X149500000Y-66200000D03*
X134500000Y-58200000D03*
X134500000Y-62200000D03*
X134500000Y-66200000D03*
D12*
X138500000Y-68200000D03*
X145500000Y-68200000D03*
X142000000Y-56200000D03*
D13*
X139000000Y-65200000D03*
X145000000Y-59200000D03*
%TD*%
%TO.C,J1*%
G36*
G01*
X41600000Y-132750000D02*
X42800000Y-132750000D01*
G75*
G02*
X43050000Y-133000000I0J-250000D01*
G01*
X43050000Y-134200000D01*
G75*
G02*
X42800000Y-134450000I-250000J0D01*
G01*
X41600000Y-134450000D01*
G75*
G02*
X41350000Y-134200000I0J250000D01*
G01*
X41350000Y-133000000D01*
G75*
G02*
X41600000Y-132750000I250000J0D01*
G01*
G37*
D10*
X44740000Y-133600000D03*
X47280000Y-133600000D03*
X49820000Y-133600000D03*
X52360000Y-133600000D03*
X54900000Y-133600000D03*
X57440000Y-133600000D03*
X59980000Y-133600000D03*
X42200000Y-136140000D03*
X44740000Y-136140000D03*
X47280000Y-136140000D03*
X49820000Y-136140000D03*
X52360000Y-136140000D03*
X54900000Y-136140000D03*
X57440000Y-136140000D03*
X59980000Y-136140000D03*
%TD*%
%TO.C,J2*%
G36*
G01*
X72000000Y-132750000D02*
X73200000Y-132750000D01*
G75*
G02*
X73450000Y-133000000I0J-250000D01*
G01*
X73450000Y-134200000D01*
G75*
G02*
X73200000Y-134450000I-250000J0D01*
G01*
X72000000Y-134450000D01*
G75*
G02*
X71750000Y-134200000I0J250000D01*
G01*
X71750000Y-133000000D01*
G75*
G02*
X72000000Y-132750000I250000J0D01*
G01*
G37*
X75140000Y-133600000D03*
X77680000Y-133600000D03*
X80220000Y-133600000D03*
X82760000Y-133600000D03*
X85300000Y-133600000D03*
X87840000Y-133600000D03*
X90380000Y-133600000D03*
X72600000Y-136140000D03*
X75140000Y-136140000D03*
X77680000Y-136140000D03*
X80220000Y-136140000D03*
X82760000Y-136140000D03*
X85300000Y-136140000D03*
X87840000Y-136140000D03*
X90380000Y-136140000D03*
%TD*%
%TO.C,J3*%
G36*
G01*
X102600000Y-132750000D02*
X103800000Y-132750000D01*
G75*
G02*
X104050000Y-133000000I0J-250000D01*
G01*
X104050000Y-134200000D01*
G75*
G02*
X103800000Y-134450000I-250000J0D01*
G01*
X102600000Y-134450000D01*
G75*
G02*
X102350000Y-134200000I0J250000D01*
G01*
X102350000Y-133000000D01*
G75*
G02*
X102600000Y-132750000I250000J0D01*
G01*
G37*
X105740000Y-133600000D03*
X108280000Y-133600000D03*
X110820000Y-133600000D03*
X113360000Y-133600000D03*
X115900000Y-133600000D03*
X118440000Y-133600000D03*
X120980000Y-133600000D03*
X103200000Y-136140000D03*
X105740000Y-136140000D03*
X108280000Y-136140000D03*
X110820000Y-136140000D03*
X113360000Y-136140000D03*
X115900000Y-136140000D03*
X118440000Y-136140000D03*
X120980000Y-136140000D03*
%TD*%
%TO.C,J4*%
X151380000Y-136140000D03*
X148840000Y-136140000D03*
X146300000Y-136140000D03*
X143760000Y-136140000D03*
X141220000Y-136140000D03*
X138680000Y-136140000D03*
X136140000Y-136140000D03*
X133600000Y-136140000D03*
X151380000Y-133600000D03*
X148840000Y-133600000D03*
X146300000Y-133600000D03*
X143760000Y-133600000D03*
X141220000Y-133600000D03*
X138680000Y-133600000D03*
X136140000Y-133600000D03*
G36*
G01*
X133000000Y-132750000D02*
X134200000Y-132750000D01*
G75*
G02*
X134450000Y-133000000I0J-250000D01*
G01*
X134450000Y-134200000D01*
G75*
G02*
X134200000Y-134450000I-250000J0D01*
G01*
X133000000Y-134450000D01*
G75*
G02*
X132750000Y-134200000I0J250000D01*
G01*
X132750000Y-133000000D01*
G75*
G02*
X133000000Y-132750000I250000J0D01*
G01*
G37*
%TD*%
%TO.C,J5*%
X157140000Y-101020000D03*
X157140000Y-103560000D03*
X157140000Y-106100000D03*
X157140000Y-108640000D03*
X157140000Y-111180000D03*
X157140000Y-113720000D03*
X157140000Y-116260000D03*
X157140000Y-118800000D03*
X154600000Y-101020000D03*
X154600000Y-103560000D03*
X154600000Y-106100000D03*
X154600000Y-108640000D03*
X154600000Y-111180000D03*
X154600000Y-113720000D03*
X154600000Y-116260000D03*
G36*
G01*
X153750000Y-119400000D02*
X153750000Y-118200000D01*
G75*
G02*
X154000000Y-117950000I250000J0D01*
G01*
X155200000Y-117950000D01*
G75*
G02*
X155450000Y-118200000I0J-250000D01*
G01*
X155450000Y-119400000D01*
G75*
G02*
X155200000Y-119650000I-250000J0D01*
G01*
X154000000Y-119650000D01*
G75*
G02*
X153750000Y-119400000I0J250000D01*
G01*
G37*
%TD*%
%TO.C,J7*%
X155940000Y-37020000D03*
X155940000Y-39560000D03*
X155940000Y-42100000D03*
X155940000Y-44640000D03*
X155940000Y-47180000D03*
X155940000Y-49720000D03*
X155940000Y-52260000D03*
X155940000Y-54800000D03*
X153400000Y-37020000D03*
X153400000Y-39560000D03*
X153400000Y-42100000D03*
X153400000Y-44640000D03*
X153400000Y-47180000D03*
X153400000Y-49720000D03*
X153400000Y-52260000D03*
G36*
G01*
X152550000Y-55400000D02*
X152550000Y-54200000D01*
G75*
G02*
X152800000Y-53950000I250000J0D01*
G01*
X154000000Y-53950000D01*
G75*
G02*
X154250000Y-54200000I0J-250000D01*
G01*
X154250000Y-55400000D01*
G75*
G02*
X154000000Y-55650000I-250000J0D01*
G01*
X152800000Y-55650000D01*
G75*
G02*
X152550000Y-55400000I0J250000D01*
G01*
G37*
%TD*%
%TO.C,J8*%
X166550000Y-37020000D03*
X166550000Y-39560000D03*
X166550000Y-42100000D03*
X166550000Y-44640000D03*
X166550000Y-47180000D03*
X166550000Y-49720000D03*
X166550000Y-52260000D03*
X166550000Y-54800000D03*
X164010000Y-37020000D03*
X164010000Y-39560000D03*
X164010000Y-42100000D03*
X164010000Y-44640000D03*
X164010000Y-47180000D03*
X164010000Y-49720000D03*
X164010000Y-52260000D03*
G36*
G01*
X163160000Y-55400000D02*
X163160000Y-54200000D01*
G75*
G02*
X163410000Y-53950000I250000J0D01*
G01*
X164610000Y-53950000D01*
G75*
G02*
X164860000Y-54200000I0J-250000D01*
G01*
X164860000Y-55400000D01*
G75*
G02*
X164610000Y-55650000I-250000J0D01*
G01*
X163410000Y-55650000D01*
G75*
G02*
X163160000Y-55400000I0J250000D01*
G01*
G37*
%TD*%
D14*
%TO.C,J9*%
X159000000Y-138000000D03*
D15*
X159000000Y-135460000D03*
X159000000Y-132920000D03*
X159000000Y-130380000D03*
X159000000Y-127840000D03*
%TD*%
D14*
%TO.C,J10*%
X165200000Y-79000000D03*
D15*
X165200000Y-76460000D03*
X165200000Y-73920000D03*
X165200000Y-71380000D03*
X165200000Y-68840000D03*
X165200000Y-66300000D03*
X165200000Y-63760000D03*
%TD*%
D14*
%TO.C,J11*%
X165200000Y-101600000D03*
D15*
X165200000Y-104140000D03*
X165200000Y-106680000D03*
X165200000Y-109220000D03*
X165200000Y-111760000D03*
X165200000Y-114300000D03*
X165200000Y-116840000D03*
X165200000Y-119380000D03*
%TD*%
D14*
%TO.C,KB1*%
X45710000Y-33500000D03*
D15*
X48250000Y-33500000D03*
%TD*%
%TO.C,KB2*%
X67250000Y-33500000D03*
D14*
X64710000Y-33500000D03*
%TD*%
%TO.C,KB3*%
X83710000Y-33500000D03*
D15*
X86250000Y-33500000D03*
%TD*%
%TO.C,KB4*%
X105290000Y-33500000D03*
D14*
X102750000Y-33500000D03*
%TD*%
%TO.C,KB5*%
X121710000Y-33500000D03*
D15*
X124250000Y-33500000D03*
%TD*%
%TO.C,KB6*%
X143290000Y-33500000D03*
D14*
X140750000Y-33500000D03*
%TD*%
%TO.C,KB7*%
X45710000Y-72000000D03*
D15*
X48250000Y-72000000D03*
%TD*%
%TO.C,KB8*%
X67250000Y-72000000D03*
D14*
X64710000Y-72000000D03*
%TD*%
D15*
%TO.C,KB9*%
X86250000Y-72000000D03*
D14*
X83710000Y-72000000D03*
%TD*%
%TO.C,KB10*%
X102710000Y-72000000D03*
D15*
X105250000Y-72000000D03*
%TD*%
%TO.C,KB11*%
X124290000Y-72000000D03*
D14*
X121750000Y-72000000D03*
%TD*%
%TO.C,KB12*%
X140710000Y-72000000D03*
D15*
X143250000Y-72000000D03*
%TD*%
D14*
%TO.C,KB13*%
X45710000Y-90750000D03*
D15*
X48250000Y-90750000D03*
%TD*%
%TO.C,KB14*%
X67250000Y-90750000D03*
D14*
X64710000Y-90750000D03*
%TD*%
%TO.C,KB15*%
X83750000Y-90750000D03*
D15*
X86290000Y-90750000D03*
%TD*%
%TO.C,KB16*%
X105290000Y-90750000D03*
D14*
X102750000Y-90750000D03*
%TD*%
%TO.C,KB17*%
X121750000Y-90750000D03*
D15*
X124290000Y-90750000D03*
%TD*%
%TO.C,KB18*%
X143290000Y-90750000D03*
D14*
X140750000Y-90750000D03*
%TD*%
%TO.C,KB19*%
X45710000Y-109750000D03*
D15*
X48250000Y-109750000D03*
%TD*%
%TO.C,KB20*%
X67290000Y-109750000D03*
D14*
X64750000Y-109750000D03*
%TD*%
%TO.C,KB21*%
X83710000Y-109750000D03*
D15*
X86250000Y-109750000D03*
%TD*%
%TO.C,KB22*%
X105250000Y-109750000D03*
D14*
X102710000Y-109750000D03*
%TD*%
%TO.C,KB23*%
X121710000Y-109750000D03*
D15*
X124250000Y-109750000D03*
%TD*%
%TO.C,KB24*%
X143250000Y-109750000D03*
D14*
X140710000Y-109750000D03*
%TD*%
%TO.C,J12*%
X163600000Y-95600000D03*
D15*
X166140000Y-95600000D03*
X163600000Y-93060000D03*
X166140000Y-93060000D03*
X163600000Y-90520000D03*
X166140000Y-90520000D03*
X163600000Y-87980000D03*
X166140000Y-87980000D03*
X163600000Y-85440000D03*
X166140000Y-85440000D03*
X163600000Y-82900000D03*
X166140000Y-82900000D03*
%TD*%
D13*
%TO.C,SW1*%
X50000000Y-59200000D03*
X44000000Y-65200000D03*
D12*
X47000000Y-56200000D03*
X50500000Y-68200000D03*
X43500000Y-68200000D03*
D11*
X39500000Y-66200000D03*
X39500000Y-62200000D03*
X39500000Y-58200000D03*
X54500000Y-66200000D03*
X54500000Y-62200000D03*
X54500000Y-58200000D03*
%TD*%
%TO.C,SW2*%
X73500000Y-58200000D03*
X73500000Y-62200000D03*
X73500000Y-66200000D03*
X58500000Y-58200000D03*
X58500000Y-62200000D03*
X58500000Y-66200000D03*
D12*
X62500000Y-68200000D03*
X69500000Y-68200000D03*
X66000000Y-56200000D03*
D13*
X63000000Y-65200000D03*
X69000000Y-59200000D03*
%TD*%
%TO.C,SW3*%
X88000000Y-59200000D03*
X82000000Y-65200000D03*
D12*
X85000000Y-56200000D03*
X88500000Y-68200000D03*
X81500000Y-68200000D03*
D11*
X77500000Y-66200000D03*
X77500000Y-62200000D03*
X77500000Y-58200000D03*
X92500000Y-66200000D03*
X92500000Y-62200000D03*
X92500000Y-58200000D03*
%TD*%
%TO.C,SW4*%
X111500000Y-58200000D03*
X111500000Y-62200000D03*
X111500000Y-66200000D03*
X96500000Y-58200000D03*
X96500000Y-62200000D03*
X96500000Y-66200000D03*
D12*
X100500000Y-68200000D03*
X107500000Y-68200000D03*
X104000000Y-56200000D03*
D13*
X101000000Y-65200000D03*
X107000000Y-59200000D03*
%TD*%
%TO.C,SW5*%
X126000000Y-59200000D03*
X120000000Y-65200000D03*
D12*
X123000000Y-56200000D03*
X126500000Y-68200000D03*
X119500000Y-68200000D03*
D11*
X115500000Y-66200000D03*
X115500000Y-62200000D03*
X115500000Y-58200000D03*
X130500000Y-66200000D03*
X130500000Y-62200000D03*
X130500000Y-58200000D03*
%TD*%
M02*
